<?xml version="1.0" standalone="no"?>
<!DOCTYPE svg PUBLIC "-//W3C//DTD SVG 1.1//EN" "http://www.w3.org/Graphics/SVG/1.1/DTD/svg11.dtd" >
<svg xmlns="http://www.w3.org/2000/svg">
<metadata></metadata>
<defs>
<font id="rulerbold" horiz-adv-x="1100" >
<font-face units-per-em="2048" ascent="1638" descent="-410" />
<missing-glyph horiz-adv-x="600" />
<glyph horiz-adv-x="1245" />
<glyph horiz-adv-x="1245" />
<glyph unicode="&#xd;" horiz-adv-x="549" />
<glyph unicode=" "  horiz-adv-x="600" />
<glyph unicode="&#x09;" horiz-adv-x="600" />
<glyph unicode="&#xa0;" horiz-adv-x="600" />
<glyph unicode="!" horiz-adv-x="557" d="M0 100q0 53 38 91t91 38q52 0 90 -38t38 -91t-38 -90.5t-90 -37.5q-53 0 -91 37.5t-38 90.5zM1 506v1388q0 54 37 92q37 39 91 39q53 0 90 -39q37 -38 37 -92v-1388q0 -54 -37 -92q-37 -39 -90 -39q-54 0 -91 39q-37 38 -37 92z" />
<glyph unicode="&#x22;" horiz-adv-x="950" d="M0 1706v188q0 54 36 92q37 39 89 39t89 -39q36 -38 36 -92v-188q0 -54 -36 -92q-37 -39 -89 -39t-89 39q-36 38 -36 92zM400 1706v187q0 54 36 92q36 40 89 40q52 0 89 -40q36 -38 36 -92v-187q0 -54 -36 -92q-37 -39 -89 -39q-53 0 -89 39q-36 38 -36 92z" />
<glyph unicode="#" horiz-adv-x="1456" d="M0 802q0 53 38 92q39 38 92 38h69v237h-69q-53 0 -92 37q-38 39 -38 93q0 53 38 92q39 38 92 38h69v466q0 53 38 92q39 38 92 38q54 0 93 -38q38 -39 38 -92v-466h236v466q0 53 38 92q39 38 93 38q53 0 92 -38q38 -39 38 -92v-466h68q54 0 93 -38q38 -39 38 -92 q0 -54 -38 -93q-39 -37 -93 -37h-68v-237h68q54 0 93 -38q38 -39 38 -92q0 -54 -38 -93q-39 -38 -93 -38h-68v-565q0 -54 -38 -93q-39 -38 -92 -38q-54 0 -93 38q-38 39 -38 93v565h-236v-565q0 -54 -38 -93q-39 -38 -93 -38q-53 0 -92 38q-38 39 -38 93v565h-69 q-53 0 -92 38q-38 39 -38 93zM460 932h236v237h-236v-237z" />
<glyph unicode="$" horiz-adv-x="1212" d="M1 400v3q0 53 38 92q39 38 92 38q54 0 93 -38q38 -39 38 -92v-3q0 -68 50 -116q48 -48 113 -50h12q65 3 112 51q49 48 50 90h-1v32l1 3v5q2 32 2 63q0 177 -79 313q-56 95 -210 238q-156 145 -214 232q-97 149 -97 336v-6q2 183 118 300q87 87 181 113v90q0 54 37 93 q39 38 93 38q53 0 92 -38q38 -39 38 -93v-89q92 -26 172 -104q120 -120 126 -288l1 -14v-2q0 -54 -38 -93q-39 -38 -93 -38q-53 0 -92 38q-38 39 -38 93v5l1 3v-2q-2 65 -50 113q-49 48 -116 49h-6q-67 -1 -115.5 -50t-50.5 -111l1 -3q0 -115 68 -212q42 -61 160 -171 q195 -180 267 -307q105 -183 105 -425q0 -41 -3 -84v-4l-1 -5v-1q-4 -170 -124 -291q-83 -82 -174 -107v-89q0 -54 -38 -93q-39 -37 -92 -37q-54 0 -93 37q-37 39 -37 93v90q-93 25 -173 104q-118 119 -125 288z" />
<glyph unicode="%" horiz-adv-x="2185" d="M1 1599l1 13q5 170 126 289q124 123 273 124h31l13 -1q169 -5 288 -125q123 -124 124 -298v24h1v-30l-1 -15q-6 -167 -125 -287q-125 -123 -299 -124h-19q-169 6 -288 126q-123 124 -125 308v-4zM261 1594q1 -68 49 -115q48 -48 113 -50h-16q93 0 141 49q48 48 50 112v-1 l-1 3v33h1q-1 42 -50 90q-47 49 -116 50h-31q-42 -1 -90 -49t-50 -116v-6zM598 104q0 14 3 29l398 1790q11 52 57 82q31 21 67 21q15 0 31 -4q52 -12 80 -56q21 -32 21 -68q0 -15 -4 -31l-396 -1789q-12 -52 -57 -82q-33 -21 -68 -21q-15 0 -30 4q-52 11 -82 57 q-20 32 -20 68zM1010 430l1 13q5 170 125 289q125 123 274 124h31l13 -1q169 -5 288 -126q123 -123 124 -297v24h1v-30l-1 -15q-6 -167 -125 -287q-125 -123 -299 -124h-20q-168 6 -287 126q-123 123 -125 308v-4zM1270 425q1 -68 49 -115q48 -48 113 -50h-16q93 0 141 48 q47 48 50 113v-1l-1 3v33h1q-1 42 -50 90q-48 49 -116 50h-31q-42 -1 -90 -49t-50 -116v-6z" />
<glyph unicode="&#x26;" horiz-adv-x="1463" d="M0 499v8l1 12q4 102 35 172.5t68 123.5l1 2q13 16 38 46l159 193l-36 60q-166 268 -166 473v13q0 76 25 147l2 4q11 32 25 55q17 31 36 56l9 10q77 95 193 131q66 20 136 21h4q67 0 115 -18l42 -15q61 -23 118 -71l4 -3l1 -1q99 -88 132 -202q17 -60 17 -118 q0 -144 -101 -277l1 3l-1 -1l-238 -289l240 -402l44 115q18 50 67 73q26 12 53 12q23 0 46 -9q50 -18 73 -68q12 -26 12 -53q0 -23 -9 -46l-115 -308l105 -176q19 -31 19 -64q0 -17 -5 -35q-12 -52 -58 -80q-32 -18 -66 -18q-16 0 -33 4q-52 13 -79 59l-40 65 q-131 -128 -346 -128h-27q-193 1 -347 155q-152 153 -154 369zM260 500q1 -109 79 -186q77 -79 162 -79h27q111 0 182 70v1q22 22 34 38l-7 -12l-293 488l-88 -107l-49 -60l-1 -1q-9 -13 -28 -51q-18 -36 -18 -89v-12zM359 1590q0 -131 118 -321q185 208 206 263 q12 33 12 66q0 20 -5 41q-13 52 -61 92q-13 11 -39 20q-35 13 -72 13h-5q-79 -4 -119 -59q-35 -49 -35 -102v-13z" />
<glyph unicode="'" horiz-adv-x="550" d="M0 1706v188q0 54 36 92q37 39 89 39t89 -39q36 -38 36 -92v-188q0 -54 -36 -92q-37 -39 -89 -39t-89 39q-36 38 -36 92z" />
<glyph unicode="(" horiz-adv-x="867" d="M0 1000q0 528 313 1153q24 48 75 66q20 6 40 6q30 0 59 -14q49 -25 65 -75q7 -21 7 -42q0 -29 -14 -57q-284 -569 -284 -1037q0 -467 284 -1036q14 -28 14 -57q0 -21 -7 -42q-16 -52 -65 -75q-29 -15 -58 -15q-20 0 -41 7q-51 18 -75 66q-313 625 -313 1152z" />
<glyph unicode=")" horiz-adv-x="869" d="M10 -93q0 29 14 57q284 569 284 1036q0 468 -284 1037q-14 28 -14 57q0 21 7 42q16 50 65 75q29 14 59 14q20 0 40 -6q52 -18 75 -66q313 -625 313 -1153q0 -527 -313 -1152q-23 -48 -75 -66q-21 -7 -41 -7q-29 0 -58 15q-49 23 -65 75q-7 21 -7 42z" />
<glyph unicode="*" horiz-adv-x="841" d="M0 1614q0 53 38 92l49 48l-49 49q-38 37 -38 92t38 92q37 38 92 38t92 -38l49 -49l48 49q39 38 92 38q55 0 92 -38q38 -37 38 -92t-38 -92l-49 -49l49 -48q38 -39 38 -92q0 -54 -38 -93q-38 -37 -92 -37q-53 0 -92 37l-48 50l-49 -50q-38 -37 -92 -37t-92 37 q-38 39 -38 93z" />
<glyph unicode="+" horiz-adv-x="1157" d="M0 1005q0 53 38 92q39 38 92 38h170v160q0 53 38 92q39 38 92 38q54 0 93 -38q38 -39 38 -92v-160h166q53 0 92 -38q38 -39 38 -92q0 -54 -38 -93q-39 -38 -92 -38h-166v-176q0 -53 -38 -92q-39 -38 -93 -38q-53 0 -92 38q-38 39 -38 92v176h-170q-53 0 -92 38 q-38 39 -38 93z" />
<glyph unicode="," horiz-adv-x="550" d="M0 93q0 54 36 92q37 39 89 39t89 -39q36 -38 36 -92v-188q0 -54 -36 -92q-37 -39 -89 -39t-89 39q-36 38 -36 92v188z" />
<glyph unicode="-" horiz-adv-x="957" d="M0 995q0 55 38 92q39 38 92 38h397q53 0 92 -38q38 -37 38 -92t-38 -92q-39 -38 -92 -38h-397q-53 0 -92 38q-38 37 -38 92z" />
<glyph unicode="." horiz-adv-x="557" d="M0 100q0 53 38 91t91 38q52 0 90 -38t38 -91t-38 -90.5t-90 -37.5q-53 0 -91 37.5t-38 90.5z" />
<glyph unicode="/" horiz-adv-x="973" d="M8 103q0 14 3 29l398 1790q11 52 57 82q32 21 68 21q14 0 30 -4q52 -12 82 -56q20 -33 20 -69q0 -14 -3 -29l-398 -1790q-11 -52 -57 -82q-33 -21 -68 -21q-15 0 -30 4q-52 11 -82 57q-20 32 -20 68z" />
<glyph unicode="0" horiz-adv-x="1184" d="M4 410v1189l1 13q5 169 124 289q124 123 296 124h6l14 -1q167 -5 285 -125q122 -125 124 -298v-1214q-7 -167 -125 -286l-9 -9q-123 -115 -287 -116h24v-1h-30l-14 1q-166 6 -285 126q-122 125 -124 308zM262 376q1 -42 49 -90q47 -48 113 -51h-3l3 1h33v-1q38 1 84 44 l5 6q48 49 50 113v-2l-1 3v1226h1q-1 42 -49 90q-48 49 -115 50h-6q-66 -1 -114 -49t-49 -116v-1224h-1z" />
<glyph unicode="1" horiz-adv-x="1150" d="M0 105q0 55 38 92q37 38 91 38h167v1529h-167q-54 0 -91 38q-38 39 -38 93q0 53 38 92q37 38 91 38h296q53 0 92 -38q37 -39 37 -92v-1660h167q54 0 91 -38q38 -37 38 -92t-38 -92q-37 -38 -91 -38h-592q-54 0 -91 38q-38 37 -38 92z" />
<glyph unicode="2" horiz-adv-x="1157" d="M0 105q0 449 97 669q62 141 249 309q106 94 156 153v1q68 78 84 151q11 54 11 208v3q-1 67 -50 115q-48 50 -116 50h-30v1q-43 -1 -91 -50q-48 -48 -50 -116v-202q0 -53 -37 -92q-39 -38 -93 -38q-53 0 -92 38q-38 39 -38 92v202l1 12q5 169 125 289q125 123 299 124h-24 v1h30l13 -1q168 -6 288 -126q123 -125 125 -298v-4q0 -205 -18 -283q-27 -114 -172 -284v8l44 43l-1 -2l-5 -5l-1 -1l5 6v-1l-8 -9l-2 -1q-58 -67 -179 -178q-133 -118 -177 -213q-72 -153 -80 -441h464q53 0 92 -38q38 -37 38 -92t-38 -92q-39 -38 -92 -38h-597 q-53 0 -92 38q-38 37 -38 92z" />
<glyph unicode="3" horiz-adv-x="1190" d="M4 403q0 55 39 92q38 38 91 38q55 0 92 -38q38 -37 38 -92v-3q1 -67 49 -115t113 -50h-16q88 1 135 43l5 6q48 49 50 112v408q-1 66 -49 114q-49 50 -116 51h-3q-53 0 -92 38q-38 39 -38 92q0 55 39 92q38 38 91 38h4q66 1 107 42q55 55 57 119v209q-1 67 -49 115 q-48 49 -116 50h-31q-42 0 -90 -49q-49 -48 -50 -116v-3q0 -53 -38 -92q-37 -38 -92 -38q-53 0 -92 38q-38 39 -38 92v3l1 12q5 169 125 289q125 123 298 124h-24v1h30l14 -1q168 -6 287 -126q123 -125 125 -298v-220q-7 -166 -119 -277v-2l-3 -3l-3 4q123 -125 125 -297 v-419q-7 -167 -126 -286l-10 -9q-123 -114 -288 -116h-19q-169 6 -288 126q-123 125 -125 308v-6z" />
<glyph unicode="4" horiz-adv-x="1166" d="M8 701q0 16 4 32l299 1193q13 52 60 80q31 19 64 19q17 0 34 -5q52 -12 79 -58q20 -32 20 -66q0 -16 -5 -33l-257 -1031h300v665q0 55 38 92q37 38 92 38q53 0 91 -38q39 -37 39 -92v-1392q0 -55 -39 -92q-38 -38 -91 -38q-55 0 -92 38q-38 37 -38 92v466h-461 q-18 0 -37 5q-52 12 -81 59q-19 32 -19 66z" />
<glyph unicode="5" horiz-adv-x="1164" d="M0 994v900q0 54 38 93q39 38 93 38h600q54 0 93 -38q38 -39 38 -93t-38 -93q-39 -38 -93 -38h-469v-462q64 30 151 33l16 2h32v-1h-24q174 -1 300 -125q121 -120 127 -290v-531q-6 -169 -127 -289q-125 -123 -300 -125h-21q-87 4 -169 42l-12 7l-21 11l-10 7 q-95 60 -149 159q-16 29 -16 60q0 19 6 39q15 52 62 77q30 16 62 16q18 0 37 -5q52 -15 78 -63q22 -38 58 -62l19 -11q33 -15 65 -16h-15q93 1 141 50q48 48 51 112v-1l-1 3v510l1 3v-2q-3 66 -51 114t-141 49h19q-35 -1 -75 -19h1l-11 -6q-53 -26 -92 -101 q-26 -85 -122 -85q-54 0 -93 38q-38 39 -38 93z" />
<glyph unicode="6" horiz-adv-x="1150" d="M0 399v1213q6 168 125 288q124 123 296 124h-24v1h32l13 -1q86 -3 165 -42l13 -6l20 -11l11 -7q94 -60 147 -158q16 -29 16 -60q0 -19 -6 -39q-15 -52 -61 -77q-30 -16 -62 -16q-18 0 -37 5q-51 16 -76 63q-22 38 -57 62l-19 11q-32 14 -65 16h5l-2 -1q-78 0 -126 -49 q-47 -48 -50 -112v2l1 -3v-206q56 31 162 32h19q167 -6 286 -126q122 -125 124 -324v-577l-1 -12q-5 -170 -124 -289q-124 -124 -296 -125l-20 1q-167 5 -285 125q-122 125 -124 298zM258 375q1 -42 49 -90q48 -49 115 -50h-19q92 1 139 49q48 48 49 116l1 603 q-1 67 -49 115q-47 48 -112 50h-34q-41 -1 -89 -50q-44 -43 -49 -101z" />
<glyph unicode="7" horiz-adv-x="1157" d="M0 1895q0 53 38 92q39 38 92 38h597q53 0 92 -38q38 -39 38 -92q0 -25 -7 -43l-395 -1775q-11 -53 -56 -81q-31 -21 -67 -21q-15 0 -31 4q-53 11 -81 56q-21 31 -21 67q0 16 4 32l362 1631h-435q-53 0 -92 37q-38 39 -38 93z" />
<glyph unicode="8" horiz-adv-x="1191" d="M4 409v394l1 12q5 170 126 289l-6 -5l5 -4q-124 125 -126 309v195l1 12q5 169 125 289q125 123 299 124h-24v1h30l14 -1q168 -6 287 -126q123 -125 125 -298v-220q-7 -166 -126 -285l4 5l-3 3q123 -125 125 -298v-419q-7 -166 -126 -286l-10 -9q-123 -114 -289 -116h-19 q-168 6 -288 126q-123 125 -125 308zM264 400q1 -67 50 -115q47 -48 112 -50h-16q89 1 135 42l4 6q50 50 52 114v407q-1 66 -50 115q-48 49 -116 50h-16q-60 -4 -105 -49q-48 -48 -50 -116v-404zM264 1395q1 -68 50 -116q47 -48 112 -50h10q66 1 122 57h1q40 41 42 105v208 q-1 67 -50 115q-48 50 -116 50q-72 0 -121 -49q-48 -48 -50 -116v-204z" />
<glyph unicode="9" horiz-adv-x="1184" d="M34 1006v593l1 12q5 169 124 289q124 123 296 124h-24v1h30l14 -1q167 -6 285 -126q122 -125 124 -298v-1213q-6 -168 -125 -287q-123 -123 -296 -125h-20q-87 4 -166 42l-13 6l-20 12l-10 5q-95 61 -148 159q-16 29 -16 60q0 19 6 39q15 52 61 78q29 16 61 16 q19 0 38 -6q51 -15 76 -62q22 -39 57 -62l19 -11q32 -15 64 -16h-15q91 0 139 49q48 48 50 112v-1l-1 3v205q-56 -31 -138 -31v-1l-44 1q-166 6 -285 125q-122 125 -124 309zM292 997q1 -68 49 -116q47 -47 113 -50h-3l3 1q75 0 122 49q44 43 49 102l1 621q-1 62 -49 110 q-48 49 -115 50h-31q-41 0 -89 -49q-48 -47 -49 -116z" />
<glyph unicode=":" horiz-adv-x="557" d="M0 500q0 53 38 91t91 38t90.5 -38t37.5 -91t-37.5 -90.5t-90.5 -37.5t-91 37.5t-38 90.5zM0 1300q0 53 38 91t91 38q52 0 90 -38t38 -91t-38 -90.5t-90 -37.5q-53 0 -91 37.5t-38 90.5z" />
<glyph unicode=";" horiz-adv-x="557" d="M0 1300q0 53 38 91t91 38q52 0 90 -38t38 -91t-38 -90.5t-90 -37.5q-53 0 -91 37.5t-38 90.5zM4 93q0 54 36 92q36 39 89 39q52 0 88 -39q37 -38 37 -92v-188q0 -54 -37 -92q-36 -39 -88 -39q-53 0 -89 39q-36 38 -36 92v188z" />
<glyph unicode="&#x3c;" horiz-adv-x="982" d="M0 1000q0 54 38 93l421 422q39 37 93 37q53 0 92 -37q38 -39 38 -93q0 -53 -38 -92l-330 -330l330 -329q37 -38 37 -92v-3q0 -51 -37 -89q-39 -38 -92 -38q-55 0 -92 38l-417 416l-5 5q-38 39 -38 92z" />
<glyph unicode="=" horiz-adv-x="1164" d="M0 796q0 52 38 91q39 37 92 37h597q53 0 92 -37q38 -39 38 -91q0 -53 -39 -90q-38 -37 -91 -37h-597q-53 0 -91 37q-39 37 -39 90zM7 1205q0 53 39 90q38 37 91 37h597q54 0 92 -37t38 -90q0 -54 -38 -91t-92 -37h-597q-53 0 -91 37q-39 37 -39 91z" />
<glyph unicode="&#x3e;" horiz-adv-x="982" d="M0 579q0 55 38 92l330 329l-330 330q-38 39 -38 92q0 54 38 93q38 37 92 37t92 -37l422 -422q38 -39 38 -93q0 -53 -38 -92l-5 -5l-417 -416q-39 -38 -92 -38q-55 0 -92 38q-38 39 -38 92z" />
<glyph unicode="?" horiz-adv-x="1150" d="M0 1398v201l1 12q5 170 124 289q124 123 296 125h6l14 -1q166 -5 285 -126q122 -125 124 -297v-4q0 -207 -19 -285q-27 -114 -133 -239l-1 -1q-100 -125 -127 -233q-16 -66 -16 -220v-115q0 -54 -37 -92q-39 -38 -92 -38t-91 37q-38 39 -38 92v113q0 207 24 299 q38 148 187 338h1q57 63 73 136q10 53 10 208q0 69 -48 118t-115 50h-31q-42 -1 -89 -49q-48 -48 -49 -117v-201q0 -55 -38 -92q-39 -38 -92 -38q-54 0 -91 38q-38 37 -38 92zM297 100q0 53 37.5 91t90.5 38t91 -38t38 -91t-38 -90.5t-91 -37.5t-90.5 37.5t-37.5 90.5z" />
<glyph unicode="@" horiz-adv-x="2350" d="M0 797v5q1 423 301 724q299 298 696 299h4q449 -1 749 -300q298 -300 300 -725q0 -193 -82 -338q-75 -133 -202 -200q-98 -52 -206 -52h-3q-200 0 -329 154q-97 -90 -215 -91v-1l-44 1q-144 6 -245 108q-104 93 -107 232h-1l2 45q5 144 107 245q107 105 266 107h-3l15 -1 q64 -3 91 -15v10q-2 42 -33 72q-30 30 -73 32h-3q-41 0 -73 -15q-34 -16 -67 -49q-38 -38 -92 -39q-54 0 -93 37q-38 39 -38 92q0 54 37 92q67 68 148 104q85 38 178 38h-6q160 -2 266 -108q103 -101 109 -245v-260q7 -141 72 -220q55 -66 134 -66q43 0 85 23 q145 76 145 308v3q-1 315 -224 538q-223 224 -565 224h-4q-290 -1 -512 -224q-225 -232 -225 -544q1 -314 224 -537q223 -224 515 -225v1h26q56 0 108 7l-17 -9v7l21 3v-2l76 17l-23 -6q16 4 31 4q36 0 67 -21q46 -28 57 -81q4 -16 4 -32q0 -35 -20 -66q-29 -45 -82 -57 l-9 -2l-5 -2h-3l-6 -1l-18 -4l-14 -2l-14 -2l-5 -2h-7q-68 -10 -141 -10h-26v1q-399 0 -699 300q-298 300 -300 721zM877 638q1 -42 32 -73q30 -31 71 -33h-3l3 1h33q16 1 47 30l1 2q31 30 33 70v9q-1 42 -32 73t-73 33h-7q-42 -1 -73 -32t-32 -74v-6z" />
<glyph unicode="A" horiz-adv-x="1150" d="M0 115v1485l1 12q5 169 124 288q124 123 296 125h6l14 -1q167 -5 285 -127q122 -124 124 -296v-1496q0 -53 -38 -92q-37 -38 -91 -38q-53 0 -92 38q-38 39 -38 92v870h-332v-870q0 -53 -38 -92q-39 -38 -92 -38q-54 0 -91 38q-38 39 -38 102zM259 1225h332l1 380 q-1 61 -50 110q-48 49 -114 50h-6q-67 0 -114 -49q-48 -47 -49 -116v-375z" />
<glyph unicode="B" horiz-adv-x="1192" d="M1 409v1190l1 12q5 169 125 289q125 123 299 124h-24v1h30l14 -1q168 -6 288 -126q123 -125 125 -298v-220q-7 -166 -119 -277v-2l-3 -3l-3 4q123 -125 125 -297v-419q-7 -167 -127 -286l-10 -9q-122 -114 -288 -116h-19q-169 6 -289 126q-123 125 -125 308zM264 375 q1 -42 50 -90q48 -48 113 -50h-16q88 1 135 43l5 6q49 49 51 113v-2l-1 3l1 411q-1 61 -50 109q-48 50 -116 51h-171v-594h-1zM265 1229h177q63 3 102 42q56 55 58 119v-1l-1 3l1 212q-1 62 -50 110q-48 49 -116 50h-31q-42 0 -90 -49q-49 -48 -50 -116v-370z" />
<glyph unicode="C" horiz-adv-x="1127" d="M0 400v1200l1 12q5 169 125 288q124 123 298 125h7l16 -1q86 -4 165 -41l5 -3l7 -3l1 -2l19 -10l-32 19v-4l44 -21l2 -2q92 -58 145 -156q16 -29 16 -60q0 -19 -6 -39q-15 -51 -62 -77q-29 -16 -60 -16q-19 0 -38 6q-52 15 -78 62q-21 39 -58 62l-32 17q-18 8 -54 9h-6 q-68 0 -115 -49q-49 -48 -50 -116v-1200q1 -68 50 -116q48 -49 90 -49h36q31 1 49 10v-1l41 22q28 19 49 57q26 47 78 63q19 5 37 5q31 0 61 -16q47 -26 62 -77q6 -20 6 -39q0 -31 -16 -60q-53 -97 -145 -157l-14 -7l-14 -7q-3 -3 -19 -11q-80 -38 -165 -41l-15 -1h-31v1h24 q-174 1 -298 124q-119 119 -125 287z" />
<glyph unicode="D" horiz-adv-x="1157" d="M0 106v1789q0 54 38 93q39 37 92 37h201l12 -1q211 -5 360 -154q148 -148 153 -358l1 -11v-1002l-1 -11q-5 -209 -153 -358q-149 -149 -361 -154h13v-1h-225q-53 0 -92 38q-38 39 -38 93zM260 236h73q109 1 185 78q77 77 79 183v-22h-1v1050h1v-21q-3 106 -79 182 q-77 78 -185 79h-73v-1529z" />
<glyph unicode="E" horiz-adv-x="1127" d="M0 400v1200l1 12q5 169 125 288q124 123 298 125h7l16 -1q86 -4 165 -41v-3l44 -21l2 -2q92 -58 145 -156q16 -29 16 -60q0 -19 -6 -39q-15 -51 -62 -77q-29 -16 -60 -16q-19 0 -38 6q-52 15 -78 62q-21 39 -58 62l-32 17q-18 8 -54 9h-6q-68 0 -115 -49 q-49 -48 -50 -116v-475h367q53 0 92 -38q38 -37 38 -92t-38 -92q-39 -38 -92 -38h-367v-465q1 -68 50 -116q48 -49 90 -49h36q31 1 49 10v-1l41 22q28 19 49 57q26 47 78 63q19 5 37 5q31 0 61 -16q47 -26 62 -77q6 -20 6 -39q0 -31 -16 -60q-53 -97 -145 -157l-14 -7 l-14 -7q-3 -3 -19 -11q-80 -38 -165 -41l-15 -1h-31v1h24q-174 1 -298 124q-119 119 -125 287zM612 1983l5 -3l6 -3l-11 7v-1zM624 1977l1 -2l19 -10z" />
<glyph unicode="F" horiz-adv-x="1127" d="M0 100v1500l1 12q5 169 125 288q124 123 298 125h7l16 -1q86 -4 165 -41v-3l44 -21l2 -2q92 -58 145 -156q16 -29 16 -60q0 -19 -6 -39q-15 -51 -62 -77q-29 -16 -60 -16q-19 0 -38 6q-52 15 -78 62q-21 39 -58 62l-32 17q-18 8 -54 9h-6q-68 0 -115 -49 q-49 -48 -50 -116v-475h367q53 0 92 -38q38 -37 38 -92t-38 -92q-39 -38 -92 -38h-367v-765q0 -53 -38 -91.5t-92 -38.5t-92 38.5t-38 91.5zM612 1983l5 -3l6 -3l-11 7v-1zM624 1977l1 -2l19 -10z" />
<glyph unicode="G" horiz-adv-x="1157" d="M0 398v1201l1 12q5 170 125 289q125 123 274 125h32l16 -1q86 -4 165 -41l5 -3l7 -3l1 -2l19 -10l5 -3l7 -3l2 -2q92 -58 145 -156q16 -30 16 -62q0 -18 -5 -37q-16 -52 -63 -78q-29 -16 -60 -16q-19 0 -38 6q-52 15 -78 62q-21 39 -59 63l-31 17v-1q-18 9 -54 10h-32 q-42 -1 -90 -49t-50 -117v-1199q1 -67 49 -115q48 -47 113 -50h-3l2 1h35v-1q43 1 91 50q46 46 49 111v574h-68q-54 0 -93 38q-37 39 -37 92q0 54 37 93q39 37 93 37h198q54 0 93 -37q38 -39 38 -93v-699l-1 -14q-6 -167 -125 -287q-125 -123 -299 -124h24v-1h-30l-14 1 q-168 6 -287 125q-119 120 -124 289z" />
<glyph unicode="H" horiz-adv-x="1150" d="M0 107v1787q0 54 36 92q37 39 89 39t89 -39q36 -38 36 -92v-669h350v669q0 54 37 92q36 39 88 39q53 0 89 -39q36 -38 36 -92v-1788q0 -54 -36 -92q-36 -39 -89 -39q-52 0 -88 39q-37 38 -37 92v869h-350v-868q0 -54 -36 -93q-37 -39 -89 -39t-89 39q-36 39 -36 93z" />
<glyph unicode="I" horiz-adv-x="555" d="M0 107v1787q0 54 37 92q37 39 91 39q53 0 90 -39q37 -38 37 -92v-1787q0 -54 -37 -93t-90 -39q-54 0 -91 39t-37 93z" />
<glyph unicode="J" horiz-adv-x="1130" d="M10 261q0 18 5 37q16 52 63 78q29 16 60 16q19 0 38 -6q52 -15 78 -62q21 -39 57 -62q51 -25 84 -27h-15q91 1 140 50q48 47 50 111v1369h-268q-53 0 -92 37q-38 39 -38 93q0 53 38 92q39 38 92 38h398q53 0 92 -38q38 -39 38 -92v-1494l-1 -15q-6 -166 -125 -286 q-125 -123 -324 -125h4q-86 4 -167 42l-43 25q-95 59 -148 158q-16 30 -16 61z" />
<glyph unicode="K" horiz-adv-x="1264" d="M0 105v1789q0 54 38 93q39 38 92 38q54 0 93 -38q37 -39 37 -93v-581l460 656q31 44 84 54q11 2 22 2q39 0 74 -24q44 -30 54 -83q2 -12 2 -24q0 -40 -23 -74l-478 -682l487 -975q14 -28 14 -57q0 -21 -7 -42q-16 -50 -65 -75q-29 -14 -59 -14q-20 0 -40 6q-51 18 -75 66 l-425 849l-25 -36v-755q0 -54 -37 -93q-39 -37 -93 -37q-53 0 -92 37q-38 39 -38 93z" />
<glyph unicode="L" horiz-adv-x="1059" d="M0 105v1789q0 54 38 93q39 38 92 38q54 0 93 -38q38 -39 38 -93v-1659h368q53 0 92 -38q38 -39 38 -92q0 -54 -38 -93q-39 -37 -92 -37h-499q-53 0 -92 37q-38 39 -38 93z" />
<glyph unicode="M" horiz-adv-x="1750" d="M0 105v1495l1 12q5 169 124 288q124 123 296 125h6l14 -1q167 -5 285 -126l4 -4l-6 7l-4 -5q1 0 6 5q123 122 296 124h6l13 -1q167 -5 286 -126q122 -124 123 -297v-1496q0 -53 -37 -92q-39 -38 -92 -38t-92 38q-37 39 -37 92v1496q-1 65 -49 114t-117 50l-6 1 q-64 -1 -112 -50q-48 -47 -49 -116v-1495q0 -53 -38 -92q-37 -38 -91 -38h-9q-53 0 -92 38q-38 39 -38 92v1520h1q-1 41 -50 90q-48 49 -114 50h-6q-67 0 -114 -49q-48 -47 -49 -116v-1495q0 -53 -38 -92q-39 -38 -92 -38q-54 0 -91 38q-38 39 -38 92z" />
<glyph unicode="N" horiz-adv-x="1150" d="M0 105v1495l1 12q5 169 124 288q124 123 296 125h6l14 -1q167 -5 285 -127q122 -124 124 -296v-1496q0 -53 -38 -92q-37 -38 -91 -38q-53 0 -92 38q-38 39 -38 92v1520h1q-1 41 -50 90q-48 49 -114 50h-6q-67 0 -114 -49q-48 -47 -49 -116v-1495q0 -53 -38 -92 q-39 -38 -92 -38q-54 0 -91 38q-38 39 -38 92z" />
<glyph unicode="O" horiz-adv-x="1184" d="M4 410v1189l1 13q5 169 124 289q124 123 296 124h6l14 -1q167 -5 285 -125q122 -125 124 -298v-1214q-7 -167 -125 -286l-9 -9q-123 -115 -287 -116h24v-1h-30l-14 1q-166 6 -285 126q-122 125 -124 308zM262 376q1 -42 49 -90q47 -48 113 -51h-3l3 1h33v-1q38 1 84 44 l5 6q48 49 50 113v-2l-1 3v1226h1q-1 42 -49 90q-48 49 -115 50h-6q-66 -1 -114 -49t-49 -116v-1224h-1z" />
<glyph unicode="P" horiz-adv-x="1139" d="M-1 107v1287q0 9 1 17v188l1 13q5 169 124 289q124 123 296 124h6l14 -1q167 -5 285 -125q122 -125 124 -298v-614q-7 -167 -125 -286l-10 -9q-122 -115 -286 -116h24v-1h-30l-14 1q-83 3 -155 35v-504q0 -54 -37 -93t-90 -39q-54 0 -91 39t-37 93zM258 976q1 -42 49 -90 q46 -47 110 -51l3 1h33v-1q38 1 84 44l4 6q47 48 51 111l-1 3v626h1q-1 42 -49 90q-48 49 -115 50h-6q-67 -1 -114 -49q-48 -48 -49 -116v-624h-1z" />
<glyph unicode="Q" horiz-adv-x="1199" d="M1 408v1190l1 12q5 169 125 289q125 123 274 124v1h31l14 -1q168 -6 287 -126q123 -125 125 -298v-1214q-7 -167 -127 -286l-10 -9l-21 -22l89 -49q48 -25 63 -77q6 -20 6 -39q0 -31 -16 -60q-25 -47 -77 -62q-20 -6 -39 -6q-31 0 -60 16l-399 215q-83 36 -141 94 q-123 125 -125 308zM261 399q1 -67 50 -115q47 -48 112 -50h-16q89 1 135 42l4 6q50 50 52 114v1202q-1 67 -50 115q-48 49 -116 50h-31v1q-41 -1 -90 -50q-48 -48 -50 -116v-1199z" />
<glyph unicode="R" horiz-adv-x="1156" d="M0 103v1496l1 12q5 169 125 289q125 123 308 125h-4l14 -1q168 -5 287 -126q123 -125 125 -298v-419q-6 -167 -123 -282l-9 10q130 -132 132 -304v-500q0 -53 -38 -92q-37 -38 -92 -38q-53 0 -92 38q-38 39 -38 92v499q-1 66 -67 132l1 1q-31 31 -99 32h-171v-666 q0 -53 -38 -92q-39 -37 -92 -37t-92 37q-38 39 -38 92zM260 1030h173q65 1 106 41q55 56 57 120v408q0 67 -49 115q-49 50 -116 51h-31q-42 -1 -90 -50q-49 -48 -50 -116v-569z" />
<glyph unicode="S" horiz-adv-x="1215" d="M-3 401v2q0 54 38 93q39 38 92 38q55 0 92 -38q38 -39 38 -93v-3q1 -67 50 -115q49 -49 90 -50h35q64 3 112 51q49 48 49 114v4q4 40 4 77q0 170 -74 298q-56 93 -209 239q-158 150 -218 239q-99 153 -99 339v-6q2 183 132 315h1q111 114 281 119l12 1h-4 q184 -2 308 -125q120 -120 126 -288v-16q0 -53 -38 -92q-37 -38 -92 -38q-53 0 -92 38q-38 39 -38 92v7q-2 65 -49 112q-49 49 -141 50h20q-68 -2 -117 -55q-48 -44 -49 -114q0 -111 71 -213q43 -62 164 -176q195 -184 267 -310q99 -175 99 -398q0 -48 -5 -99v-3 q-3 -171 -125 -295q-120 -121 -286 -127h-21q-173 2 -298 125q-118 119 -125 288z" />
<glyph unicode="T" horiz-adv-x="1157" d="M0 1895q0 53 38 92q39 38 92 38h597q53 0 92 -38q38 -39 38 -92q0 -54 -38 -93q-39 -37 -92 -37h-169v-1660q0 -53 -38 -92q-37 -38 -92 -38q-53 0 -92 38q-38 39 -38 92v1660h-168q-53 0 -92 37q-38 39 -38 93z" />
<glyph unicode="U" horiz-adv-x="1150" d="M0 400v1495q0 55 38 92q37 38 91 38q53 0 92 -38q38 -37 38 -92v-1495q1 -69 49 -116q47 -48 114 -49h6q65 1 114 51q49 48 50 89h-1v1520q0 55 38 92q39 38 92 38q54 0 91 -38q38 -37 38 -92v-1496q-2 -172 -124 -296q-118 -122 -285 -127l-14 -1h-30v1h24 q-172 1 -296 124q-119 119 -124 288z" />
<glyph unicode="V" horiz-adv-x="1371" d="M8 1896q0 36 20 68q30 46 82 57q15 4 30 4q35 0 68 -21q46 -28 57 -82l272 -1219l270 1219q11 54 57 82q33 21 68 21q15 0 30 -4q53 -11 82 -57q20 -32 20 -68q0 -14 -3 -29l-395 -1777q-9 -91 -102 -112q-15 -4 -30 -4q-35 0 -68 21q-46 30 -57 82l-398 1790 q-3 15 -3 29z" />
<glyph unicode="W" horiz-adv-x="1750" d="M0 400v1495q0 53 38 92q37 38 91 38q53 0 92 -38q38 -39 38 -92v-1495q1 -69 49 -116q47 -49 114 -49h6q66 1 114 50q49 49 50 90h-1v1520q0 53 38 92q39 38 92 38h9q54 0 91 -38q38 -39 38 -92v-1495q1 -69 49 -116q48 -49 112 -50l6 1q69 1 117 50t49 114v1496 q0 53 37 92q39 38 92 38t92 -38q37 -39 37 -92v-1496q-1 -173 -123 -297q-119 -121 -286 -126l-13 -1h-6q-173 2 -296 124q-5 6 -6 6v-1l4 -5l6 7l-4 -4q-118 -121 -285 -126l-14 -1h-6q-172 2 -296 125q-119 119 -124 288z" />
<glyph unicode="X" horiz-adv-x="1175" d="M0 105q0 20 7 41l285 854l-285 854q-7 21 -7 41q0 29 15 57q23 48 74 66q20 6 40 6q30 0 59 -14q49 -25 65 -75l175 -525l175 525q18 51 66 75q28 14 58 14q20 0 41 -6q51 -18 74 -66q15 -28 15 -57q0 -20 -7 -41l-285 -854l285 -854q7 -21 7 -41q0 -30 -15 -58 q-23 -48 -74 -66q-21 -6 -41 -6q-30 0 -58 14q-48 24 -66 75l-175 525l-175 -525q-16 -50 -65 -75q-29 -14 -59 -14q-20 0 -40 6q-51 18 -74 66q-15 28 -15 58z" />
<glyph unicode="Y" horiz-adv-x="1157" d="M0 798v1096q0 55 38 92q39 38 92 38q55 0 92 -38q38 -37 38 -92v-1096q1 -68 50 -116q47 -48 114 -49h12q64 3 111 51q49 49 50 114v1096q0 55 38 92q39 38 92 38t92 -38q38 -37 38 -92v-1097q-2 -171 -124 -296q-83 -83 -174 -108v-288q0 -54 -38 -93q-39 -37 -92 -37 q-54 0 -93 37q-38 39 -38 93v288q-92 26 -172 104q-119 119 -125 288z" />
<glyph unicode="Z" horiz-adv-x="1167" d="M0 105q0 20 7 41l539 1618h-416q-55 0 -92 38q-38 39 -38 92q0 54 38 93q37 38 92 38h597q53 0 92 -38q38 -39 38 -93q0 -33 -13 -58l-534 -1601h417q53 0 92 -38q38 -39 38 -92q0 -54 -38 -93q-39 -37 -92 -37h-597q-18 0 -40 6q-52 18 -75 66q-15 28 -15 58z" />
<glyph unicode="[" horiz-adv-x="760" d="M0 -94v2189q0 54 38 93q39 37 92 37h199q54 0 93 -37q38 -39 38 -93q0 -55 -38 -92q-39 -38 -93 -38h-69v-1929h69q54 0 93 -38q38 -39 38 -92q0 -54 -38 -93q-39 -38 -93 -38h-224v1q-28 0 -67 37q-38 39 -38 93z" />
<glyph unicode="\" horiz-adv-x="973" d="M-2 1895q0 37 21 70q29 44 81 56q15 4 30 4q35 0 68 -21q46 -30 57 -82l398 -1790q3 -15 3 -29q0 -36 -20 -68q-30 -46 -82 -57q-16 -4 -30 -4q-36 0 -68 21q-46 30 -57 82l-398 1790q-3 14 -3 28z" />
<glyph unicode="]" horiz-adv-x="760" d="M0 -94q0 53 38 92q39 38 92 38h69v1929h-69q-53 0 -92 38q-38 37 -38 92q0 54 38 93q39 37 92 37h199q54 0 93 -37q38 -39 38 -94l-1 -15v-2173q0 -54 -37 -93q-39 -37 -68 -37v-1h-224q-53 0 -92 38q-38 39 -38 93z" />
<glyph unicode="^" horiz-adv-x="1403" d="M0 1473q0 55 38 92l421 422q39 38 93 38q53 0 92 -38l5 -5l417 -417q37 -39 37 -92q0 -55 -38 -92q-37 -38 -92 -38q-53 0 -92 38l-329 330l-330 -330q-37 -38 -92 -38t-92 38q-38 39 -38 92z" />
<glyph unicode="_" horiz-adv-x="1157" d="M0 -105q0 55 38 92q39 38 92 38h597q53 0 92 -38q38 -37 38 -92t-38 -92q-39 -38 -92 -38h-597q-53 0 -92 38q-38 37 -38 92z" />
<glyph unicode="`" horiz-adv-x="663" d="M-2 1900q0 15 4 31q13 52 57 78q29 16 60 16q18 0 37 -5q50 -15 77 -63l94 -161q19 -33 19 -67q0 -16 -4 -32q-13 -51 -58 -78q-27 -16 -58 -16q-18 0 -38 6q-50 15 -77 61l-94 163q-19 33 -19 67z" />
<glyph unicode="a" horiz-adv-x="1231" d="M4 409v95l1 12q5 169 124 289q124 122 296 124h6l14 -1q98 -3 150 -32v109l1 2v-3q-2 65 -50 112q-47 48 -139 49h19q-35 -1 -64 -14h-1l-19 -11q-38 -24 -60 -63q-25 -47 -76 -62q-20 -6 -39 -6q-31 0 -60 16q-46 26 -61 77q-6 20 -6 39q0 31 16 60q52 97 136 150v-1 l4 3v1l18 11l14 8v-1l18 11q77 37 163 40l15 2h-1q183 -2 306 -125q119 -119 125 -297v-578q-7 -206 -125 -325q-124 -123 -296 -125h-19q-167 6 -286 126q-122 125 -124 308zM263 405q0 -73 48 -120q47 -48 110 -51l3 1q74 0 122 50q48 47 49 122v103q-6 67 -56 117 q-40 41 -107 42h-31q-41 0 -89 -49q-48 -47 -49 -116v-99z" />
<glyph unicode="b" horiz-adv-x="1184" d="M-1 1893q0 54 37 93t91 39q53 0 90 -39t37 -93v-504q72 32 155 35l44 1v-1q140 -1 262 -116l10 -9q118 -119 125 -296v-604q-2 -173 -124 -298q-118 -120 -285 -125l-14 -1h-6q-172 1 -296 124q-119 120 -124 289l-1 13zM259 400q1 -68 49 -116q47 -48 114 -49h6 q67 1 115 50q48 48 49 110v599q-4 73 -51 121l-4 6q-46 43 -120 44q-64 -4 -110 -51q-48 -48 -48 -110v-604z" />
<glyph unicode="c" horiz-adv-x="1127" d="M0 400v600l1 12q5 169 125 288q124 123 298 125h7l16 -1q86 -4 165 -41l5 -3l7 -3l1 -2l19 -10l-32 19v-4l44 -21l2 -2q92 -58 145 -156q16 -29 16 -60q0 -19 -6 -39q-15 -51 -62 -77q-29 -16 -60 -16q-19 0 -38 6q-52 15 -78 62q-21 39 -58 62l-32 17q-18 8 -54 9h-6 q-68 0 -115 -49q-49 -48 -50 -116v-600q1 -68 50 -116q48 -49 90 -49h36q31 1 49 10v-1l41 22q28 19 49 57q26 47 78 63q19 5 37 5q31 0 61 -16q47 -26 62 -77q6 -20 6 -39q0 -31 -16 -60q-53 -97 -145 -157l-14 -7l-14 -7q-3 -3 -19 -11q-80 -38 -165 -41l-15 -1h-31v1h24 q-174 1 -298 124q-119 119 -125 287z" />
<glyph unicode="d" horiz-adv-x="1184" d="M0 388v616q2 174 124 299q118 120 285 125l14 1h6q108 -1 163 -32v499q0 53 37 92q39 37 92 37t91 -37q38 -39 38 -92v-1486q-2 -183 -124 -308q-119 -120 -285 -126l-14 -1h-30v1h24q-172 1 -296 125q-119 119 -125 287zM258 396v1q3 -64 50 -112q47 -49 89 -49h34 q65 2 112 50q48 48 49 90h-1v627q-1 69 -49 117q-47 48 -139 49h19q-67 -1 -115 -50q-48 -48 -49 -90h1v-630z" />
<glyph unicode="e" horiz-adv-x="1150" d="M0 397v618q7 166 125 285q125 123 272 125h43q167 -6 286 -126q122 -125 124 -323v-80l-1 -12q-5 -169 -124 -288q-124 -123 -306 -125h4q-112 4 -164 33l-1 -88q3 -85 50 -132q47 -48 104 -49q2 -1 5 -1q53 0 95 26q38 24 64 63q21 47 72 62q20 6 39 6q31 0 60 -16 q46 -26 61 -77q6 -20 6 -39q0 -31 -16 -60q-47 -102 -190 -182q-77 -37 -163 -40q-196 0 -320 123q-119 119 -125 297zM259 880q19 -148 154 -149q82 0 129 49q48 47 50 116v100q-1 72 -49 119q-47 48 -113 50q-73 0 -122 -50q-47 -47 -49 -112v-123z" />
<glyph unicode="f" horiz-adv-x="950" d="M0 1292q0 52 36 90q34 37 62 39v174l1 13q5 171 123 291q123 124 295 126h4q53 0 92 -38q37 -39 37 -93t-37 -93q-39 -38 -92 -38h-3q-66 -1 -114 -50q-48 -48 -49 -117v-173h166q53 0 92 -38q37 -39 37 -93t-37 -93q-39 -38 -92 -38h-166v-1055q0 -54 -37 -92 q-37 -39 -91 -39t-91 38q-38 39 -38 93v1057q-28 2 -62 39q-36 38 -36 90z" />
<glyph unicode="g" horiz-adv-x="1184" d="M1 406v593l1 12q5 169 124 289q124 123 296 124h-24v1h30l14 -1q167 -6 285 -126q122 -125 124 -298v-1213q-6 -168 -125 -287q-123 -123 -296 -125h-20q-87 4 -166 42l-13 6l-20 12l-10 5q-95 61 -148 159q-16 29 -16 60q0 19 6 39q15 52 61 78q29 16 61 16q19 0 38 -6 q51 -15 76 -62q22 -39 57 -62l19 -11q32 -15 64 -16h-15q91 0 139 49q48 48 50 112v-1l-1 3v205q-56 -31 -162 -31h24v-1h-30l-14 1q-166 6 -285 125q-122 125 -124 309zM259 397q1 -68 49 -116q47 -47 113 -50h-3l3 1q75 0 122 49q44 43 49 102v641h1q-1 42 -49 90 q-48 49 -115 50h-31q-41 0 -89 -49q-48 -47 -49 -116z" />
<glyph unicode="h" horiz-adv-x="1150" d="M0 105v1789q0 54 38 93q37 38 91 38q53 0 92 -38q37 -39 37 -93v-499q57 32 173 33h-3l13 -1q167 -5 286 -127q121 -124 123 -297v-898q0 -54 -38 -93q-38 -37 -91 -37t-92 37q-37 39 -37 93v897q-1 66 -50 116q-48 49 -114 50h-6q-66 -1 -114 -50q-48 -47 -49 -116v-897 q0 -54 -38 -93q-38 -37 -91 -37q-54 0 -92 37q-38 39 -38 93z" />
<glyph unicode="i" horiz-adv-x="559" d="M0 1900q0 53 38 91t91 38q52 0 90 -38t38 -91t-38 -90.5t-90 -37.5q-53 0 -91 37.5t-38 90.5zM4 107v1187q0 54 37 92q37 39 90 39t90 -38q38 -39 38 -93v-1187q0 -54 -38 -93q-37 -39 -90 -39t-90 39t-37 93z" />
<glyph unicode="j" horiz-adv-x="1079" d="M-1 -362q0 17 5 35q15 48 59 72q28 15 57 15q17 0 35 -5q49 -14 73 -59q45 -72 126 -80q71 0 116 45q43 43 45 101v1543q0 50 35 87q35 35 86 35q61 0 97 -35q35 -37 36 -87v-1538l-1 -14q-6 -155 -127 -266q-115 -114 -275 -115h-20q-80 3 -155 39l-11 6l-21 11l-8 6 q-88 55 -137 146q-15 28 -15 58zM506 1900q0 53 37 91t91 38q53 0 91 -38t38 -91t-38 -90.5t-91 -37.5q-54 0 -91 37.5t-37 90.5z" />
<glyph unicode="k" horiz-adv-x="1158" d="M0 100v1787q0 54 38 92q37 40 91 40t92 -39t38 -93v-882l370 373q37 38 91 38q55 0 92 -39q37 -38 37 -92t-38 -93l-329 -332l354 -693q14 -28 14 -57q0 -21 -7 -42q-16 -51 -65 -76q-28 -14 -56 -14q-21 0 -42 7q-51 16 -74 66l-316 616l-31 -31v-536q0 -54 -38 -93 q-39 -38 -92 -38q-54 0 -91 38q-38 39 -38 93z" />
<glyph unicode="l" horiz-adv-x="555" d="M0 107v1787q0 54 37 92q37 39 91 39q53 0 90 -39q37 -38 37 -92v-1787q0 -54 -37 -93t-90 -39q-54 0 -91 39t-37 93z" />
<glyph unicode="m" horiz-adv-x="1750" d="M0 105v895l1 12q5 169 124 288q124 123 296 125h6l14 -1q167 -5 285 -126l-2 3h2q123 122 296 124h6l13 -1q174 -5 293 -126q122 -124 123 -297v-896q0 -53 -37 -92q-39 -38 -92 -38t-92 38q-37 39 -37 92v896q-1 65 -49 114t-124 50l-6 1q-64 -1 -112 -50 q-48 -47 -49 -116v-895q0 -53 -38 -92q-37 -38 -91 -38h-9q-53 0 -92 38q-38 39 -38 92v920h1q-1 41 -50 90q-48 49 -114 50h-6q-67 0 -114 -49q-48 -47 -49 -116v-895q0 -53 -38 -92q-39 -38 -92 -38q-54 0 -91 38q-38 39 -38 92z" />
<glyph unicode="n" horiz-adv-x="1150" d="M0 105v895l1 12q5 169 124 288q124 123 296 125h6l14 -1q167 -5 285 -127q122 -124 124 -296v-896q0 -53 -38 -92q-37 -38 -91 -38q-53 0 -92 38q-38 39 -38 92l1 890q-1 71 -50 120q-48 49 -114 50h-6q-67 0 -114 -49q-48 -47 -49 -116v-895q0 -53 -38 -92 q-39 -38 -92 -38q-54 0 -91 38q-38 39 -38 92z" />
<glyph unicode="o" horiz-adv-x="1184" d="M1 410v589l1 13q5 169 124 289q124 123 296 124h6l14 -1q167 -5 285 -125q122 -125 124 -298v-614q-7 -167 -125 -286l-9 -9q-123 -115 -287 -116h24v-1h-30l-14 1q-166 6 -285 126q-122 125 -124 308zM259 406q1 -72 49 -120q47 -48 113 -51h-3l3 1q71 0 117 43l5 6 q48 49 50 113v-2l-1 3l1 596q-1 72 -49 120q-48 49 -115 50h-6q-66 -1 -114 -49t-49 -116v-594h-1z" />
<glyph unicode="p" horiz-adv-x="1156" d="M-1 -493l1 1492l1 13q5 169 124 289q124 123 296 124h6l14 -1q167 -5 285 -125q122 -125 124 -298v-614q-7 -167 -125 -286l-10 -9q-122 -115 -286 -116h24v-1h-30l-14 1q-83 3 -155 35v-504q0 -54 -37 -93t-90 -39q-54 0 -91 39t-37 93zM258 396q1 -62 49 -110 q46 -47 115 -48q2 -1 5 -1q66 0 110 42l4 6q47 48 50 114l1 606q-1 62 -49 110q-48 49 -115 50h-6q-67 -1 -114 -49q-48 -48 -49 -116z" />
<glyph unicode="q" horiz-adv-x="1150" d="M0 398v577q2 199 124 323q118 121 287 126l12 1h-4q183 -2 306 -125q119 -110 125 -298l-1 -1485l1 -11q0 -54 -38 -93q-37 -38 -91 -38h-395q-53 0 -91 38q-38 39 -38 92q0 54 39 93q37 37 90 37h265v368q-49 -28 -149 -31h-21q-173 1 -303 133q-110 111 -117 279z M258 1000l1 -613q8 -126 138 -155h35q65 2 111 50q47 47 48 113l1 601q-2 72 -49 119q-48 49 -115 50h-5q-68 -2 -116 -50t-49 -115z" />
<glyph unicode="r" horiz-adv-x="850" d="M0 105v895l1 12q5 169 123 289q123 122 269 124h29q52 0 91 -38q37 -38 37 -92q0 -53 -37 -92q-39 -38 -91 -38h-29q-40 0 -87 -49q-48 -47 -49 -116v-895q0 -53 -38 -92q-37 -38 -91 -38q-52 0 -91 38q-37 39 -37 92z" />
<glyph unicode="s" horiz-adv-x="1130" d="M0 1013q7 176 124 293t262 118v1l44 -1q102 -4 191 -53l36 -26q69 -50 112 -121q19 -31 19 -64q0 -17 -5 -35q-12 -52 -58 -79q-31 -19 -66 -19q-16 0 -33 4q-52 12 -80 59q-17 29 -43 47q-47 27 -100 27q-54 0 -103 -43q-39 -45 -40 -108v-3q1 -66 48 -113l-2 2l4 -1 q39 -38 146 -66q66 -19 98 -30q152 -56 221 -191h1q20 -39 29 -65l3 -8q19 -58 22 -117v-23q-2 -173 -124 -297q-119 -120 -287 -126h-16q-164 0 -294 117v1q-13 12 -30 32l-3 3q-22 25 -44 63q-15 24 -15 54q0 17 5 36q13 52 59 79q31 19 66 19q16 0 32 -4q48 -20 104 -80 t120 -60q71 2 118 49q47 40 50 102v10q0 55 -24 97q-27 45 -87 67h-1l-69 20q-173 48 -259 129l-22 22l-50 66v1q-59 95 -59 215z" />
<glyph unicode="t" horiz-adv-x="950" d="M0 1292q0 52 36 90q35 37 62 39v473q0 54 38 93q37 38 91 38t91 -39q37 -38 37 -92v-471h166q53 0 92 -39q37 -39 37 -92q0 -54 -37 -93q-39 -39 -92 -39h-166v-756q1 -69 49 -117q48 -50 89 -50h28q53 0 92 -38q37 -39 37 -93t-37 -93q-39 -38 -92 -38h-4 q-172 2 -295 126q-118 120 -123 290l-1 13v758q-28 2 -62 39q-36 38 -36 91z" />
<glyph unicode="u" horiz-adv-x="1150" d="M0 400v895q0 55 38 92q37 38 91 38q53 0 92 -38q38 -37 38 -92v-895q1 -69 49 -116q47 -48 114 -49h6q65 1 114 51q49 48 50 89h-1v920q0 55 38 92q39 38 92 38q54 0 91 -38q38 -37 38 -92v-896q-2 -172 -124 -296q-118 -122 -285 -127l-14 -1h-30v1h24q-172 1 -296 124 q-119 119 -124 288z" />
<glyph unicode="v" horiz-adv-x="1166" d="M8 1296q0 34 19 66q27 46 80 59q16 4 32 4q35 0 66 -19q46 -28 58 -80l171 -686l170 686q13 52 59 80q31 19 66 19q16 0 32 -4q52 -13 79 -59q19 -32 19 -66q0 -16 -4 -32l-294 -1181q-13 -83 -96 -104q-17 -4 -33 -4q-33 0 -64 18q-47 28 -60 80l-296 1191q-4 16 -4 32z " />
<glyph unicode="w" horiz-adv-x="1750" d="M0 400v895q0 53 38 92q37 38 91 38q53 0 92 -38q38 -39 38 -92v-895q1 -69 49 -116q47 -49 114 -49h6q66 1 114 50q49 49 50 90h-1v920q0 53 38 92q39 38 92 38h9q54 0 91 -38q38 -39 38 -92v-895q1 -69 49 -116q48 -49 112 -50l6 1q69 1 117 50t49 114v896q0 53 37 92 q39 38 92 38t92 -38q37 -39 37 -92v-896q-1 -173 -123 -297q-119 -121 -286 -126l-13 -1h-6q-173 2 -296 124q-5 6 -6 6v-1l4 -5l6 7l-4 -4q-118 -121 -285 -126l-14 -1h-6q-172 2 -296 125q-119 119 -124 288z" />
<glyph unicode="x" horiz-adv-x="1175" d="M10 103q0 29 14 57l269 539l-269 538q-14 28 -14 57q0 21 7 42q16 52 65 75q29 14 59 14q20 0 40 -6q51 -18 75 -66l182 -364l183 364q23 48 75 66q20 6 40 6q30 0 59 -14q47 -23 65 -75q7 -21 7 -41q0 -29 -15 -58l-269 -538l269 -539q15 -29 15 -58q0 -20 -7 -41 q-18 -51 -65 -74q-29 -15 -58 -15q-20 0 -41 7q-52 16 -75 65l-183 364l-182 -364q-25 -49 -75 -65q-21 -7 -41 -7q-29 0 -58 15q-49 23 -65 74q-7 21 -7 42z" />
<glyph unicode="y" horiz-adv-x="1157" d="M0 398v897q0 54 38 93q39 37 92 37q54 0 93 -37q37 -39 37 -93v-898q1 -67 50 -115q48 -49 90 -50h35q64 3 112 51q43 43 50 100v912q0 54 37 93q39 37 93 37q53 0 92 -37q38 -39 38 -93v-1507q-6 -168 -126 -288q-125 -123 -299 -124h24v-1h-31l-14 1q-87 3 -166 42 l-12 6l-23 11l-10 7q-94 60 -148 158q-16 29 -16 61q0 19 6 38q15 52 62 77q30 16 62 16q18 0 37 -5q52 -16 77 -63q22 -38 61 -63.5t81 -25.5h-3l3 1q77 0 125 49q48 48 50 112v208q-52 -29 -151 -33h-46q-149 2 -274 125q-119 119 -125 288z" />
<glyph unicode="z" horiz-adv-x="1167" d="M0 103q0 29 14 57l503 1005h-387q-53 0 -92 38q-38 39 -38 92q0 54 38 93q39 37 92 37h597q53 0 92 -37q38 -39 38 -93q0 -43 -23 -74l-494 -989h387q53 0 92 -37q38 -39 38 -93q0 -53 -38 -92q-39 -38 -92 -38h-597q-31 0 -58 15q-49 23 -65 74q-7 21 -7 42z" />
<glyph unicode="{" horiz-adv-x="976" d="M0 999q0 21 7 42q16 52 65 75q83 42 110 164q17 79 17 268q0 260 33 375q57 197 238 288q29 14 59 14q20 0 40 -6q52 -18 75 -66q14 -29 14 -59q0 -20 -6 -40q-18 -51 -66 -75q-82 -42 -110 -164q-16 -79 -16 -267q0 -205 -17 -302q-30 -165 -105 -246q122 -131 122 -547 q0 -188 16 -267q28 -123 110 -165q48 -23 66 -74q6 -20 6 -40q0 -30 -14 -59q-23 -48 -75 -66q-21 -7 -41 -7q-29 0 -58 15q-181 91 -238 288q-33 115 -33 375q0 186 -16 264q-27 122 -106 165q-41 18 -63 60q-14 28 -14 57z" />
<glyph unicode="|" horiz-adv-x="555" d="M0 -93v2187q0 54 37 92q37 39 91 39q53 0 90 -39q37 -38 37 -92v-2187q0 -54 -37 -93t-90 -39q-54 0 -91 39t-37 93z" />
<glyph unicode="}" horiz-adv-x="976" d="M0 -95q0 21 7 42q16 51 65 74q83 42 110 165q17 79 17 267q0 416 121 547q-75 81 -104 246q-17 97 -17 302q0 188 -17 267q-27 122 -110 164q-49 25 -65 75q-7 21 -7 42q0 29 14 57q24 48 75 66q20 6 40 6q30 0 59 -14q182 -91 238 -288q34 -115 34 -375q0 -189 16 -268 q28 -122 110 -164q48 -23 66 -75q6 -20 6 -40q0 -30 -14 -59q-21 -42 -62 -61q-80 -42 -106 -164q-16 -78 -16 -264q0 -260 -34 -375q-56 -197 -238 -288q-29 -15 -58 -15q-20 0 -41 7q-51 18 -75 66q-14 28 -14 57z" />
<glyph unicode="~" horiz-adv-x="1175" d="M0 1001q0 20 7 41q16 52 65 75q79 41 181 41q80 0 173 -25q112 -29 176 -29q41 0 63 12q29 16 61 16q19 0 38 -6q52 -15 77 -62q16 -30 16 -62q0 -18 -5 -37q-16 -52 -63 -77q-80 -44 -191 -44q-93 0 -206 30q-89 23 -144 23q-37 0 -59 -11q-29 -15 -59 -15q-20 0 -41 7 q-51 18 -74 65q-15 29 -15 58z" />
<glyph unicode="&#xa0;" horiz-adv-x="957" d="M0 1095q0 55 38 92q39 38 92 38h397q53 0 92 -38q38 -37 38 -92t-38 -92q-39 -38 -92 -38h-397q-53 0 -92 38q-38 37 -38 92z" />
<glyph unicode="&#xa1;" horiz-adv-x="507" d="M0 1900q0 53 38 90.5t90 37.5q53 0 91 -37.5t38 -90.5t-38 -91t-91 -38q-52 0 -90 38t-38 91zM1 106v1388q0 54 37 92q37 39 90 39q54 0 91 -39q37 -38 37 -92v-1388q0 -54 -37 -92q-37 -39 -91 -39q-53 0 -90 39q-37 38 -37 92z" />
<glyph unicode="&#xa2;" horiz-adv-x="1127" d="M0 400v600l1 12q5 169 125 288q84 84 174 106v94q0 51 37 88t88 37t88 -37t37 -88v-93q21 -5 62 -24l5 -3l7 -3l1 -2l19 -10l5 -3l7 -3l2 -2q92 -58 145 -156q16 -29 16 -60q0 -19 -6 -39q-15 -51 -62 -77q-29 -16 -60 -16q-19 0 -38 6q-52 15 -78 62q-21 39 -58 62 l-32 17q-18 8 -54 9h-6q-68 0 -115 -49q-49 -48 -50 -116v-600q1 -68 50 -116q48 -49 115 -49h11q31 1 63 16l27 15q28 19 49 57q26 47 78 63q19 5 37 5q31 0 61 -16q47 -26 62 -77q6 -20 6 -39q0 -31 -16 -60q-53 -97 -145 -157l-14 -7l-14 -7q-3 -3 -19 -11 q-40 -19 -61 -24v-92q0 -51 -37 -88t-88 -37t-88 37t-37 88v93q-90 22 -174 106q-119 119 -125 287z" />
<glyph unicode="&#xa3;" horiz-adv-x="1201" d="M34 1496q0 128 30 229l3 8l3 9q58 158 208 236q21 9 47 19l4 2l8 3q55 19 117 21l14 1h-17q199 -2 323 -125q120 -119 127 -288v-15q0 -55 -39 -92q-38 -38 -91 -38q-55 0 -93 38q-37 38 -37 92v6q-3 66 -50 113q-49 48 -140 49h18q-25 -1 -49 -9l-4 -1l-20 -9 q-58 -30 -81 -91l-2 -5l-1 -2q-19 -66 -19 -154q0 -113 31 -264h248q53 0 91 -38q39 -39 39 -93q0 -53 -39 -92q-38 -38 -91 -38h-187q19 -82 30 -137h157q53 0 91 -37q39 -39 39 -93q0 -53 -39 -92q-38 -38 -91 -38h-118q4 -46 4 -88q0 -147 -46 -248h359q53 0 91 -38 q39 -39 39 -92q0 -55 -39 -92q-38 -38 -91 -38h-600q-119 4 -126 127q2 58 42 101q108 112 108 300q0 33 -3 68h-18q-54 0 -92 38q-38 39 -38 92q0 54 38 93q39 37 69 37q-6 23 -34 140l-2 11q-71 27 -71 116q0 52 27 80q-37 176 -37 318z" />
<glyph unicode="&#xa4;" horiz-adv-x="1263" d="M0 649q0 55 38 92l63 63q-47 81 -47 192v-24h-1v31l1 13q4 106 47 181l-63 63q-38 37 -38 92t38 92q37 38 92 38t92 -38l63 -63q81 46 193 47h-24v1h30l13 -1q104 -4 181 -48l63 64q37 38 92 38t92 -38q38 -37 38 -92t-38 -92l-64 -63q48 -82 49 -198v-16 q-4 -103 -48 -179l63 -63q38 -37 38 -92t-38 -92q-37 -38 -92 -38t-92 38l-63 63q-82 -47 -213 -48q-104 4 -180 48l-63 -63q-37 -38 -92 -38t-92 38q-38 37 -38 92zM313 972q1 -39 43 -85l6 -5l5 -4v-1q47 -43 113 -45h-20q89 1 137 46l1 2l2 2l2 2l1 1l-4 -5q49 53 51 123 q-1 64 -46 113l-2 1l-2 2l-2 2v1q-48 45 -113 46h-6q-63 0 -111 -44l-1 -2l-4 -3l-4 -5q-44 -46 -45 -111v-31h-1z" />
<glyph unicode="&#xa5;" horiz-adv-x="1165" d="M0 998v896q0 55 38 92q39 38 92 38q55 0 92 -38q38 -37 38 -92v-896q1 -68 50 -116q47 -48 114 -49h12q64 3 111 51q49 49 50 114v896q0 55 38 92q39 38 92 38t92 -38q38 -37 38 -92v-897q-2 -171 -124 -296q-83 -83 -174 -108v-68h176q53 0 92 -38q38 -37 38 -92 t-38 -92q-39 -38 -92 -38h-176v-160q0 -54 -38 -93q-39 -37 -92 -37q-54 0 -93 37q-38 39 -38 93v160h-160q-53 0 -92 38q-38 37 -38 92t38 92q39 38 92 38h160v68q-92 26 -172 104q-119 119 -125 288z" />
<glyph unicode="&#xa6;" horiz-adv-x="555" d="M0 -93v887q0 54 37 92q37 39 91 39q53 0 90 -39q37 -38 37 -92v-887q0 -54 -37 -93t-90 -39q-54 0 -91 39t-37 93zM0 1207v887q0 54 37 92q37 40 91 40q53 0 90 -40q37 -38 37 -92v-887q0 -54 -37 -92q-37 -39 -90 -39q-54 0 -91 39q-37 38 -37 92z" />
<glyph unicode="&#xa7;" horiz-adv-x="1194" d="M0 199v3q0 54 38 93q39 38 93 38t93 -38q38 -39 38 -93v-3q1 -68 51 -117q49 -50 91 -51v1h34l3 -1h-2q65 3 113 52q49 48 50 116v3q0 81 -31 148q-25 55 -88 124l6 -7l-2 3l-3 4q-42 48 -140 139q-158 147 -216 235q-98 150 -98 338q0 156 95 270q-17 25 -39 72l-1 2 q-55 119 -55 257v4q2 175 125 301q121 121 291 127l13 1h31v-1h-24q175 -1 301 -125q121 -121 127 -291v-16q0 -53 -38 -93q-39 -38 -93 -38t-93 38q-38 40 -38 93v7q-3 66 -51 114q-48 49 -141 49h19q-69 -1 -128 -52q-43 -44 -43 -112q0 -5 1 -10q3 -76 34 -142l1 -2 q24 -54 64 -101h-1q17 -13 22 -19q43 -47 127 -126l1 -1q158 -146 216 -234q98 -150 98 -338q0 -156 -103 -278l8 9q30 -41 53 -93q55 -118 55 -256v-4q-2 -174 -126 -300q-121 -122 -290 -128h-20q-175 1 -301 126q-120 120 -126 290zM292 1186q0 -112 69 -210 q42 -62 161 -172l55 -52q12 19 12 68q0 111 -68 210q-44 61 -162 171l-4 4l-52 49v-1q-11 -18 -11 -67z" />
<glyph unicode="&#xa8;" horiz-adv-x="857" d="M0 1700q0 53 38 91t91 38q52 0 90 -38t38 -91t-38 -90.5t-90 -37.5q-53 0 -91 37.5t-38 90.5zM300 1700q0 53 37.5 90.5t90.5 37.5t91 -37.5t38 -90.5t-38 -91t-91 -38t-90.5 38t-37.5 91z" />
<glyph unicode="&#xa9;" horiz-adv-x="2350" d="M0 997v4q1 424 301 724q299 298 696 299v1h54v-1q399 0 699 -300q298 -299 299 -696h1v-55h-1q0 -398 -300 -699q-299 -298 -746 -299h-5q-398 1 -699 301q-297 299 -299 721zM260 997q1 -315 224 -537q223 -225 514 -225h5q339 1 562 224q224 223 225 514h-1v55h1 q-1 289 -225 512q-222 225 -514 225v-1h-54v1q-290 -1 -512 -224q-225 -223 -225 -544zM522 996v6l1 12q5 193 140 327l2 2l3 2l-6 -4v-2l10 10q138 131 328 132h-24v1h33l15 -2q87 -3 168 -37l3 -2l20 -8l2 -2q72 -35 127 -90q38 -39 38 -93q0 -53 -38 -92q-37 -38 -92 -38 t-92 38q-26 26 -49 38l-23 10q-38 16 -80 17h-32q-62 0 -127 -64l-3 -1q-63 -63 -64 -153v-6q1 -90 65 -153q62 -63 150 -66h7q63 0 116 33l20 14l25 23h-2l-4 -6q39 39 93 39t92 -37q38 -39 38 -93q0 -53 -38 -92l-2 -2l-7 -7l-1 -1l-3 -3l-30 -24q-21 -17 -31 -23v-12h-16 l5 4q-119 -73 -255 -73h-16q-191 6 -326 142q-138 139 -140 336z" />
<glyph unicode="&#xaa;" horiz-adv-x="992" d="M1 1301l1 14q3 67 33 126l-15 -30h-5l34 56l-1 -1q53 84 135 125q29 15 58 15q20 0 41 -7q52 -18 76 -65q14 -28 14 -58q0 -20 -7 -41q-17 -52 -66 -76q-16 -7 -27 -24l-5 -8q-5 -11 -6 -24v-8q1 -26 21 -45q18 -20 43 -21h-17v-1q52 2 71 21q18 18 20 42v412 q-2 23 -20 41q-19 20 -71 20h17q-13 -1 -24 -6l-8 -4q-16 -11 -24 -27q-24 -48 -76 -66q-21 -7 -41 -7q-29 0 -58 15q-47 23 -65 74q-7 21 -7 41q0 30 15 58q41 83 107 125l18 11l24 13q60 29 127 32l13 2h32v-1h-24q135 -2 228 -95q91 -90 97 -217v-432q-7 -126 -97 -215 q-93 -94 -228 -96h-21q-127 8 -216 97q-94 94 -96 238v-3z" />
<glyph unicode="&#xab;" horiz-adv-x="1323" d="M0 1000q0 54 38 93l281 281q39 38 92 38q55 0 92 -38q38 -39 38 -92q0 -54 -38 -93l-189 -189l189 -188q38 -39 38 -93q0 -53 -38 -92q-37 -38 -92 -38q-53 0 -92 38l-272 272l-2 2l-7 7q-38 39 -38 92zM532 1000q0 54 38 93l281 281q39 38 92 38q55 0 92 -38 q38 -39 38 -92q0 -54 -38 -93l-189 -189l189 -188q38 -39 38 -93q0 -53 -38 -92q-37 -38 -92 -38q-53 0 -92 38l-272 272l-2 2l-7 7q-38 39 -38 92z" />
<glyph unicode="&#xac;" horiz-adv-x="1349" d="M0 995q0 55 38 92q39 38 92 38h787q53 0 92 -38q15 -15 23 -32q17 -28 17 -64v-396q0 -53 -38 -92q-39 -38 -92 -38q-54 0 -93 38q-38 39 -38 92v270h-658q-53 0 -92 38q-38 37 -38 92z" />
<glyph unicode="&#xad;" horiz-adv-x="907" d="M0 995q0 55 38 92q39 38 92 38h397q53 0 92 -38q38 -37 38 -92t-38 -92q-39 -38 -92 -38h-397q-53 0 -92 38q-38 37 -38 92z" />
<glyph unicode="&#xae;" horiz-adv-x="2350" d="M0 997v4q1 424 301 724q299 298 696 299v1h54v-1q399 0 699 -300q298 -299 299 -696h1v-55h-1q0 -398 -300 -699q-300 -298 -746 -299h-5q-398 1 -699 301q-297 299 -299 721zM260 997q1 -315 224 -538q223 -224 514 -224h5q339 1 562 224q224 223 225 514h-1v55h1 q-1 290 -225 512q-223 225 -514 225v-1h-54v1q-290 -1 -512 -224q-225 -223 -225 -544zM656 602v561l1 4v16l1 2q6 135 107 235q105 106 256 107h-24v1q188 -7 246 -66q149 -149 150 -299v24h1v-30l-1 -15q-6 -143 -108 -245q-37 -35 -49 -42l131 -175q26 -35 26 -77 q0 -9 -1 -19q-8 -54 -51 -86q-34 -26 -77 -26q-9 0 -19 1q-53 9 -85 51l-234 312l-3 2l-1 2l-6 7v2l-6 9v-1l4 -4q-19 35 -19 68l2 26v-6l4 16v2q5 14 12 25l2 3l5 9l-4 -4v16h16l-14 -14v-1l9 12l10 10h1l-14 -14v1l11 12l2 2l9 8h-4l1 2h5l-8 -3v-2l16 9l1 1l-8 -5v-1 q42 25 76 25h-22q67 1 98 32q31 30 33 71v-2l-1 3v10q0 48 -38 79q-24 23 -69 24l-6 1q-41 -2 -71 -32q-31 -30 -32 -74v-560q0 -53 -38 -92q-39 -38 -93 -38q-53 0 -92 38q-38 39 -38 92z" />
<glyph unicode="&#xaf;" horiz-adv-x="907" d="M0 1708q0 55 38 92q39 38 92 38h397q53 0 92 -38q38 -37 38 -92t-38 -92q-39 -38 -92 -38h-397q-53 0 -92 38q-38 37 -38 92z" />
<glyph unicode="&#xb0;" horiz-adv-x="950" d="M0 1701q0 134 95.5 229.5t229.5 95.5t229.5 -95.5t95.5 -229.5t-95.5 -229.5t-229.5 -95.5t-229.5 95.5t-95.5 229.5zM250 1701q0 -31 22 -53t53 -22t53 22t22 53t-22 53t-53 22t-53 -22t-22 -53z" />
<glyph unicode="&#xb1;" horiz-adv-x="1107" d="M0 302q0 52 38 91q39 37 92 37h597q53 0 92 -37q38 -39 38 -91q0 -53 -39 -90q-38 -37 -91 -37h-597q-53 0 -91 37q-39 37 -39 90zM0 1005q0 53 38 92q39 38 92 38h170v160q0 53 38 92q39 38 92 38q54 0 93 -38q38 -39 38 -92v-160h166q53 0 92 -38q38 -39 38 -92 q0 -54 -38 -93q-39 -38 -92 -38h-166v-176q0 -53 -38 -92q-39 -38 -93 -38q-53 0 -92 38q-38 39 -38 92v176h-170q-53 0 -92 38q-38 39 -38 93z" />
<glyph unicode="&#xb2;" horiz-adv-x="958" d="M0 1099v9q1 186 71 302q78 130 247 206v-1l17 9q36 11 55 41q8 18 8 34q0 24 -18 43l-3 2q-18 19 -43 20h-5q-29 0 -52 -23l-5 -7l-6 -11q-21 -49 -71 -69q-25 -10 -50 -10t-50 10q-49 21 -69 72q-10 24 -10 48q0 25 11 50l1 4l3 7v-1q12 24 24 43q13 20 34 43l8 7l2 1 q96 97 230 97h4l14 -2q127 -5 216 -95l8 -8l1 -2h-1q85 -92 87 -218q-3 -67 -14 -99.5t-22 -53.5q-56 -112 -174 -158l-11 -5h-2q-106 -48 -141 -108q-18 -30 -21 -47h255q54 0 93 -38q37 -38 37 -92q0 -53 -37 -92q-39 -38 -93 -38h-398q-53 0 -92 38q-38 39 -38 92z" />
<glyph unicode="&#xb3;" horiz-adv-x="953" d="M10 1242q0 24 10 48q21 51 70 72q26 11 51 11t49 -10q49 -21 68 -66l8 -14l9 -11l1 -2q18 -18 48 -18h6q24 1 44 20q18 17 18 52v4l1 3v-5q-1 7 -4 16l-2 7l-5 5v4q-10 18 -35 27q-45 12 -77 62q-14 31 -14 61q0 37 22 71q17 26 59 49l14 5q23 9 31 25l3 6l5 11q2 9 3 14 v-4l-1 3v8q0 29 -19 48q-20 19 -45 20h-4q-29 0 -57 -28h-1l8 7l-8 -10l-6 -10q-21 -49 -70 -69q-25 -10 -50 -10t-50 10q-49 21 -70 72q-10 24 -10 48q0 25 11 50l1 4l-1 -2v4l7 7l-1 -1q35 61 56 84q106 105 241 105h3q141 -7 230 -97q94 -102 95 -228v-24 q-2 -43 -13 -75.5t-23 -54.5q-13 -25 -22 -38q8 -11 22 -38q12 -22 23 -55t13 -75v-24q-1 -133 -95 -228q-89 -88 -216 -96h-17q-136 0 -234 97q-31 33 -63 90l-6 13q-11 25 -11 50z" />
<glyph unicode="&#xb4;" horiz-adv-x="663" d="M8 1729q0 34 19 67l94 161q27 48 78 63q19 5 36 5q31 0 59 -16q45 -25 58 -78q4 -16 4 -31q0 -34 -19 -67l-94 -163q-27 -46 -77 -61q-19 -6 -38 -6q-31 0 -59 16q-44 27 -57 78q-4 16 -4 32z" />
<glyph unicode="&#xb5;" horiz-adv-x="1157" d="M0 -483v1778q0 54 38 93q39 37 92 37q54 0 93 -37q37 -39 37 -93v-912q7 -57 50 -100q48 -48 112 -51h9q68 1 116 50q49 48 50 115v898q0 54 37 93q39 37 93 37q53 0 92 -37q38 -39 38 -93v-897l-1 -13q-6 -169 -125 -288q-125 -123 -299 -125h-21q-99 4 -151 33v-493 q-3 -65 -38 -100q-38 -37 -89 -37t-88 37t-45 105z" />
<glyph unicode="&#xb6;" horiz-adv-x="1852" d="M0 1496v5q2 216 154 369q154 154 347 155h922q53 0 92 -38q37 -38 37 -92q0 -53 -37 -92q-39 -38 -92 -38h-169v-1659q0 -54 -37 -93q-39 -38 -93 -38q-53 0 -92 38q-38 39 -38 93v1659h-137v-1659q0 -54 -38 -93q-39 -38 -92 -38q-54 0 -93 38q-38 39 -38 93v864h-73 l-10 1q-210 5 -358 153q-154 154 -155 372zM260 1496q0 -110 79 -188q76 -76 182 -78h75v535h-72q-108 -1 -185 -79q-78 -77 -78 -188q-1 -1 -1 -2z" />
<glyph unicode="&#xb7;" horiz-adv-x="476" d="M0 863q0 45 32.5 77.5t77.5 32.5q44 0 76 -32.5t32 -77.5t-32 -77t-76 -32q-45 0 -77.5 32t-32.5 77z" />
<glyph unicode="&#xb8;" horiz-adv-x="958" d="M0 -303q0 54 38 93q39 37 92 37h177v-1q51 2 70 21q20 19 21 43v9q-1 25 -16 42l-3 2q-22 21 -55 32q-111 12 -123 88q-3 14 -3 28q0 56 41 95q38 38 66 38v1h31l5 -1h4q129 -7 218 -96l8 -8l1 -2h-1q85 -92 87 -218v-22q-8 -126 -97 -215q-94 -94 -228 -96h-203 q-53 0 -92 38q-38 39 -38 92z" />
<glyph unicode="&#xb9;" horiz-adv-x="958" d="M0 1099q0 55 38 92q39 38 92 38h69v535h-69q-53 0 -92 38q-38 39 -38 92q0 54 38 93q39 38 92 38h199q54 0 93 -38q37 -39 37 -93v-665h69q54 0 93 -38q37 -38 37 -92q0 -53 -37 -92q-39 -38 -93 -38h-398q-53 0 -92 38q-38 39 -38 92z" />
<glyph unicode="&#xba;" horiz-adv-x="992" d="M1 1304v394l1 14q7 128 97 217q94 94 237 96h-4l15 -1q126 -7 219 -99l1 -2q89 -93 91 -223v24h1v-428l-1 -16q-7 -125 -102 -221q-93 -88 -198 -89v-1l-45 1q-127 7 -216 96q-94 94 -96 238zM261 1295q1 -26 20 -45t43 -21h-4l2 1q36 0 49 12q26 17 27 51v411 q0 20 -27 48q-12 12 -36 13h-7q-27 -1 -46 -20t-21 -45v-405z" />
<glyph unicode="&#xbb;" horiz-adv-x="1323" d="M0 719q0 54 38 93l189 188l-189 189q-38 39 -38 93q0 53 38 92q37 38 92 38t92 -38l281 -281q38 -39 38 -93q0 -53 -38 -92l-7 -7l-2 -2l-272 -272q-37 -38 -92 -38t-92 38q-38 39 -38 92zM532 719q0 54 38 93l189 188l-189 189q-38 39 -38 93q0 53 38 92q37 38 92 38 t92 -38l281 -281q38 -39 38 -93q0 -53 -38 -92l-7 -7l-2 -2l-272 -272q-37 -38 -92 -38t-92 38q-38 39 -38 92z" />
<glyph unicode="&#xbc;" horiz-adv-x="1959" d="M0 1099q0 55 38 92q39 38 92 38h69v535h-69q-53 0 -92 38q-38 39 -38 92q0 54 38 93q39 38 92 38h199q54 0 93 -38q37 -39 37 -93v-665h69q54 0 93 -38q37 -38 37 -92q0 -53 -37 -92q-39 -38 -93 -38h-398q-53 0 -92 38q-38 39 -38 92zM500 102q0 15 4 30l398 1790 q11 52 56 82q32 21 68 21q14 0 30 -4q52 -12 82 -56q21 -33 21 -68q0 -15 -4 -30l-398 -1790q-11 -52 -57 -82q-32 -21 -67 -21q-15 0 -30 4q-52 11 -82 57q-21 32 -21 67zM1000 298q0 10 2 21l99 597q10 53 54 84q35 25 75 25q10 0 21 -2q53 -9 85 -53q25 -35 25 -76 q0 -10 -2 -21l-74 -445h113v268q0 53 38 92q39 38 93 38q53 0 92 -38q38 -39 38 -92v-597q0 -53 -38 -92q-39 -38 -92 -38q-54 0 -93 38q-38 39 -38 92v69h-263q-13 0 -25 1q-53 9 -85 53q-25 35 -25 76z" />
<glyph unicode="&#xbd;" horiz-adv-x="1961" d="M0 1099q0 55 38 92q39 38 92 38h69v535h-69q-53 0 -92 38q-38 39 -38 92q0 54 38 93q39 38 92 38h199q54 0 93 -38q37 -39 37 -93v-665h69q54 0 93 -38q37 -38 37 -92q0 -53 -37 -92q-39 -38 -93 -38h-398q-53 0 -92 38q-38 39 -38 92zM500 102q0 15 4 30l398 1790 q11 52 56 82q32 21 68 21q14 0 30 -4q52 -12 82 -56q21 -33 21 -68q0 -15 -4 -30l-398 -1790q-11 -52 -57 -82q-32 -21 -67 -21q-15 0 -30 4q-52 11 -82 57q-21 32 -21 67zM1000 130v9q1 186 71 302q78 130 247 206v-1l17 9q36 11 55 41q8 18 8 34q0 24 -18 43l-3 2 q-18 19 -43 20h-5q-29 0 -52 -23l-5 -7l-6 -11q-21 -49 -71 -69q-25 -10 -50 -10t-50 10q-49 21 -69 72q-10 24 -10 48q0 25 11 50l1 4l3 7v-1q12 24 24 43q13 20 34 43l8 7l2 1q96 97 230 97h4l14 -2q127 -5 216 -95l8 -8l1 -2h-1q85 -92 87 -218q-3 -67 -14 -99.5 t-22 -53.5q-56 -112 -174 -158l-11 -5h-2q-106 -48 -141 -108q-18 -30 -21 -47h255q54 0 93 -38q37 -38 37 -92q0 -53 -37 -92q-39 -38 -93 -38h-398q-53 0 -92 38q-38 39 -38 92z" />
<glyph unicode="&#xbe;" horiz-adv-x="1968" d="M2 1242q0 24 10 48q21 51 70 72q26 11 51 11t49 -10q49 -21 68 -66l8 -14l9 -11l1 -2q18 -18 48 -18h6q24 1 44 20q18 17 18 52v4l1 3v-5q-1 7 -4 16l-2 7l-5 5v4q-10 18 -35 27q-45 12 -77 62q-14 31 -14 61q0 37 22 71q17 26 59 49l14 5q23 9 31 25l3 6l5 11q2 9 3 14 v-4l-1 3v8q0 29 -19 48q-20 19 -45 20h-4q-29 0 -57 -28h-1l8 7l-8 -10l-6 -10q-21 -49 -70 -69q-25 -10 -50 -10t-50 10q-49 21 -70 72q-10 24 -10 48q0 25 11 50l1 4l-1 -2v4l7 7l-1 -1q35 61 56 84q106 105 241 105h3q141 -7 230 -97q94 -102 95 -228v-24 q-2 -43 -13 -75.5t-23 -54.5q-13 -25 -22 -38q8 -11 22 -38q12 -22 23 -55t13 -75v-24q-1 -133 -95 -228q-89 -88 -216 -96h-17q-136 0 -234 97q-31 33 -63 90l-6 13q-11 25 -11 50zM509 102q0 15 4 30l398 1790q11 52 57 82q31 21 67 21q14 0 30 -4q52 -12 82 -56 q21 -33 21 -68q0 -15 -4 -30l-398 -1790q-11 -52 -57 -82q-32 -21 -67 -21q-15 0 -30 4q-52 11 -82 57q-21 32 -21 67zM1009 298q0 10 2 21l99 597q10 53 54 84q35 25 75 25q10 0 21 -2q53 -9 85 -53q25 -35 25 -76q0 -10 -2 -21l-74 -445h113v268q0 53 38 92q39 38 93 38 q53 0 92 -38q38 -39 38 -92v-597q0 -53 -38 -92q-39 -38 -92 -38q-54 0 -93 38q-38 39 -38 92v69h-263q-13 0 -25 1q-53 9 -85 53q-25 35 -25 76z" />
<glyph unicode="&#xbf;" d="M0 399v4q0 207 19 285q27 114 133 239l1 1q100 125 127 233q16 66 16 220v115q0 54 37 92q39 38 92 38t91 -37q38 -39 38 -92v-113q0 -207 -24 -299q-38 -148 -187 -338h-1q-57 -63 -73 -136q-10 -53 -10 -208q0 -69 48 -118t115 -50h31q42 1 89 49q48 48 49 117v201 q0 55 38 92q39 38 92 38q54 0 91 -38q38 -37 38 -92v-201l-1 -12q-5 -170 -124 -289q-124 -123 -296 -125h-6l-14 1q-166 5 -285 126q-122 125 -124 297zM296 1900q0 53 38 90.5t91 37.5t90.5 -37.5t37.5 -90.5t-37.5 -91t-90.5 -38t-91 38t-38 91z" />
<glyph unicode="&#xc0;" d="M0 115v1485l1 12q5 169 124 288q124 123 296 125h6l14 -1q167 -5 285 -127q122 -124 124 -296v-1496q0 -53 -38 -92q-37 -38 -91 -38q-53 0 -92 38q-38 39 -38 92v870h-332v-870q0 -53 -38 -92q-39 -38 -92 -38q-54 0 -91 38q-38 39 -38 102zM191 2492q0 15 4 31 q13 52 57 78q29 16 60 16q18 0 37 -5q50 -15 77 -63l94 -161q19 -33 19 -67q0 -16 -4 -32q-13 -51 -58 -78q-27 -16 -58 -16q-18 0 -38 6q-50 15 -77 61l-94 163q-19 33 -19 67zM259 1225h332l1 380q-1 61 -50 110q-48 49 -114 50h-6q-67 0 -114 -49q-48 -47 -49 -116v-375z " />
<glyph unicode="&#xc1;" d="M0 115v1485l1 12q5 169 124 288q124 123 296 125h6l14 -1q167 -5 285 -127q122 -124 124 -296v-1496q0 -53 -38 -92q-37 -38 -91 -38q-53 0 -92 38q-38 39 -38 92v870h-332v-870q0 -53 -38 -92q-39 -38 -92 -38q-54 0 -91 38q-38 39 -38 102zM259 1225h332l1 380 q-1 61 -50 110q-48 49 -114 50h-6q-67 0 -114 -49q-48 -47 -49 -116v-375zM300 2321q0 34 19 67l94 161q27 48 78 63q19 5 36 5q31 0 59 -16q45 -25 58 -78q4 -16 4 -31q0 -34 -19 -67l-94 -163q-27 -46 -77 -61q-19 -6 -38 -6q-31 0 -59 16q-44 27 -57 78q-4 16 -4 32z" />
<glyph unicode="&#xc2;" d="M0 115v1485l1 12q5 169 124 288q124 123 296 125h6l14 -1q167 -5 285 -127q122 -124 124 -296v-1496q0 -53 -38 -92q-37 -38 -91 -38q-53 0 -92 38q-38 39 -38 92v870h-332v-870q0 -53 -38 -92q-39 -38 -92 -38q-54 0 -91 38q-38 39 -38 102zM159 2304q0 54 38 93 l140 140q39 38 93 38q53 0 92 -38l141 -140q38 -39 38 -93q0 -53 -38 -92q-39 -38 -93 -38q-53 0 -92 38l-48 49l-48 -49q-39 -38 -93 -38q-55 0 -92 38q-38 39 -38 92zM259 1225h332l1 380q-1 61 -50 110q-48 49 -114 50h-6q-67 0 -114 -49q-48 -47 -49 -116v-375z" />
<glyph unicode="&#xc3;" horiz-adv-x="1123" d="M-10 2332q0 20 7 41q16 52 65 75q79 41 181 41q80 0 173 -25q112 -29 176 -29q41 0 63 12q29 16 61 16q19 0 38 -6q52 -15 77 -62q16 -30 16 -62q0 -18 -5 -37q-16 -52 -63 -77q-80 -44 -191 -44q-93 0 -206 30q-89 23 -144 23q-37 0 -59 -11q-29 -15 -59 -15 q-20 0 -41 7q-51 18 -74 65q-15 29 -15 58zM-8 115v1485l1 12q5 169 124 288q124 123 296 125h6l14 -1q167 -5 285 -127q122 -124 124 -296v-1496q0 -53 -38 -92q-37 -38 -91 -38q-53 0 -92 38q-38 39 -38 92v870h-332v-870q0 -53 -38 -92q-39 -38 -92 -38q-54 0 -91 38 q-38 39 -38 102zM251 1225h332l1 380q-1 61 -50 110q-48 49 -114 50h-6q-67 0 -114 -49q-48 -47 -49 -116v-375z" />
<glyph unicode="&#xc4;" d="M0 115v1485l1 12q5 169 124 288q124 123 296 125h6l14 -1q167 -5 285 -127q122 -124 124 -296v-1496q0 -53 -38 -92q-37 -38 -91 -38q-53 0 -92 38q-38 39 -38 92v870h-332v-870q0 -53 -38 -92q-39 -38 -92 -38q-54 0 -91 38q-38 39 -38 102zM143 2301q0 53 38 91t91 38 q52 0 90 -38t38 -91t-38 -90.5t-90 -37.5q-53 0 -91 37.5t-38 90.5zM259 1225h332l1 380q-1 61 -50 110q-48 49 -114 50h-6q-67 0 -114 -49q-48 -47 -49 -116v-375zM443 2301q0 53 37.5 90.5t90.5 37.5t91 -37.5t38 -90.5t-38 -91t-91 -38t-90.5 38t-37.5 91z" />
<glyph unicode="&#xc5;" d="M0 115v1485l1 12q5 169 124 288q124 123 296 125h6l14 -1q167 -5 285 -127q122 -124 124 -296v-1496q0 -53 -38 -92q-37 -38 -91 -38q-53 0 -92 38q-38 39 -38 92v870h-332v-870q0 -53 -38 -92q-39 -38 -92 -38q-54 0 -91 38q-38 39 -38 102zM100 2092q0 134 95.5 229.5 t229.5 95.5t229.5 -95.5t95.5 -229.5t-95.5 -229.5t-229.5 -95.5t-229.5 95.5t-95.5 229.5zM259 1225h332l1 380q-1 61 -50 110q-48 49 -114 50h-6q-67 0 -114 -49q-48 -47 -49 -116v-375zM350 2092q0 -31 22 -53t53 -22t53 22t22 53t-22 53t-53 22t-53 -22t-22 -53z" />
<glyph unicode="&#xc6;" horiz-adv-x="1654" d="M0 105v1493l1 13q5 169 125 289q118 117 287 123h1l10 1h-4l2 1h309l3 -1h490q53 0 92 -37q38 -39 38 -93q0 -53 -38 -92q-39 -38 -92 -38h-367v-535h267q55 0 92 -38q38 -37 38 -92q0 -53 -38 -92q-37 -38 -92 -38h-267v-734h367q53 0 92 -38q38 -37 38 -92t-38 -92 q-39 -38 -92 -38h-497q-54 0 -93 38q-38 37 -38 92v864h-336v-864q0 -54 -37 -92q-39 -38 -93 -38q-53 0 -92 38q-38 37 -38 92zM260 1229h336v536h-152l-15 -1h-29q-42 -1 -90 -49t-50 -116v-370z" />
<glyph unicode="&#xc7;" horiz-adv-x="1078" d="M0 -283q0 54 38 93q39 37 92 37h177v-1q51 2 70 21q20 19 21 43v9q-1 25 -16 42l-3 2q-22 21 -55 32q-111 12 -123 88q-3 14 -3 28q0 56 41 95q38 38 66 38v1h31l5 -1h4q129 -7 218 -96l8 -8l1 -2h-1q85 -92 87 -218v-22q-8 -126 -97 -215q-94 -94 -228 -96h-203 q-53 0 -92 38q-38 39 -38 92zM1 400v1200l1 12q5 169 125 288q124 123 298 125h7l16 -1q86 -4 165 -41l5 -3l7 -3l1 -2l19 -10l-32 19v-4l44 -21l2 -2q92 -58 145 -156q16 -29 16 -60q0 -19 -6 -39q-15 -51 -62 -77q-29 -16 -60 -16q-19 0 -38 6q-52 15 -78 62 q-21 39 -58 62l-32 17q-18 8 -54 9h-6q-68 0 -115 -49q-49 -48 -50 -116v-1200q1 -68 50 -116q48 -49 90 -49h36q31 1 49 10v-1l41 22q28 19 49 57q26 47 78 63q19 5 37 5q31 0 61 -16q47 -26 62 -77q6 -20 6 -39q0 -31 -16 -60q-53 -97 -145 -157l-14 -7l-14 -7 q-3 -3 -19 -11q-80 -38 -165 -41l-15 -1h-31v1h24q-174 1 -298 124q-119 119 -125 287z" />
<glyph unicode="&#xc8;" horiz-adv-x="1007" d="M0 400v1200l1 12q5 169 125 288q124 123 298 125h7l16 -1q86 -4 165 -41v-3l44 -21l2 -2q92 -58 145 -156q16 -29 16 -60q0 -19 -6 -39q-15 -51 -62 -77q-29 -16 -60 -16q-19 0 -38 6q-52 15 -78 62q-21 39 -58 62l-32 17q-18 8 -54 9h-6q-68 0 -115 -49 q-49 -48 -50 -116v-475h367q53 0 92 -38q38 -37 38 -92t-38 -92q-39 -38 -92 -38h-367v-465q1 -68 50 -116q48 -49 90 -49h36q31 1 49 10v-1l41 22q28 19 49 57q26 47 78 63q19 5 37 5q31 0 61 -16q47 -26 62 -77q6 -20 6 -39q0 -31 -16 -60q-53 -97 -145 -157l-14 -7 l-14 -7q-3 -3 -19 -11q-80 -38 -165 -41l-15 -1h-31v1h24q-174 1 -298 124q-119 119 -125 287zM145 2492q0 15 4 31q13 52 57 78q29 16 60 16q18 0 37 -5q50 -15 77 -63l94 -161q19 -33 19 -67q0 -16 -4 -32q-13 -51 -58 -78q-27 -16 -58 -16q-18 0 -38 6q-50 15 -77 61 l-94 163q-19 33 -19 67zM612 1983l5 -3l6 -3l-11 7v-1zM624 1977l1 -2l19 -10z" />
<glyph unicode="&#xc9;" horiz-adv-x="1007" d="M0 400v1200l1 12q5 169 125 288q124 123 298 125h7l16 -1q86 -4 165 -41v-3l44 -21l2 -2q92 -58 145 -156q16 -29 16 -60q0 -19 -6 -39q-15 -51 -62 -77q-29 -16 -60 -16q-19 0 -38 6q-52 15 -78 62q-21 39 -58 62l-32 17q-18 8 -54 9h-6q-68 0 -115 -49 q-49 -48 -50 -116v-475h367q53 0 92 -38q38 -37 38 -92t-38 -92q-39 -38 -92 -38h-367v-465q1 -68 50 -116q48 -49 90 -49h36q31 1 49 10v-1l41 22q28 19 49 57q26 47 78 63q19 5 37 5q31 0 61 -16q47 -26 62 -77q6 -20 6 -39q0 -31 -16 -60q-53 -97 -145 -157l-14 -7 l-14 -7q-3 -3 -19 -11q-80 -38 -165 -41l-15 -1h-31v1h24q-174 1 -298 124q-119 119 -125 287zM234 2301q0 34 19 67l94 161q27 48 78 63q19 5 36 5q31 0 59 -16q45 -25 58 -78q4 -16 4 -31q0 -34 -19 -67l-94 -163q-27 -46 -77 -61q-19 -6 -38 -6q-31 0 -59 16 q-44 27 -57 78q-4 16 -4 32zM612 1983l5 -3l6 -3l-11 7v-1zM624 1977l1 -2l19 -10z" />
<glyph unicode="&#xca;" horiz-adv-x="1007" d="M0 400v1200l1 12q5 169 125 288q124 123 298 125h7l16 -1q86 -4 165 -41v-3l44 -21l2 -2q92 -58 145 -156q16 -29 16 -60q0 -19 -6 -39q-15 -51 -62 -77q-29 -16 -60 -16q-19 0 -38 6q-52 15 -78 62q-21 39 -58 62l-32 17q-18 8 -54 9h-6q-68 0 -115 -49 q-49 -48 -50 -116v-475h367q53 0 92 -38q38 -37 38 -92t-38 -92q-39 -38 -92 -38h-367v-465q1 -68 50 -116q48 -49 90 -49h36q31 1 49 10v-1l41 22q28 19 49 57q26 47 78 63q19 5 37 5q31 0 61 -16q47 -26 62 -77q6 -20 6 -39q0 -31 -16 -60q-53 -97 -145 -157l-14 -7 l-14 -7q-3 -3 -19 -11q-80 -38 -165 -41l-15 -1h-31v1h24q-174 1 -298 124q-119 119 -125 287zM108 2305q0 54 38 93l140 140q39 38 93 38q53 0 92 -38l141 -140q38 -39 38 -93q0 -53 -38 -92q-39 -38 -93 -38q-53 0 -92 38l-48 49l-48 -49q-39 -38 -93 -38q-55 0 -92 38 q-38 39 -38 92zM612 1983l5 -3l6 -3l-11 7v-1zM624 1977l1 -2l19 -10z" />
<glyph unicode="&#xcb;" horiz-adv-x="1007" d="M0 400v1200l1 12q5 169 125 288q124 123 298 125h7l16 -1q86 -4 165 -41v-3l44 -21l2 -2q92 -58 145 -156q16 -29 16 -60q0 -19 -6 -39q-15 -51 -62 -77q-29 -16 -60 -16q-19 0 -38 6q-52 15 -78 62q-21 39 -58 62l-32 17q-18 8 -54 9h-6q-68 0 -115 -49 q-49 -48 -50 -116v-475h367q53 0 92 -38q38 -37 38 -92t-38 -92q-39 -38 -92 -38h-367v-465q1 -68 50 -116q48 -49 90 -49h36q31 1 49 10v-1l41 22q28 19 49 57q26 47 78 63q19 5 37 5q31 0 61 -16q47 -26 62 -77q6 -20 6 -39q0 -31 -16 -60q-53 -97 -145 -157l-14 -7 l-14 -7q-3 -3 -19 -11q-80 -38 -165 -41l-15 -1h-31v1h24q-174 1 -298 124q-119 119 -125 287zM96 2300q0 53 38 91t91 38q52 0 90 -38t38 -91t-38 -90.5t-90 -37.5q-53 0 -91 37.5t-38 90.5zM396 2300q0 53 37.5 90.5t90.5 37.5t91 -37.5t38 -90.5t-38 -91t-91 -38 t-90.5 38t-37.5 91zM612 1983l5 -3l6 -3l-11 7v-1zM624 1977l1 -2l19 -10z" />
<glyph unicode="&#xcc;" horiz-adv-x="611" d="M8 2472q0 15 4 31q13 52 57 78q29 16 60 16q18 0 37 -5q50 -15 77 -63l94 -161q19 -33 19 -67q0 -16 -4 -32q-13 -51 -58 -78q-27 -16 -58 -16q-18 0 -38 6q-50 15 -77 61l-94 163q-19 33 -19 67zM69 106v1787q0 54 37 92q37 39 91 39q53 0 90 -39q37 -38 37 -92v-1787 q0 -54 -37 -93t-90 -39q-54 0 -91 39t-37 93z" />
<glyph unicode="&#xcd;" horiz-adv-x="611" d="M-1 2301q0 34 19 67l94 161q27 48 78 63q19 5 36 5q31 0 59 -16q45 -25 58 -78q4 -16 4 -31q0 -34 -19 -67l-94 -163q-27 -46 -77 -61q-19 -6 -38 -6q-31 0 -59 16q-44 27 -57 78q-4 16 -4 32zM0 107v1787q0 54 37 92q37 39 91 39q53 0 90 -39q37 -38 37 -92v-1787 q0 -54 -37 -93t-90 -39q-54 0 -91 39t-37 93z" />
<glyph unicode="&#xce;" horiz-adv-x="792" d="M0 2304q0 54 38 93l140 140q39 38 93 38q53 0 92 -38l141 -140q38 -39 38 -93q0 -53 -38 -92q-39 -38 -93 -38q-53 0 -92 38l-48 49l-48 -49q-39 -38 -93 -38q-55 0 -92 38q-38 39 -38 92zM149 107v1787q0 54 37 92q37 39 91 39q53 0 90 -39q37 -38 37 -92v-1787 q0 -54 -37 -93t-90 -39q-54 0 -91 39t-37 93z" />
<glyph unicode="&#xcf;" horiz-adv-x="807" d="M0 2300q0 53 38 91t91 38q52 0 90 -38t38 -91t-38 -90.5t-90 -37.5q-53 0 -91 37.5t-38 90.5zM153 106v1787q0 54 37 92q37 39 91 39q53 0 90 -39q37 -38 37 -92v-1787q0 -54 -37 -93t-90 -39q-54 0 -91 39t-37 93zM300 2300q0 53 37.5 90.5t90.5 37.5t91 -37.5t38 -90.5 t-38 -91t-91 -38t-90.5 38t-37.5 91z" />
<glyph unicode="&#xd0;" horiz-adv-x="1364" d="M0 1095q0 55 38 92q39 38 92 38h77v670q0 54 38 93q39 37 92 37h201l12 -1q211 -5 360 -154q148 -148 153 -358l1 -11v-1002l-1 -11q-5 -209 -153 -358q-149 -149 -361 -154h13v-1h-225q-53 0 -92 38q-38 39 -38 93v859h-77q-53 0 -92 38q-38 37 -38 92zM467 236h73 q109 1 185 78q77 77 79 183v-22h-1v1050h1v-21q-3 106 -79 182q-77 78 -185 79h-73v-540h60q53 0 92 -38q38 -37 38 -92t-38 -92q-39 -38 -92 -38h-60v-729z" />
<glyph unicode="&#xd1;" horiz-adv-x="1123" d="M-1 105v1495l1 12q5 169 124 288q124 123 296 125h6l14 -1q167 -5 285 -127q122 -124 124 -296v-1496q0 -53 -38 -92q-37 -38 -91 -38q-53 0 -92 38q-38 39 -38 92v1520h1q-1 41 -50 90q-48 49 -114 50h-6q-67 0 -114 -49q-48 -47 -49 -116v-1495q0 -53 -38 -92 q-39 -38 -92 -38q-54 0 -91 38q-38 39 -38 92zM10 2332q0 20 7 41q16 52 65 75q79 41 181 41q80 0 173 -25q112 -29 176 -29q41 0 63 12q29 16 61 16q19 0 38 -6q52 -15 77 -62q16 -30 16 -62q0 -18 -5 -37q-16 -52 -63 -77q-80 -44 -191 -44q-93 0 -206 30q-89 23 -144 23 q-37 0 -59 -11q-29 -15 -59 -15q-20 0 -41 7q-51 18 -74 65q-15 29 -15 58z" />
<glyph unicode="&#xd2;" d="M0 410v1189l1 13q5 169 124 289q124 123 296 124h6l14 -1q167 -5 285 -125q122 -125 124 -298v-1214q-7 -167 -125 -286l-9 -9q-123 -115 -287 -116h24v-1h-30l-14 1q-166 6 -285 126q-122 125 -124 308zM221 2492q0 15 4 31q13 52 57 78q29 16 60 16q18 0 37 -5 q50 -15 77 -63l94 -161q19 -33 19 -67q0 -16 -4 -32q-13 -51 -58 -78q-27 -16 -58 -16q-18 0 -38 6q-50 15 -77 61l-94 163q-19 33 -19 67zM258 376q1 -42 49 -90q47 -48 113 -51h-3l3 1h33v-1q38 1 84 44l5 6q48 49 50 113v-2l-1 3v1226h1q-1 42 -49 90q-48 49 -115 50h-6 q-66 -1 -114 -49t-49 -116v-1224h-1z" />
<glyph unicode="&#xd3;" d="M0 409v1189l1 13q5 169 124 289q124 123 296 124h6l14 -1q167 -5 285 -125q122 -125 124 -298v-1214q-7 -167 -125 -286l-9 -9q-123 -115 -287 -116h24v-1h-30l-14 1q-166 6 -285 126q-122 125 -124 308zM258 375q1 -42 49 -90q47 -48 113 -51h-3l3 1h33v-1q38 1 84 44 l5 6q48 49 50 113v-2l-1 3v1226h1q-1 42 -49 90q-48 49 -115 50h-6q-66 -1 -114 -49t-49 -116v-1224h-1zM362 2301q0 34 19 67l94 161q27 48 78 63q19 5 36 5q31 0 59 -16q45 -25 58 -78q4 -16 4 -31q0 -34 -19 -67l-94 -163q-27 -46 -77 -61q-19 -6 -38 -6q-31 0 -59 16 q-44 27 -57 78q-4 16 -4 32z" />
<glyph unicode="&#xd4;" d="M0 409v1189l1 13q5 169 124 289q124 123 296 124h6l14 -1q167 -5 285 -125q122 -125 124 -298v-1214q-7 -167 -125 -286l-9 -9q-123 -115 -287 -116h24v-1h-30l-14 1q-166 6 -285 126q-122 125 -124 308zM190 2305q0 54 38 93l140 140q39 38 93 38q53 0 92 -38l141 -140 q38 -39 38 -93q0 -53 -38 -92q-39 -38 -93 -38q-53 0 -92 38l-48 49l-48 -49q-39 -38 -93 -38q-55 0 -92 38q-38 39 -38 92zM258 375q1 -42 49 -90q47 -48 113 -51h-3l3 1h33v-1q38 1 84 44l5 6q48 49 50 113v-2l-1 3v1226h1q-1 42 -49 90q-48 49 -115 50h-6 q-66 -1 -114 -49t-49 -116v-1224h-1z" />
<glyph unicode="&#xd5;" horiz-adv-x="1123" d="M0 410v1189l1 13q5 169 124 289q124 123 296 124h6l14 -1q167 -5 285 -125q122 -125 124 -298v-1214q-7 -167 -125 -286l-9 -9q-123 -115 -287 -116h24v-1h-30l-14 1q-166 6 -285 126q-122 125 -124 308zM22 2332q0 20 7 41q16 52 65 75q79 41 181 41q80 0 173 -25 q112 -29 176 -29q41 0 63 12q29 16 61 16q19 0 38 -6q52 -15 77 -62q16 -30 16 -62q0 -18 -5 -37q-16 -52 -63 -77q-80 -44 -191 -44q-93 0 -206 30q-89 23 -144 23q-37 0 -59 -11q-29 -15 -59 -15q-20 0 -41 7q-51 18 -74 65q-15 29 -15 58zM258 376q1 -42 49 -90 q47 -48 113 -51h-3l3 1h33v-1q38 1 84 44l5 6q48 49 50 113v-2l-1 3v1226h1q-1 42 -49 90q-48 49 -115 50h-6q-66 -1 -114 -49t-49 -116v-1224h-1z" />
<glyph unicode="&#xd6;" d="M0 410v1189l1 13q5 169 124 289q124 123 296 124h6l14 -1q167 -5 285 -125q122 -125 124 -298v-1214q-7 -167 -125 -286l-9 -9q-123 -115 -287 -116h24v-1h-30l-14 1q-166 6 -285 126q-122 125 -124 308zM177 2292q0 53 38 91t91 38q52 0 90 -38t38 -91t-38 -90.5 t-90 -37.5q-53 0 -91 37.5t-38 90.5zM258 376q1 -42 49 -90q47 -48 113 -51h-3l3 1h33v-1q38 1 84 44l5 6q48 49 50 113v-2l-1 3v1226h1q-1 42 -49 90q-48 49 -115 50h-6q-66 -1 -114 -49t-49 -116v-1224h-1zM477 2292q0 53 37.5 90.5t90.5 37.5t91 -37.5t38 -90.5t-38 -91 t-91 -38t-90.5 38t-37.5 91z" />
<glyph unicode="&#xd7;" horiz-adv-x="1128" d="M0 1295q0 53 37 92q39 38 93 38q53 0 92 -38l195 -196l188 189q39 38 93 38q53 0 92 -38q38 -39 38 -92q0 -54 -38 -93l-189 -188l184 -183q38 -39 38 -92q0 -54 -38 -93q-39 -37 -92 -37q-54 0 -93 37l-183 184l-190 -191q-39 -38 -93 -38q-53 0 -92 38q-38 39 -38 92 q0 54 38 93l191 190l-196 195q-37 39 -37 93z" />
<glyph unicode="&#xd8;" horiz-adv-x="1184" d="M2 410v1189l1 13q5 169 124 289q85 85 175 107v88q0 54 37 92q38 39 90 39q54 0 91 -39q37 -38 37 -92v-91q88 -23 171 -106q122 -125 124 -298v-1214q-7 -167 -125 -286l-9 -9q-81 -75 -161 -97v-90q0 -53 -37 -92q-39 -38 -91 -38t-90 39q-37 38 -37 91v89 q-91 22 -176 108q-122 125 -124 308zM260 416q1 -82 49 -130q47 -48 113 -50q71 0 117 43l5 6q48 49 49 124l1 1196q-1 62 -49 110q-48 49 -115 50h-6q-66 -1 -114 -49t-49 -126z" />
<glyph unicode="&#xd9;" d="M0 400v1495q0 55 38 92q37 38 91 38q53 0 92 -38q38 -37 38 -92v-1495q1 -69 49 -116q47 -48 114 -49h6q65 1 114 51q49 48 50 89h-1v1520q0 55 38 92q39 38 92 38q54 0 91 -38q38 -37 38 -92v-1496q-2 -172 -124 -296q-118 -122 -285 -127l-14 -1h-30v1h24 q-172 1 -296 124q-119 119 -124 288zM191 2492q0 15 4 31q13 52 57 78q29 16 60 16q18 0 37 -5q50 -15 77 -63l94 -161q19 -33 19 -67q0 -16 -4 -32q-13 -51 -58 -78q-27 -16 -58 -16q-18 0 -38 6q-50 15 -77 61l-94 163q-19 33 -19 67z" />
<glyph unicode="&#xda;" d="M0 400v1495q0 55 38 92q37 38 91 38q53 0 92 -38q38 -37 38 -92v-1495q1 -69 49 -116q47 -48 114 -49h6q65 1 114 51q49 48 50 89h-1v1520q0 55 38 92q39 38 92 38q54 0 91 -38q38 -37 38 -92v-1496q-2 -172 -124 -296q-118 -122 -285 -127l-14 -1h-30v1h24 q-172 1 -296 124q-119 119 -124 288zM300 2321q0 34 19 67l94 161q27 48 78 63q19 5 36 5q31 0 59 -16q45 -25 58 -78q4 -16 4 -31q0 -34 -19 -67l-94 -163q-27 -46 -77 -61q-19 -6 -38 -6q-31 0 -59 16q-44 27 -57 78q-4 16 -4 32z" />
<glyph unicode="&#xdb;" d="M0 400v1495q0 55 38 92q37 38 91 38q53 0 92 -38q38 -37 38 -92v-1495q1 -69 49 -116q47 -48 114 -49h6q65 1 114 51q49 48 50 89h-1v1520q0 55 38 92q39 38 92 38q54 0 91 -38q38 -37 38 -92v-1496q-2 -172 -124 -296q-118 -122 -285 -127l-14 -1h-30v1h24 q-172 1 -296 124q-119 119 -124 288zM154 2317q0 54 38 93l140 140q39 38 93 38q53 0 92 -38l141 -140q38 -39 38 -93q0 -53 -38 -92q-39 -38 -93 -38q-53 0 -92 38l-48 49l-48 -49q-39 -38 -93 -38q-55 0 -92 38q-38 39 -38 92z" />
<glyph unicode="&#xdc;" horiz-adv-x="992" d="M4 1301l1 14q3 67 33 126l-15 -30h-5l34 56l-1 -1q53 84 135 125q29 15 58 15q20 0 41 -7q52 -18 76 -65q14 -28 14 -58q0 -20 -7 -41q-17 -52 -66 -76q-16 -7 -27 -24l-5 -8q-5 -11 -6 -24v-8q1 -26 21 -45q18 -20 43 -21h-17v-1q52 2 71 21q18 18 20 42v412 q-2 23 -20 41q-19 20 -71 20h17q-13 -1 -24 -6l-8 -4q-16 -11 -24 -27q-24 -48 -76 -66q-21 -7 -41 -7q-29 0 -58 15q-47 23 -65 74q-7 21 -7 41q0 30 15 58q41 83 107 125l18 11l24 13q60 29 127 32l13 2h32v-1h-24q135 -2 228 -95q91 -90 97 -217v-432q-7 -126 -97 -215 q-93 -94 -228 -96h-21q-127 8 -216 97q-94 94 -96 238v-3z" />
<glyph unicode="&#xdd;" horiz-adv-x="1107" d="M0 798v1096q0 55 38 92q39 38 92 38q55 0 92 -38q38 -37 38 -92v-1096q1 -68 50 -116q47 -48 114 -49h12q64 3 111 51q49 49 50 114v1096q0 55 38 92q39 38 92 38t92 -38q38 -37 38 -92v-1097q-2 -171 -124 -296q-83 -83 -174 -108v-288q0 -54 -38 -93q-39 -37 -92 -37 q-54 0 -93 37q-38 39 -38 93v288q-92 26 -172 104q-119 119 -125 288zM304 2321q0 34 19 67l94 161q27 48 78 63q19 5 36 5q31 0 59 -16q45 -25 58 -78q4 -16 4 -31q0 -34 -19 -67l-94 -163q-27 -46 -77 -61q-19 -6 -38 -6q-31 0 -59 16q-44 27 -57 78q-4 16 -4 32z" />
<glyph unicode="&#xde;" d="M-1 -93v1287q0 9 1 17v188l1 13q5 169 124 289q124 123 296 124h6l14 -1q167 -5 285 -125q122 -125 124 -298v-614q-7 -167 -125 -286l-10 -9q-122 -115 -286 -116h24v-1h-30l-14 1q-83 3 -155 35v-504q0 -54 -37 -93t-90 -39q-54 0 -91 39t-37 93zM0 107v1787 q0 54 37 92q37 39 91 39q53 0 90 -39q37 -38 37 -92v-1787q0 -54 -37 -93t-90 -39q-54 0 -91 39t-37 93zM258 776q1 -42 49 -90q46 -47 110 -51l3 1h33v-1q38 1 84 44l4 6q47 48 51 111l-1 3v626h1q-1 42 -49 90q-48 49 -115 50h-6q-67 -1 -114 -49q-48 -48 -49 -116v-624 h-1z" />
<glyph unicode="&#xdf;" horiz-adv-x="1157" d="M0 99v1495l1 13q5 169 125 289q125 123 274 124h31l13 -1q168 -5 288 -125q123 -125 124 -298v24h1v-229l-1 -15q-6 -166 -118 -277v-2l-3 -3l-3 4q123 -125 125 -273v-427l-1 -15v-3q-1 -35 -4 -47q-15 -69 -35 -111l-2 -5q-100 -206 -324 -241q-10 -1 -19 -1 q-43 0 -78 26q-43 32 -52 84q-1 10 -1 19q0 42 26 79q32 43 85 51q90 14 127 92v1q9 19 18 64l-1 2l1 402q-1 70 -50 119q-49 50 -116 51h-3q-53 0 -92 38q-38 39 -38 92q0 55 38 92q39 38 92 38h7q64 3 119 57h1q39 40 41 106v232h1q-1 42 -50 90q-48 49 -116 50h-31 q-42 -1 -90 -49t-50 -116v-1496q0 -53 -38 -92q-38 -37 -92 -37q-53 0 -92 37q-38 39 -38 92z" />
<glyph unicode="&#xe0;" d="M0 409v95l1 12q5 169 124 289q124 122 296 124h6l14 -1q98 -3 150 -32v109l1 2v-3q-2 65 -50 112q-47 48 -139 49h19q-35 -1 -64 -14h-1l-19 -11q-38 -24 -60 -63q-25 -47 -76 -62q-20 -6 -39 -6q-31 0 -60 16q-46 26 -61 77q-6 20 -6 39q0 31 16 60q52 97 136 150v-1 l4 3v1l18 11l14 8v-1l18 11q77 37 163 40l15 2h-1q183 -2 306 -125q119 -119 125 -297v-578q-7 -206 -125 -325q-124 -123 -296 -125h-19q-167 6 -286 126q-122 125 -124 308zM249 1872q0 15 4 31q13 52 57 78q29 16 60 16q18 0 37 -5q50 -15 77 -63l94 -161q19 -33 19 -67 q0 -16 -4 -32q-13 -51 -58 -78q-27 -16 -58 -16q-18 0 -38 6q-50 15 -77 61l-94 163q-19 33 -19 67zM259 405q0 -73 48 -120q47 -48 110 -51l3 1q74 0 122 50q48 47 49 122v103q-6 67 -56 117q-40 41 -107 42h-31q-41 0 -89 -49q-48 -47 -49 -116v-99z" />
<glyph unicode="&#xe1;" d="M0 409v95l1 12q5 169 124 289q124 122 296 124h6l14 -1q98 -3 150 -32v109l1 2v-3q-2 65 -50 112q-47 48 -139 49h19q-35 -1 -64 -14h-1l-19 -11q-38 -24 -60 -63q-25 -47 -76 -62q-20 -6 -39 -6q-31 0 -60 16q-46 26 -61 77q-6 20 -6 39q0 31 16 60q52 97 136 150v-1 l4 3v1l18 11l14 8v-1l18 11q77 37 163 40l15 2h-1q183 -2 306 -125q119 -119 125 -297v-578q-7 -206 -125 -325q-124 -123 -296 -125h-19q-167 6 -286 126q-122 125 -124 308zM259 405q0 -73 48 -120q47 -48 110 -51l3 1q74 0 122 50q48 47 49 122v103q-6 67 -56 117 q-40 41 -107 42h-31q-41 0 -89 -49q-48 -47 -49 -116v-99zM352 1701q0 34 19 67l94 161q27 48 78 63q19 5 36 5q31 0 59 -16q45 -25 58 -78q4 -16 4 -31q0 -34 -19 -67l-94 -163q-27 -46 -77 -61q-19 -6 -38 -6q-31 0 -59 16q-44 27 -57 78q-4 16 -4 32z" />
<glyph unicode="&#xe2;" d="M0 409v95l1 12q5 169 124 289q124 122 296 124h6l14 -1q98 -3 150 -32v109l1 2v-3q-2 65 -50 112q-47 48 -139 49h19q-35 -1 -64 -14h-1l-19 -11q-38 -24 -60 -63q-25 -47 -76 -62q-20 -6 -39 -6q-31 0 -60 16q-46 26 -61 77q-6 20 -6 39q0 31 16 60q52 97 136 150v-1 l4 3v1l18 11l14 8v-1l18 11q77 37 163 40l15 2h-1q183 -2 306 -125q119 -119 125 -297v-578q-7 -206 -125 -325q-124 -123 -296 -125h-19q-167 6 -286 126q-122 125 -124 308zM230 1704q0 54 38 93l140 140q39 38 93 38q53 0 92 -38l141 -140q38 -39 38 -93q0 -53 -38 -92 q-39 -38 -93 -38q-53 0 -92 38l-48 49l-48 -49q-39 -38 -93 -38q-55 0 -92 38q-38 39 -38 92zM259 405q0 -73 48 -120q47 -48 110 -51l3 1q74 0 122 50q48 47 49 122v103q-6 67 -56 117q-40 41 -107 42h-31q-41 0 -89 -49q-48 -47 -49 -116v-99z" />
<glyph unicode="&#xe3;" horiz-adv-x="1123" d="M0 409v95l1 12q5 169 124 289q124 122 296 124h6l14 -1q98 -3 150 -32v109l1 2v-3q-2 65 -50 112q-47 48 -139 49h19q-35 -1 -64 -14h-1l-19 -11q-38 -24 -60 -63q-25 -47 -76 -62q-20 -6 -39 -6q-31 0 -60 16q-46 26 -61 77q-6 20 -6 39q0 31 16 60q52 97 136 150v-1 l4 3v1l18 11l14 8v-1l18 11q77 37 163 40l15 2h-1q183 -2 306 -125q119 -119 125 -297v-578q-7 -206 -125 -325q-124 -123 -296 -125h-19q-167 6 -286 126q-122 125 -124 308zM23 1730q0 20 7 41q16 52 65 75q79 41 181 41q80 0 173 -25q112 -29 176 -29q41 0 63 12 q29 16 61 16q19 0 38 -6q52 -15 77 -62q16 -30 16 -62q0 -18 -5 -37q-16 -52 -63 -77q-80 -44 -191 -44q-93 0 -206 30q-89 23 -144 23q-37 0 -59 -11q-29 -15 -59 -15q-20 0 -41 7q-51 18 -74 65q-15 29 -15 58zM259 405q0 -73 48 -120q47 -48 110 -51l3 1q74 0 122 50 q48 47 49 122v103q-6 67 -56 117q-40 41 -107 42h-31q-41 0 -89 -49q-48 -47 -49 -116v-99z" />
<glyph unicode="&#xe4;" d="M0 409v95l1 12q5 169 124 289q124 122 296 124h6l14 -1q98 -3 150 -32v109l1 2v-3q-2 65 -50 112q-47 48 -139 49h19q-35 -1 -64 -14h-1l-19 -11q-38 -24 -60 -63q-25 -47 -76 -62q-20 -6 -39 -6q-31 0 -60 16q-46 26 -61 77q-6 20 -6 39q0 31 16 60q52 97 136 150v-1 l4 3v1l18 11l14 8v-1l18 11q77 37 163 40l15 2h-1q183 -2 306 -125q119 -119 125 -297v-578q-7 -206 -125 -325q-124 -123 -296 -125h-19q-167 6 -286 126q-122 125 -124 308zM179 1700q0 53 38 91t91 38q52 0 90 -38t38 -91t-38 -90.5t-90 -37.5q-53 0 -91 37.5t-38 90.5z M259 405q0 -73 48 -120q47 -48 110 -51l3 1q74 0 122 50q48 47 49 122v103q-6 67 -56 117q-40 41 -107 42h-31q-41 0 -89 -49q-48 -47 -49 -116v-99zM479 1700q0 53 37.5 90.5t90.5 37.5t91 -37.5t38 -90.5t-38 -91t-91 -38t-90.5 38t-37.5 91z" />
<glyph unicode="&#xe5;" d="M0 409v95l1 12q5 169 124 289q124 122 296 124h6l14 -1q98 -3 150 -32v109l1 2v-3q-2 65 -50 112q-47 48 -139 49h19q-35 -1 -64 -14h-1l-19 -11q-38 -24 -60 -63q-25 -47 -76 -62q-20 -6 -39 -6q-31 0 -60 16q-46 26 -61 77q-6 20 -6 39q0 31 16 60q52 97 136 150v-1 l4 3v1l18 11l14 8v-1l18 11q77 37 163 40l15 2h-1q183 -2 306 -125q119 -119 125 -297v-578q-7 -206 -125 -325q-124 -123 -296 -125h-19q-167 6 -286 126q-122 125 -124 308zM129 1900q0 134 95.5 229.5t229.5 95.5t229.5 -95.5t95.5 -229.5t-95.5 -229.5t-229.5 -95.5 t-229.5 95.5t-95.5 229.5zM259 405q0 -73 48 -120q47 -48 110 -51l3 1q74 0 122 50q48 47 49 122v103q-6 67 -56 117q-40 41 -107 42h-31q-41 0 -89 -49q-48 -47 -49 -116v-99zM379 1900q0 -31 22 -53t53 -22t53 22t22 53t-22 53t-53 22t-53 -22t-22 -53z" />
<glyph unicode="&#xe6;" horiz-adv-x="1690" d="M0 409v95l1 12q5 169 124 289q124 122 296 124h6l14 -1q98 -3 150 -32v109l1 2v-3q-2 65 -50 112q-47 48 -139 49h19q-35 -1 -64 -14h-1l-19 -11q-38 -24 -60 -63q-25 -47 -76 -62q-20 -6 -39 -6q-31 0 -60 16q-46 26 -61 77q-6 20 -6 39q0 31 16 60q52 97 136 150v-1 l4 3v1l18 11l14 8v-1l18 11q77 37 163 40l15 2h-1q183 -2 306 -125q119 -119 125 -297v-578q-7 -206 -125 -325q-124 -123 -296 -125h-19q-167 6 -286 126q-122 125 -124 308zM259 405q0 -73 48 -120q47 -48 110 -51l3 1q74 0 122 50q48 47 49 122v103q-6 67 -56 117 q-40 41 -107 42h-31q-41 0 -89 -49q-48 -47 -49 -116v-99zM620 397v618q7 166 125 285q125 123 272 125h43q167 -6 286 -126q122 -125 124 -323v-80l-1 -12q-5 -169 -124 -288q-124 -123 -306 -125h4q-112 4 -164 33l-1 -88q3 -85 50 -132q47 -48 104 -49q2 -1 5 -1 q53 0 95 26q38 24 64 63q21 47 72 62q20 6 39 6q31 0 60 -16q46 -26 61 -77q6 -20 6 -39q0 -31 -16 -60q-47 -102 -190 -182q-77 -37 -163 -40q-196 0 -320 123q-119 119 -125 297zM879 880q19 -148 154 -149q82 0 129 49q48 47 50 116v100q-1 72 -49 119q-47 48 -113 50 q-73 0 -122 -50q-47 -47 -49 -112v-123z" />
<glyph unicode="&#xe7;" horiz-adv-x="1078" d="M0 -283q0 54 38 93q39 37 92 37h177v-1q51 2 70 21q20 19 21 43v9q-1 25 -16 42l-3 2q-22 21 -55 32q-111 12 -123 88q-3 14 -3 28q0 56 41 95q38 38 66 38v1h31l5 -1h4q129 -7 218 -96l8 -8l1 -2h-1q85 -92 87 -218v-22q-8 -126 -97 -215q-94 -94 -228 -96h-203 q-53 0 -92 38q-38 39 -38 92zM1 400v600l1 12q5 169 125 288q124 123 298 125h7l16 -1q86 -4 165 -41l5 -3l7 -3l1 -2l19 -10l-32 19v-4l44 -21l2 -2q92 -58 145 -156q16 -29 16 -60q0 -19 -6 -39q-15 -51 -62 -77q-29 -16 -60 -16q-19 0 -38 6q-52 15 -78 62q-21 39 -58 62 l-32 17q-18 8 -54 9h-6q-68 0 -115 -49q-49 -48 -50 -116v-600q1 -68 50 -116q48 -49 90 -49h36q31 1 49 10v-1l41 22q28 19 49 57q26 47 78 63q19 5 37 5q31 0 61 -16q47 -26 62 -77q6 -20 6 -39q0 -31 -16 -60q-53 -97 -145 -157l-14 -7l-14 -7q-3 -3 -19 -11 q-80 -38 -165 -41l-15 -1h-31v1h24q-174 1 -298 124q-119 119 -125 287z" />
<glyph unicode="&#xe8;" d="M0 397v618q7 166 125 285q125 123 272 125h43q167 -6 286 -126q122 -125 124 -323v-80l-1 -12q-5 -169 -124 -288q-124 -123 -306 -125h4q-112 4 -164 33l-1 -88q3 -85 50 -132q47 -48 104 -49q2 -1 5 -1q53 0 95 26q38 24 64 63q21 47 72 62q20 6 39 6q31 0 60 -16 q46 -26 61 -77q6 -20 6 -39q0 -31 -16 -60q-47 -102 -190 -182q-77 -37 -163 -40q-196 0 -320 123q-119 119 -125 297zM189 1872q0 15 4 31q13 52 57 78q29 16 60 16q18 0 37 -5q50 -15 77 -63l94 -161q19 -33 19 -67q0 -16 -4 -32q-13 -51 -58 -78q-27 -16 -58 -16 q-18 0 -38 6q-50 15 -77 61l-94 163q-19 33 -19 67zM259 880q19 -148 154 -149q82 0 129 49q48 47 50 116v100q-1 72 -49 119q-47 48 -113 50q-73 0 -122 -50q-47 -47 -49 -112v-123z" />
<glyph unicode="&#xe9;" d="M0 397v618q7 166 125 285q125 123 272 125h43q167 -6 286 -126q122 -125 124 -323v-80l-1 -12q-5 -169 -124 -288q-124 -123 -306 -125h4q-112 4 -164 33l-1 -88q3 -85 50 -132q47 -48 104 -49q2 -1 5 -1q53 0 95 26q38 24 64 63q21 47 72 62q20 6 39 6q31 0 60 -16 q46 -26 61 -77q6 -20 6 -39q0 -31 -16 -60q-47 -102 -190 -182q-77 -37 -163 -40q-196 0 -320 123q-119 119 -125 297zM259 880q19 -148 154 -149q82 0 129 49q48 47 50 116v100q-1 72 -49 119q-47 48 -113 50q-73 0 -122 -50q-47 -47 -49 -112v-123zM302 1701q0 34 19 67 l94 161q27 48 78 63q19 5 36 5q31 0 59 -16q45 -25 58 -78q4 -16 4 -31q0 -34 -19 -67l-94 -163q-27 -46 -77 -61q-19 -6 -38 -6q-31 0 -59 16q-44 27 -57 78q-4 16 -4 32z" />
<glyph unicode="&#xea;" d="M0 397v618q7 166 125 285q125 123 272 125h43q167 -6 286 -126q122 -125 124 -323v-80l-1 -12q-5 -169 -124 -288q-124 -123 -306 -125h4q-112 4 -164 33l-1 -88q3 -85 50 -132q47 -48 104 -49q2 -1 5 -1q53 0 95 26q38 24 64 63q21 47 72 62q20 6 39 6q31 0 60 -16 q46 -26 61 -77q6 -20 6 -39q0 -31 -16 -60q-47 -102 -190 -182q-77 -37 -163 -40q-196 0 -320 123q-119 119 -125 297zM200 1704q0 54 38 93l140 140q39 38 93 38q53 0 92 -38l141 -140q38 -39 38 -93q0 -53 -38 -92q-39 -38 -93 -38q-53 0 -92 38l-48 49l-48 -49 q-39 -38 -93 -38q-55 0 -92 38q-38 39 -38 92zM259 880q19 -148 154 -149q82 0 129 49q48 47 50 116v100q-1 72 -49 119q-47 48 -113 50q-73 0 -122 -50q-47 -47 -49 -112v-123z" />
<glyph unicode="&#xeb;" d="M0 397v618q7 166 125 285q125 123 272 125h43q167 -6 286 -126q122 -125 124 -323v-80l-1 -12q-5 -169 -124 -288q-124 -123 -306 -125h4q-112 4 -164 33l-1 -88q3 -85 50 -132q47 -48 104 -49q2 -1 5 -1q53 0 95 26q38 24 64 63q21 47 72 62q20 6 39 6q31 0 60 -16 q46 -26 61 -77q6 -20 6 -39q0 -31 -16 -60q-47 -102 -190 -182q-77 -37 -163 -40q-196 0 -320 123q-119 119 -125 297zM185 1700q0 53 38 91t91 38q52 0 90 -38t38 -91t-38 -90.5t-90 -37.5q-53 0 -91 37.5t-38 90.5zM259 880q19 -148 154 -149q82 0 129 49q48 47 50 116 v100q-1 72 -49 119q-47 48 -113 50q-73 0 -122 -50q-47 -47 -49 -112v-123zM485 1700q0 53 37.5 90.5t90.5 37.5t91 -37.5t38 -90.5t-38 -91t-91 -38t-90.5 38t-37.5 91z" />
<glyph unicode="&#xec;" horiz-adv-x="611" d="M8 1872q0 15 4 31q13 52 57 78q29 16 60 16q18 0 37 -5q50 -15 77 -63l94 -161q19 -33 19 -67q0 -16 -4 -32q-13 -51 -58 -78q-27 -16 -58 -16q-18 0 -38 6q-50 15 -77 61l-94 163q-19 33 -19 67zM117 107v1187q0 54 36 92q37 39 89 39t89 -39q36 -38 36 -92v-1187 q0 -54 -36 -93q-37 -39 -89 -39t-89 39q-36 39 -36 93z" />
<glyph unicode="&#xed;" horiz-adv-x="611" d="M0 106v1187q0 54 36 92q37 39 89 39t89 -39q36 -38 36 -92v-1187q0 -54 -36 -93q-37 -39 -89 -39t-89 39q-36 39 -36 93zM0 1701q0 34 19 67l94 161q27 48 78 63q19 5 36 5q31 0 59 -16q45 -25 58 -78q4 -16 4 -31q0 -34 -19 -67l-94 -163q-27 -46 -77 -61q-19 -6 -38 -6 q-31 0 -59 16q-44 27 -57 78q-4 16 -4 32z" />
<glyph unicode="&#xee;" horiz-adv-x="792" d="M0 1705q0 54 38 93l140 140q39 38 93 38q53 0 92 -38l141 -140q38 -39 38 -93q0 -53 -38 -92q-39 -38 -93 -38q-53 0 -92 38l-48 49l-48 -49q-39 -38 -93 -38q-55 0 -92 38q-38 39 -38 92zM146 107v1187q0 54 36 92q37 39 89 39t89 -39q36 -38 36 -92v-1187 q0 -54 -36 -93q-37 -39 -89 -39t-89 39q-36 39 -36 93z" />
<glyph unicode="&#xef;" horiz-adv-x="807" d="M0 1700q0 53 38 91t91 38q52 0 90 -38t38 -91t-38 -90.5t-90 -37.5q-53 0 -91 37.5t-38 90.5zM153 107v1187q0 54 36 92q37 39 89 39t89 -39q36 -38 36 -92v-1187q0 -54 -36 -93q-37 -39 -89 -39t-89 39q-36 39 -36 93zM300 1700q0 53 37.5 90.5t90.5 37.5t91 -37.5 t38 -90.5t-38 -91t-91 -38t-90.5 38t-37.5 91z" />
<glyph unicode="&#xf0;" horiz-adv-x="1357" d="M0 388v616q2 174 124 299q118 120 285 125l14 1h6q108 -1 163 -32v178h-62q-53 0 -92 38q-38 37 -38 92t38 92q39 38 92 38h62v61q0 53 37 92q39 37 92 37t91 -37q38 -39 38 -92v-61h77q53 0 92 -38q38 -37 38 -92t-38 -92q-39 -38 -92 -38h-77v-1199h34l-34 34 q-2 -183 -124 -308q-119 -120 -285 -126l-14 -1h-30v1h24q-172 1 -296 125q-119 119 -125 287zM258 396v1q3 -64 50 -112q47 -49 114 -49h9q65 2 112 50q48 48 49 90h-1v627q-1 69 -49 117q-47 48 -114 49h-6q-67 -1 -115 -50q-48 -48 -49 -90h1v-630z" />
<glyph unicode="&#xf1;" horiz-adv-x="1123" d="M-10 104v895l1 12q5 169 124 288q124 123 296 125h6l14 -1q167 -5 285 -127q122 -124 124 -296v-896q0 -53 -38 -92q-37 -38 -91 -38q-53 0 -92 38q-38 39 -38 92l1 890q-1 71 -50 120q-48 49 -114 50h-6q-67 0 -114 -49q-48 -47 -49 -116v-895q0 -53 -38 -92 q-39 -38 -92 -38q-54 0 -91 38q-38 39 -38 92zM-7 1732q0 20 7 41q16 52 65 75q79 41 181 41q80 0 173 -25q112 -29 176 -29q41 0 63 12q29 16 61 16q19 0 38 -6q52 -15 77 -62q16 -30 16 -62q0 -18 -5 -37q-16 -52 -63 -77q-80 -44 -191 -44q-93 0 -206 30q-89 23 -144 23 q-37 0 -59 -11q-29 -15 -59 -15q-20 0 -41 7q-51 18 -74 65q-15 29 -15 58z" />
<glyph unicode="&#xf2;" d="M0 410v589l1 13q5 169 124 289q124 123 296 124h6l14 -1q167 -5 285 -125q122 -125 124 -298v-614q-7 -167 -125 -286l-9 -9q-123 -115 -287 -116h24v-1h-30l-14 1q-166 6 -285 126q-122 125 -124 308zM222 1872q0 15 4 31q13 52 57 78q29 16 60 16q18 0 37 -5 q50 -15 77 -63l94 -161q19 -33 19 -67q0 -16 -4 -32q-13 -51 -58 -78q-27 -16 -58 -16q-18 0 -38 6q-50 15 -77 61l-94 163q-19 33 -19 67zM258 406q1 -72 49 -120q47 -48 113 -51h-3l3 1q71 0 117 43l5 6q48 49 50 113v-2l-1 3l1 596q-1 72 -49 120q-48 49 -115 50h-6 q-66 -1 -114 -49t-49 -116v-594h-1z" />
<glyph unicode="&#xf3;" d="M0 410v589l1 13q5 169 124 289q124 123 296 124h6l14 -1q167 -5 285 -125q122 -125 124 -298v-614q-7 -167 -125 -286l-9 -9q-123 -115 -287 -116h24v-1h-30l-14 1q-166 6 -285 126q-122 125 -124 308zM258 406q1 -72 49 -120q47 -48 113 -51h-3l3 1q71 0 117 43l5 6 q48 49 50 113v-2l-1 3l1 596q-1 72 -49 120q-48 49 -115 50h-6q-66 -1 -114 -49t-49 -116v-594h-1zM335 1701q0 34 19 67l94 161q27 48 78 63q19 5 36 5q31 0 59 -16q45 -25 58 -78q4 -16 4 -31q0 -34 -19 -67l-94 -163q-27 -46 -77 -61q-19 -6 -38 -6q-31 0 -59 16 q-44 27 -57 78q-4 16 -4 32z" />
<glyph unicode="&#xf4;" d="M0 410v589l1 13q5 169 124 289q124 123 296 124h6l14 -1q167 -5 285 -125q122 -125 124 -298v-614q-7 -167 -125 -286l-9 -9q-123 -115 -287 -116h24v-1h-30l-14 1q-166 6 -285 126q-122 125 -124 308zM187 1705q0 54 38 93l140 140q39 38 93 38q53 0 92 -38l141 -140 q38 -39 38 -93q0 -53 -38 -92q-39 -38 -93 -38q-53 0 -92 38l-48 49l-48 -49q-39 -38 -93 -38q-55 0 -92 38q-38 39 -38 92zM258 406q1 -72 49 -120q47 -48 113 -51h-3l3 1q71 0 117 43l5 6q48 49 50 113v-2l-1 3l1 596q-1 72 -49 120q-48 49 -115 50h-6q-66 -1 -114 -49 t-49 -116v-594h-1z" />
<glyph unicode="&#xf5;" horiz-adv-x="1123" d="M0 410v589l1 13q5 169 124 289q124 123 296 124h6l14 -1q167 -5 285 -125q122 -125 124 -298v-614q-7 -167 -125 -286l-9 -9q-123 -115 -287 -116h24v-1h-30l-14 1q-166 6 -285 126q-122 125 -124 308zM26 1732q0 20 7 41q16 52 65 75q79 41 181 41q80 0 173 -25 q112 -29 176 -29q41 0 63 12q29 16 61 16q19 0 38 -6q52 -15 77 -62q16 -30 16 -62q0 -18 -5 -37q-16 -52 -63 -77q-80 -44 -191 -44q-93 0 -206 30q-89 23 -144 23q-37 0 -59 -11q-29 -15 -59 -15q-20 0 -41 7q-51 18 -74 65q-15 29 -15 58zM258 406q1 -72 49 -120 q47 -48 113 -51h-3l3 1q71 0 117 43l5 6q48 49 50 113v-2l-1 3l1 596q-1 72 -49 120q-48 49 -115 50h-6q-66 -1 -114 -49t-49 -116v-594h-1z" />
<glyph unicode="&#xf6;" d="M0 410v589l1 13q5 169 124 289q124 123 296 124h6l14 -1q167 -5 285 -125q122 -125 124 -298v-614q-7 -167 -125 -286l-9 -9q-123 -115 -287 -116h24v-1h-30l-14 1q-166 6 -285 126q-122 125 -124 308zM180 1700q0 53 38 91t91 38q52 0 90 -38t38 -91t-38 -90.5 t-90 -37.5q-53 0 -91 37.5t-38 90.5zM258 406q1 -72 49 -120q47 -48 113 -51h-3l3 1q71 0 117 43l5 6q48 49 50 113v-2l-1 3l1 596q-1 72 -49 120q-48 49 -115 50h-6q-66 -1 -114 -49t-49 -116v-594h-1zM480 1700q0 53 37.5 90.5t90.5 37.5t91 -37.5t38 -90.5t-38 -91 t-91 -38t-90.5 38t-37.5 91z" />
<glyph unicode="&#xf7;" horiz-adv-x="1107" d="M0 1104q0 52 38 91q39 37 92 37h597q53 0 92 -37q38 -39 38 -91q0 -53 -39 -90q-38 -37 -91 -37h-597q-53 0 -91 37q-39 37 -39 90zM300 694q0 53 38 91t91 38t90.5 -38t37.5 -91t-37.5 -90.5t-90.5 -37.5t-91 37.5t-38 90.5zM300 1494q0 53 38 91t91 38q52 0 90 -38 t38 -91t-38 -90.5t-90 -37.5q-53 0 -91 37.5t-38 90.5z" />
<glyph unicode="&#xf8;" horiz-adv-x="1184" d="M34 410v589l1 13q5 169 124 289q85 85 175 107v88q0 54 37 92q38 39 90 39q54 0 91 -39q37 -38 37 -92v-91q88 -23 171 -106q122 -125 124 -298v-614q-7 -167 -125 -286l-9 -9q-81 -75 -161 -97v-90q0 -53 -37 -92q-39 -38 -91 -38t-90 39q-37 38 -37 91v89 q-91 22 -176 108q-122 125 -124 308zM292 376q1 -42 49 -90q47 -48 110 -51l3 1q71 0 117 43l5 6q48 49 49 114v626h1q-1 42 -49 90q-48 49 -115 50h-6q-66 -1 -114 -49t-49 -116z" />
<glyph unicode="&#xf9;" d="M0 400v895q0 55 38 92q37 38 91 38q53 0 92 -38q38 -37 38 -92v-895q1 -69 49 -116q47 -48 114 -49h6q65 1 114 51q49 48 50 89h-1v920q0 55 38 92q39 38 92 38q54 0 91 -38q38 -37 38 -92v-896q-2 -172 -124 -296q-118 -122 -285 -127l-14 -1h-30v1h24q-172 1 -296 124 q-119 119 -124 288zM189 1872q0 15 4 31q13 52 57 78q29 16 60 16q18 0 37 -5q50 -15 77 -63l94 -161q19 -33 19 -67q0 -16 -4 -32q-13 -51 -58 -78q-27 -16 -58 -16q-18 0 -38 6q-50 15 -77 61l-94 163q-19 33 -19 67z" />
<glyph unicode="&#xfa;" d="M0 400v895q0 55 38 92q37 38 91 38q53 0 92 -38q38 -37 38 -92v-895q1 -69 49 -116q47 -48 114 -49h6q65 1 114 51q49 48 50 89h-1v920q0 55 38 92q39 38 92 38q54 0 91 -38q38 -37 38 -92v-896q-2 -172 -124 -296q-118 -122 -285 -127l-14 -1h-30v1h24q-172 1 -296 124 q-119 119 -124 288zM310 1701q0 34 19 67l94 161q27 48 78 63q19 5 36 5q31 0 59 -16q45 -25 58 -78q4 -16 4 -31q0 -34 -19 -67l-94 -163q-27 -46 -77 -61q-19 -6 -38 -6q-31 0 -59 16q-44 27 -57 78q-4 16 -4 32z" />
<glyph unicode="&#xfb;" d="M0 400v895q0 55 38 92q37 38 91 38q53 0 92 -38q38 -37 38 -92v-895q1 -69 49 -116q47 -48 114 -49h6q65 1 114 51q49 48 50 89h-1v920q0 55 38 92q39 38 92 38q54 0 91 -38q38 -37 38 -92v-896q-2 -172 -124 -296q-118 -122 -285 -127l-14 -1h-30v1h24q-172 1 -296 124 q-119 119 -124 288zM151 1704q0 54 38 93l140 140q39 38 93 38q53 0 92 -38l141 -140q38 -39 38 -93q0 -53 -38 -92q-39 -38 -93 -38q-53 0 -92 38l-48 49l-48 -49q-39 -38 -93 -38q-55 0 -92 38q-38 39 -38 92z" />
<glyph unicode="&#xfc;" d="M0 400v895q0 55 38 92q37 38 91 38q53 0 92 -38q38 -37 38 -92v-895q1 -69 49 -116q47 -48 114 -49h6q65 1 114 51q49 48 50 89h-1v920q0 55 38 92q39 38 92 38q54 0 91 -38q38 -37 38 -92v-896q-2 -172 -124 -296q-118 -122 -285 -127l-14 -1h-30v1h24q-172 1 -296 124 q-119 119 -124 288zM147 1700q0 53 38 91t91 38q52 0 90 -38t38 -91t-38 -90.5t-90 -37.5q-53 0 -91 37.5t-38 90.5zM447 1700q0 53 37.5 90.5t90.5 37.5t91 -37.5t38 -90.5t-38 -91t-91 -38t-90.5 38t-37.5 91z" />
<glyph unicode="&#xfd;" horiz-adv-x="1107" d="M0 398v897q0 54 38 93q39 37 92 37q54 0 93 -37q37 -39 37 -93v-898q1 -67 50 -115q48 -49 90 -50h35q64 3 112 51q43 43 50 100v912q0 54 37 93q39 37 93 37q53 0 92 -37q38 -39 38 -93v-1507q-6 -168 -126 -288q-125 -123 -299 -124h24v-1h-31l-14 1q-87 3 -166 42 l-12 6l-23 11l-10 7q-94 60 -148 158q-16 29 -16 61q0 19 6 38q15 52 62 77q30 16 62 16q18 0 37 -5q52 -16 77 -63q22 -38 61 -63.5t81 -25.5h-3l3 1q77 0 125 49q48 48 50 112v208q-52 -29 -151 -33h-46q-149 2 -274 125q-119 119 -125 288zM304 1729q0 34 19 67l94 161 q27 48 78 63q19 5 36 5q31 0 59 -16q45 -25 58 -78q4 -16 4 -31q0 -34 -19 -67l-94 -163q-27 -46 -77 -61q-19 -6 -38 -6q-31 0 -59 16q-44 27 -57 78q-4 16 -4 32z" />
<glyph unicode="&#xfe;" d="M-1 -493l1 1492l1 13q5 169 124 289q124 123 296 124h6l14 -1q167 -5 285 -125q122 -125 124 -298v-614q-7 -167 -125 -286l-10 -9q-122 -115 -286 -116h24v-1h-30l-14 1q-83 3 -155 35v-504q0 -54 -37 -93t-90 -39q-54 0 -91 39t-37 93zM0 107v1787q0 54 37 92 q37 39 91 39q53 0 90 -39q37 -38 37 -92v-1787q0 -54 -37 -93t-90 -39q-54 0 -91 39t-37 93zM258 396q1 -62 49 -110q46 -47 115 -48q2 -1 5 -1q66 0 110 42l4 6q47 48 50 114l1 606q-1 62 -49 110q-48 49 -115 50h-6q-67 -1 -114 -49q-48 -48 -49 -116z" />
<glyph unicode="&#xff;" horiz-adv-x="1107" d="M0 398v897q0 54 38 93q39 37 92 37q54 0 93 -37q37 -39 37 -93v-898q1 -67 50 -115q48 -49 90 -50h35q64 3 112 51q43 43 50 100v912q0 54 37 93q39 37 93 37q53 0 92 -37q38 -39 38 -93v-1507q-6 -168 -126 -288q-125 -123 -299 -124h24v-1h-31l-14 1q-87 3 -166 42 l-12 6l-23 11l-10 7q-94 60 -148 158q-16 29 -16 61q0 19 6 38q15 52 62 77q30 16 62 16q18 0 37 -5q52 -16 77 -63q22 -38 61 -63.5t81 -25.5h-3l3 1q77 0 125 49q48 48 50 112v208q-52 -29 -151 -33h-46q-149 2 -274 125q-119 119 -125 288zM150 1700q0 53 38 91t91 38 q52 0 90 -38t38 -91t-38 -90.5t-90 -37.5q-53 0 -91 37.5t-38 90.5zM450 1700q0 53 37.5 90.5t90.5 37.5t91 -37.5t38 -90.5t-38 -91t-91 -38t-90.5 38t-37.5 91z" />
<glyph unicode="&#x152;" horiz-adv-x="1604" d="M0 410v1189l1 13q5 169 124 289q124 123 296 124h6l14 -1q167 -5 285 -125q122 -125 124 -298v-1214q-7 -167 -125 -286l-9 -9q-123 -115 -287 -116h24v-1h-30l-14 1q-166 6 -285 126q-122 125 -124 308zM258 376q1 -42 49 -90q47 -48 113 -51h-3l3 1h33v-1q38 1 84 44 l5 6q48 49 50 113v-2l-1 3v1226h1q-1 42 -49 90q-48 49 -115 50h-6q-66 -1 -114 -49t-49 -116v-1224h-1zM596 400v1200l1 12q5 169 125 288q124 123 298 125h7l16 -1q86 -4 165 -41v-3l44 -21l2 -2q92 -58 145 -156q16 -29 16 -60q0 -19 -6 -39q-15 -51 -62 -77 q-29 -16 -60 -16q-19 0 -38 6q-52 15 -78 62q-21 39 -58 62l-32 17q-18 8 -54 9h-6q-68 0 -115 -49q-49 -48 -50 -116v-475h367q53 0 92 -38q38 -37 38 -92t-38 -92q-39 -38 -92 -38h-367v-465q1 -68 50 -116q48 -49 90 -49h36q31 1 49 10v-1l41 22q28 19 49 57q26 47 78 63 q19 5 37 5q31 0 61 -16q47 -26 62 -77q6 -20 6 -39q0 -31 -16 -60q-53 -97 -145 -157l-14 -7l-14 -7q-3 -3 -19 -11q-80 -38 -165 -41l-15 -1h-31v1h24q-174 1 -298 124q-119 119 -125 287zM1208 1983l5 -3l6 -3l-11 7v-1zM1220 1977l1 -2l19 -10z" />
<glyph unicode="&#x153;" horiz-adv-x="1700" d="M0 410v589l1 13q5 169 124 289q124 123 296 124h6l14 -1q167 -5 285 -125q122 -125 124 -298v-614q-7 -167 -125 -286l-9 -9q-123 -115 -287 -116h24v-1h-30l-14 1q-166 6 -285 126q-122 125 -124 308zM258 406q1 -72 49 -120q47 -48 113 -51h-3l3 1q71 0 117 43l5 6 q48 49 50 113v-2l-1 3l1 596q-1 72 -49 120q-48 49 -115 50h-6q-66 -1 -114 -49t-49 -116v-594h-1zM595 397v618q7 166 125 285q125 123 272 125h43q167 -6 286 -126q122 -125 124 -323v-80l-1 -12q-5 -169 -124 -288q-124 -123 -306 -125h4q-112 4 -164 33l-1 -88 q3 -85 50 -132q47 -48 104 -49q2 -1 5 -1q53 0 95 26q38 24 64 63q21 47 72 62q20 6 39 6q31 0 60 -16q46 -26 61 -77q6 -20 6 -39q0 -31 -16 -60q-47 -102 -190 -182q-77 -37 -163 -40q-196 0 -320 123q-119 119 -125 297zM854 880q19 -148 154 -149q82 0 129 49 q48 47 50 116v100q-1 72 -49 119q-47 48 -113 50q-73 0 -122 -50q-47 -47 -49 -112v-123z" />
<glyph unicode="&#x178;" horiz-adv-x="1107" d="M0 798v1096q0 55 38 92q39 38 92 38q55 0 92 -38q38 -37 38 -92v-1096q1 -68 50 -116q47 -48 114 -49h12q64 3 111 51q49 49 50 114v1096q0 55 38 92q39 38 92 38t92 -38q38 -37 38 -92v-1097q-2 -171 -124 -296q-83 -83 -174 -108v-288q0 -54 -38 -93q-39 -37 -92 -37 q-54 0 -93 37q-38 39 -38 93v288q-92 26 -172 104q-119 119 -125 288zM171 2300q0 53 38 91t91 38q52 0 90 -38t38 -91t-38 -90.5t-90 -37.5q-53 0 -91 37.5t-38 90.5zM471 2300q0 53 37.5 90.5t90.5 37.5t91 -37.5t38 -90.5t-38 -91t-91 -38t-90.5 38t-37.5 91z" />
<glyph unicode="&#x2c6;" horiz-adv-x="842" d="M0 1725q0 54 38 93l140 140q39 38 93 38q53 0 92 -38l141 -140q38 -39 38 -93q0 -53 -38 -92q-39 -38 -93 -38q-53 0 -92 38l-48 49l-48 -49q-39 -38 -93 -38q-55 0 -92 38q-38 39 -38 92z" />
<glyph unicode="&#x2dc;" horiz-adv-x="1175" d="M10 1871q0 20 7 41q16 52 65 75q79 41 181 41q80 0 173 -25q112 -29 176 -29q41 0 63 12q29 16 61 16q19 0 38 -6q52 -15 77 -62q16 -30 16 -62q0 -18 -5 -37q-16 -52 -63 -77q-80 -44 -191 -44q-93 0 -206 30q-89 23 -144 23q-37 0 -59 -11q-29 -15 -59 -15q-20 0 -41 7 q-51 18 -74 65q-15 29 -15 58z" />
<glyph unicode="&#x2000;" horiz-adv-x="1308" />
<glyph unicode="&#x2001;" horiz-adv-x="2617" />
<glyph unicode="&#x2002;" horiz-adv-x="1308" />
<glyph unicode="&#x2003;" horiz-adv-x="2617" />
<glyph unicode="&#x2004;" horiz-adv-x="872" />
<glyph unicode="&#x2005;" horiz-adv-x="654" />
<glyph unicode="&#x2006;" horiz-adv-x="436" />
<glyph unicode="&#x2007;" horiz-adv-x="436" />
<glyph unicode="&#x2008;" horiz-adv-x="327" />
<glyph unicode="&#x2009;" horiz-adv-x="523" />
<glyph unicode="&#x200a;" horiz-adv-x="145" />
<glyph unicode="&#x2010;" horiz-adv-x="957" d="M0 995q0 55 38 92q39 38 92 38h397q53 0 92 -38q38 -37 38 -92t-38 -92q-39 -38 -92 -38h-397q-53 0 -92 38q-38 37 -38 92z" />
<glyph unicode="&#x2011;" horiz-adv-x="957" d="M0 995q0 55 38 92q39 38 92 38h397q53 0 92 -38q38 -37 38 -92t-38 -92q-39 -38 -92 -38h-397q-53 0 -92 38q-38 37 -38 92z" />
<glyph unicode="&#x2012;" horiz-adv-x="957" d="M0 995q0 55 38 92q39 38 92 38h397q53 0 92 -38q38 -37 38 -92t-38 -92q-39 -38 -92 -38h-397q-53 0 -92 38q-38 37 -38 92z" />
<glyph unicode="&#x2013;" horiz-adv-x="957" d="M0 1095q0 52 38 91q39 37 92 37h397q53 0 92 -37q38 -39 38 -91q0 -53 -39 -90q-38 -37 -91 -37h-397q-53 0 -91 37q-39 37 -39 90z" />
<glyph unicode="&#x2014;" horiz-adv-x="1357" d="M0 1095q0 52 38 91q39 37 92 37h797q53 0 92 -37q38 -39 38 -91q0 -53 -39 -90q-38 -37 -91 -37h-797q-53 0 -91 37q-39 37 -39 90z" />
<glyph unicode="&#x2018;" horiz-adv-x="550" d="M0 1706v188q0 54 36 92q37 39 89 39t89 -39q36 -38 36 -92v-188q0 -54 -36 -92q-37 -39 -89 -39t-89 39q-36 38 -36 92z" />
<glyph unicode="&#x2019;" horiz-adv-x="550" d="M0 1706v188q0 54 36 92q37 39 89 39t89 -39q36 -38 36 -92v-188q0 -54 -36 -92q-37 -39 -89 -39t-89 39q-36 38 -36 92z" />
<glyph unicode="&#x201a;" horiz-adv-x="500" d="M0 94q0 54 36 92q37 39 89 39t89 -39q36 -38 36 -92v-188q0 -54 -36 -92q-37 -39 -89 -39t-89 39q-36 38 -36 92v188z" />
<glyph unicode="&#x201c;" horiz-adv-x="900" d="M0 1706v188q0 54 36 92q37 39 89 39t89 -39q36 -38 36 -92v-188q0 -54 -36 -92q-37 -39 -89 -39t-89 39q-36 38 -36 92zM400 1706v188q0 54 36 92q37 39 89 39t89 -39q36 -38 36 -92v-188q0 -54 -36 -92q-37 -39 -89 -39t-89 39q-36 38 -36 92z" />
<glyph unicode="&#x201d;" horiz-adv-x="900" d="M0 1706v188q0 54 36 92q37 39 89 39t89 -39q36 -38 36 -92v-188q0 -54 -36 -92q-37 -39 -89 -39t-89 39q-36 38 -36 92zM400 1706v188q0 54 36 92q37 39 89 39t89 -39q36 -38 36 -92v-188q0 -54 -36 -92q-37 -39 -89 -39t-89 39q-36 38 -36 92z" />
<glyph unicode="&#x201e;" horiz-adv-x="900" d="M0 94q0 54 36 92q37 39 89 39t89 -39q36 -38 36 -92v-188q0 -54 -36 -92q-37 -39 -89 -39t-89 39q-36 38 -36 92v188zM400 94q0 54 36 92q37 39 89 39t89 -39q36 -38 36 -92v-188q0 -54 -36 -92q-37 -39 -89 -39t-89 39q-36 38 -36 92v188z" />
<glyph unicode="&#x2022;" horiz-adv-x="557" d="M0 1000q0 53 38 91t91 38q52 0 90 -38t38 -91t-38 -90.5t-90 -37.5q-53 0 -91 37.5t-38 90.5z" />
<glyph unicode="&#x2026;" horiz-adv-x="1307" d="M0 100q0 53 38 91t91 38q52 0 90 -38t38 -91t-38 -90.5t-90 -37.5q-53 0 -91 37.5t-38 90.5zM400 100q0 53 38 91t91 38q52 0 90 -38t38 -91t-38 -90.5t-90 -37.5q-53 0 -91 37.5t-38 90.5zM800 100q0 53 38 91t91 38q52 0 90 -38t38 -91t-38 -90.5t-90 -37.5 q-53 0 -91 37.5t-38 90.5z" />
<glyph unicode="&#x202f;" horiz-adv-x="523" />
<glyph unicode="&#x2039;" horiz-adv-x="841" d="M0 1000q0 54 38 93l281 281q39 38 92 38q55 0 92 -38q38 -39 38 -92q0 -54 -38 -93l-189 -189l189 -188q38 -39 38 -93q0 -53 -38 -92q-37 -38 -92 -38q-53 0 -92 38l-272 272l-2 2l-7 7q-38 39 -38 92z" />
<glyph unicode="&#x203a;" horiz-adv-x="841" d="M0 719q0 54 38 93l189 188l-189 189q-38 39 -38 93q0 53 38 92q37 38 92 38t92 -38l281 -281q38 -39 38 -93q0 -53 -38 -92l-7 -7l-2 -2l-272 -272q-37 -38 -92 -38t-92 38q-38 39 -38 92z" />
<glyph unicode="&#x205f;" horiz-adv-x="654" />
<glyph unicode="&#x20ac;" horiz-adv-x="1107" d="M0 895q0 55 38 92q39 38 92 38h597q53 0 92 -38q38 -37 38 -92t-38 -92q-39 -38 -92 -38h-597q-53 0 -92 38q-38 37 -38 92zM0 1316q0 55 38 92q39 38 92 38h597q53 0 92 -38q38 -37 38 -92t-38 -92q-39 -38 -92 -38h-597q-53 0 -92 38q-38 37 -38 92zM125 400v1200l1 12 q4 169 106 288q105 123 253 125h6l14 -1q73 -4 140 -41l4 -3l6 -3l1 -2l16 -10l-27 19v-4l38 -21l1 -2q78 -58 124 -156q13 -29 13 -60q0 -19 -5 -39q-13 -51 -53 -77q-24 -16 -51 -16q-16 0 -32 6q-44 15 -66 62q-18 39 -50 62l-27 17q-15 8 -46 9h-5q-58 0 -98 -49 q-41 -48 -42 -116v-1200q1 -68 42 -116q41 -49 77 -49h31q26 1 41 10v-1l35 22q24 19 42 57q22 47 66 63q16 5 31 5q27 0 52 -16q40 -26 53 -77q5 -20 5 -39q0 -31 -13 -60q-46 -97 -124 -157l-12 -7l-12 -7q-2 -3 -16 -11q-68 -38 -140 -41l-13 -1h-26v1h20 q-148 1 -253 124q-101 119 -106 287z" />
<glyph unicode="&#x2122;" horiz-adv-x="2152" d="M0 1894q0 54 38 93q39 38 92 38h597q54 0 93 -38q37 -39 37 -93q0 -53 -37 -92q-39 -38 -93 -38h-168v-665q0 -53 -38 -92q-39 -38 -92 -38q-54 0 -93 38q-38 39 -38 92v665h-168q-53 0 -92 38q-38 39 -38 92zM796 1099v611q5 119 88 208h-1l1 1l6 8q90 91 219 96l13 2 h31v-1h-24q121 -1 195 -67q74 65 195 67h-24v1h31l14 -2q128 -5 217 -95l8 -8l1 -2h-1q81 -88 86 -208l1 -8v-603q0 -53 -38 -92q-39 -38 -92 -38q-54 0 -93 38q-37 39 -37 92v600q-1 25 -18 43l-3 2q-18 19 -43 20h-8q-25 -1 -44 -18l-1 -2q-20 -18 -21 -44v-601 q0 -53 -38 -92q-39 -38 -92 -38q-54 0 -93 38q-38 39 -38 92l1 606q-3 22 -21 39q-19 20 -70 20h18q-26 -1 -44 -20l-3 -2q-17 -19 -18 -43v-600q0 -53 -38 -92q-37 -38 -92 -38t-92 38q-38 39 -38 92z" />
<glyph unicode="&#x25fc;" horiz-adv-x="1425" d="M0 0v1425h1425v-1425h-1425z" />
</font>
</defs>
</svg>
