<?xml version="1.0" standalone="no"?>
<!DOCTYPE svg PUBLIC "-//W3C//DTD SVG 1.1//EN" "http://www.w3.org/Graphics/SVG/1.1/DTD/svg11.dtd" >
<svg xmlns="http://www.w3.org/2000/svg">
<metadata></metadata>
<defs>
<font id="rulerregular" horiz-adv-x="1100" >
<font-face units-per-em="2048" ascent="1638" descent="-410" />
<missing-glyph horiz-adv-x="600" />
<glyph horiz-adv-x="1245" />
<glyph horiz-adv-x="1245" />
<glyph unicode="&#xd;" horiz-adv-x="549" />
<glyph unicode=" "  horiz-adv-x="600" />
<glyph unicode="&#x09;" horiz-adv-x="600" />
<glyph unicode="&#xa0;" horiz-adv-x="600" />
<glyph unicode="!" horiz-adv-x="507" d="M0 100q0 43 30.5 73.5t73.5 30.5q42 0 72.5 -30.5t30.5 -73.5t-30.5 -73t-72.5 -30q-43 0 -73.5 30t-30.5 73zM1 506v1388q0 44 30 75t73 31q42 0 72 -31t30 -75v-1388q0 -44 -30 -75t-72 -31q-43 0 -73 31t-30 75z" />
<glyph unicode="&#x22;" horiz-adv-x="900" d="M0 1706v188q0 44 29 75q30 31 71 31t71 -31q29 -31 29 -75v-188q0 -44 -29 -75q-30 -31 -71 -31t-71 31q-29 31 -29 75zM400 1706v187q0 44 29 75q29 32 71 32q41 0 71 -32q29 -31 29 -75v-187q0 -44 -29 -75q-30 -31 -71 -31q-42 0 -71 31t-29 75z" />
<glyph unicode="#" horiz-adv-x="1406" d="M0 802q0 43 31 74t74 31h94v287h-94q-43 0 -74 30q-31 31 -31 75q0 43 31 74t74 31h94v491q0 43 31 74t74 31q44 0 75 -31t31 -74v-491h286v491q0 43 31 74t75 31q43 0 74 -31t31 -74v-491h93q44 0 75 -31t31 -74q0 -44 -31 -75q-31 -30 -75 -30h-93v-287h93q44 0 75 -31 t31 -74q0 -44 -31 -75t-75 -31h-93v-590q0 -44 -31 -75t-74 -31q-44 0 -75 31t-31 75v590h-286v-590q0 -44 -31 -75t-75 -31q-43 0 -74 31t-31 75v590h-94q-43 0 -74 31t-31 75zM410 907h286v287h-286v-287z" />
<glyph unicode="$" horiz-adv-x="1128" d="M0 401v2q0 43 31 74t74 31q44 0 75 -31t31 -74v-3q0 -79 57 -134q55 -55 131 -57h13q75 4 129 58q56 56 57 133h-1v3l1 3v8q2 32 2 62q0 186 -83 328q-57 98 -214 243q-154 143 -210 228q-93 142 -93 322v3h1l-1 1q2 163 118 280q75 75 181 104v109q0 44 30 75 q31 31 75 31q43 0 74 -31t31 -75v-108q104 -29 179 -103q113 -113 119 -271l1 -14v-1q0 -44 -31 -75t-75 -31q-43 0 -74 31t-31 75v1l1 3v2q-3 76 -58 131q-56 55 -133 56h-6q-78 -1 -134 -57q-55 -57 -57 -133l1 -3q0 -119 72 -222q44 -63 164 -175q192 -178 262 -301 q102 -178 102 -415q0 -40 -3 -81v-3l-1 -5v-3q-4 -159 -117 -273q-78 -78 -181 -106v-108q0 -44 -31 -75q-31 -30 -74 -30q-44 0 -75 30q-30 31 -30 75v109q-105 28 -180 103q-112 112 -118 271z" />
<glyph unicode="%" horiz-adv-x="2101" d="M0 1593l1 1h-1v4l1 13q5 160 118 272q117 116 281 117h5l13 -1q159 -5 271 -118q116 -116 117 -280v-1h1v-4l-1 -15q-6 -157 -118 -270q-117 -116 -281 -117h-19q-158 6 -270 119q-116 116 -118 280zM210 1594q1 -78 56 -133t131 -57h9q78 0 134 56q54 55 57 130v3l-1 3 v4h1q-1 78 -57 133q-55 56 -134 57h-6q-77 -1 -133 -56q-55 -55 -57 -134v-6zM596 105q0 11 3 23l398 1790q9 42 46 66q26 17 55 17q12 0 24 -3q42 -10 65 -46q17 -26 17 -55q0 -12 -3 -24l-397 -1790q-9 -42 -46 -66q-27 -17 -56 -17q-11 0 -23 3q-42 9 -66 46 q-17 27 -17 56zM994 400l1 1h-1v4l1 12q5 161 118 273q116 115 280 117h6l13 -1q159 -5 271 -118q116 -116 117 -280v-1h1v-4l-1 -15q-6 -157 -118 -270q-117 -116 -281 -117h-1v-1h-4l-14 1q-158 6 -270 119q-116 116 -118 280zM1204 401q1 -78 56 -133t131 -58h2l3 1h4v-1 q78 1 134 57q54 55 57 130v3l-1 3v4h1q-1 77 -57 133q-55 56 -134 57h-6q-77 -1 -133 -56t-57 -134v-6z" />
<glyph unicode="&#x26;" horiz-adv-x="1413" d="M0 499v7l1 12v3h1q3 95 37 175l3 6l9 21l2 3h-1q12 23 35 58l1 1l1 2l2 2l1 2v1l3 4l1 1l2 2l2 3q12 15 31 38l1 1l5 5l171 208l-44 73l-2 3q-162 261 -162 459v13q0 72 23 137l2 4q11 31 24 53q16 29 33 52l9 10q73 89 180 123l6 1l21 6l8 1v1l28 5l10 1l28 3h22 q78 0 151 -27h2l1 -1q62 -23 115 -67l3 -3l2 -2l1 -1l2 -1q91 -81 121 -200q13 -52 13 -103q0 -70 -25 -139q-21 -58 -61 -108v-1h-1l-1 -2l-1 -1v-1l-3 -3l-1 -2l-248 -301l276 -461l62 163q15 41 54 59q22 10 44 10q18 0 36 -7q41 -15 59 -55q10 -22 10 -44q0 -18 -7 -36 l-120 -320l112 -186q15 -25 15 -52q0 -14 -4 -28q-10 -42 -47 -64q-26 -15 -54 -15q-13 0 -26 3q-42 11 -64 48l-56 92q-146 -143 -351 -143h-2q-208 1 -354 148q-145 145 -147 351zM210 500q1 -119 86 -204q85 -86 205 -86h2q121 0 207 85v1q16 16 30 35l1 2l-319 530 l-111 -135q-7 -10 -15 -19l-2 -2l-2 -2l-1 -1l-28 -34l-2 -2q-11 -17 -20 -36h-1l-3 -7l-4 -9q-22 -53 -23 -110v-6zM309 1590q0 -138 128 -345l6 -9l6 -10l193 234l9 12q21 25 32 55v1q12 33 12 67q0 25 -6 50q-15 60 -60 98q-25 21 -56 32q-39 14 -81 14h-5l-21 -2l-23 -4 l-8 -2q-49 -15 -82 -56l-3 -3q-11 -14 -17 -26l-9 -20v-2l-2 -4l-1 -1q-12 -35 -12 -72v-7z" />
<glyph unicode="'" horiz-adv-x="500" d="M0 1706v188q0 44 29 75q30 31 71 31t71 -31q29 -31 29 -75v-188q0 -44 -29 -75q-30 -31 -71 -31t-71 31q-29 31 -29 75z" />
<glyph unicode="(" horiz-adv-x="817" d="M0 1000q0 522 310 1142q20 39 61 53q17 5 33 5q24 0 47 -11q39 -20 52 -61q6 -17 6 -34q0 -24 -11 -46q-287 -574 -287 -1048q0 -473 287 -1047q11 -22 11 -46q0 -17 -6 -34q-13 -42 -52 -61q-23 -12 -47 -12q-16 0 -33 6q-41 14 -61 53q-310 620 -310 1141z" />
<glyph unicode=")" horiz-adv-x="817" d="M8 -93q0 24 11 46q287 574 287 1047q0 474 -287 1048q-11 22 -11 46q0 17 6 34q13 41 52 61q23 11 47 11q16 0 33 -5q42 -14 61 -53q310 -620 310 -1142q0 -521 -310 -1141q-19 -39 -61 -53q-17 -6 -33 -6q-24 0 -47 12q-39 19 -52 61q-6 17 -6 34z" />
<glyph unicode="*" horiz-adv-x="791" d="M0 1614q0 43 31 74l66 66l-66 67q-31 30 -31 74t31 74q30 31 74 31t74 -31l67 -66l66 66q31 31 74 31q44 0 74 -31q31 -30 31 -74t-31 -74l-66 -67l66 -66q31 -31 31 -74q0 -44 -31 -75q-30 -30 -74 -30q-43 0 -74 30l-66 67l-67 -67q-30 -30 -74 -30t-74 30 q-31 31 -31 75z" />
<glyph unicode="+" horiz-adv-x="1107" d="M0 1005q0 43 31 74t74 31h195v185q0 43 31 74t74 31q44 0 75 -31t31 -74v-185h191q43 0 74 -31t31 -74q0 -44 -31 -75t-74 -31h-191v-201q0 -43 -31 -74t-75 -31q-43 0 -74 31t-31 74v201h-195q-43 0 -74 31t-31 75z" />
<glyph unicode="," horiz-adv-x="500" d="M0 93q0 44 29 75q30 31 71 31t71 -31q29 -31 29 -75v-188q0 -44 -29 -75q-30 -31 -71 -31t-71 31q-29 31 -29 75v188z" />
<glyph unicode="-" horiz-adv-x="907" d="M0 995q0 44 31 74q31 31 74 31h397q43 0 74 -31q31 -30 31 -74t-31 -74q-31 -31 -74 -31h-397q-43 0 -74 31q-31 30 -31 74z" />
<glyph unicode="." horiz-adv-x="507" d="M0 100q0 43 30.5 73.5t73.5 30.5q42 0 72.5 -30.5t30.5 -73.5t-30.5 -73t-72.5 -30q-43 0 -73.5 30t-30.5 73z" />
<glyph unicode="/" horiz-adv-x="921" d="M6 104q0 11 3 23l398 1790q9 42 46 66q26 17 55 17q12 0 24 -3q42 -10 66 -46q17 -27 17 -56q0 -11 -3 -23l-398 -1790q-9 -42 -46 -66q-27 -17 -56 -17q-11 0 -23 3q-42 9 -66 46q-17 27 -17 56z" />
<glyph unicode="0" d="M0 400l1 1h-1v1197l1 13q5 159 117 272q116 116 278 117h5l14 -1q157 -5 268 -118q115 -117 117 -280v-1213q-7 -157 -118 -269l-9 -9q-115 -108 -269 -109h-1v-1h-4l-14 1q-156 6 -268 119q-115 117 -117 280zM208 401q1 -77 56 -133q54 -55 130 -58h2l3 1h4v-1 q73 1 127 52l5 6q54 55 57 129v3l-1 3v1197h1q-1 77 -56 133q-56 56 -133 57h-6q-77 -1 -132 -56q-55 -56 -56 -134v-1199h-1z" />
<glyph unicode="1" d="M0 105q0 44 31 74q30 31 73 31h192v1579h-192q-43 0 -73 31q-31 31 -31 75q0 43 31 74q30 31 73 31h296q43 0 74 -31q30 -31 30 -74v-1685h192q43 0 73 -31q31 -30 31 -74t-31 -74q-30 -31 -73 -31h-592q-43 0 -73 31q-31 30 -31 74z" />
<glyph unicode="2" horiz-adv-x="1107" d="M0 105q0 444 95 659q60 136 243 300q107 96 164 163v1q66 75 83 155q12 56 12 213v3q-1 77 -57 133q-56 57 -134 57h-5v1q-78 -1 -134 -57q-55 -55 -57 -134v-202q0 -43 -30 -74q-31 -31 -75 -31q-43 0 -74 31t-31 74v201l1 12q5 159 118 272q117 116 281 117h1v1h4 l13 -1q158 -6 271 -119q116 -117 118 -280v-4q0 -202 -17 -277q-26 -108 -123 -222l-2 -2l-1 -2l-2 -2l-1 -1l-2 -2v-1l-1 -1l-2 -2q-58 -67 -178 -176q-136 -122 -183 -221q-74 -158 -83 -477h490q43 0 74 -31q31 -30 31 -74t-31 -74q-31 -31 -74 -31h-597q-43 0 -74 31 q-31 30 -31 74z" />
<glyph unicode="3" horiz-adv-x="1106" d="M0 399l1 1h-1v3q0 44 31 74q31 31 74 31q44 0 74 -31q31 -30 31 -74v-3q1 -77 56 -133q55 -55 131 -57h9q73 1 128 51l5 6q55 55 57 129v408q-1 76 -56 132q-57 57 -134 58h-3q-43 0 -74 31t-31 74q0 44 31 74q31 31 74 31h4q76 1 132 57q55 54 57 129v209q-1 77 -56 133 q-56 56 -134 57h-6q-77 0 -133 -56q-56 -55 -57 -134v-3q0 -43 -31 -74q-30 -31 -74 -31q-43 0 -74 31t-31 74v2l1 12q5 159 118 272q117 116 280 117h1v1h4l14 -1q158 -6 270 -119q116 -117 118 -280v-219q-7 -156 -119 -268v-1l-14 -13l15 -15q116 -117 118 -279v-418 q-7 -157 -119 -269l-9 -9q-116 -107 -271 -109h-19q-158 6 -270 119q-116 117 -118 280z" />
<glyph unicode="4" horiz-adv-x="1114" d="M7 701q0 13 3 26l299 1193q10 42 48 65q25 15 52 15q13 0 27 -4q42 -10 64 -47q16 -26 16 -53q0 -13 -4 -27l-265 -1062h357v690q0 44 31 74q30 31 74 31q43 0 74 -31q31 -30 31 -74v-1392q0 -44 -31 -74q-31 -31 -74 -31q-44 0 -74 31q-31 30 -31 74v491h-486 q-15 0 -31 4q-42 10 -65 48q-15 25 -15 53z" />
<glyph unicode="5" horiz-adv-x="1114" d="M0 994v900q0 44 31 75t75 31h600q44 0 75 -31t31 -75t-31 -75t-75 -31h-494v-529l17 9h1l4 3q73 35 156 38l16 2h5v-1h1q164 -1 282 -118q114 -113 120 -272v-531q-6 -158 -120 -271q-117 -116 -282 -118h-20q-82 4 -158 39l-11 7l-21 11l-9 6q-90 57 -141 150 q-13 23 -13 48q0 16 5 32q12 42 50 62q24 13 50 13q15 0 30 -4q42 -12 63 -51q25 -44 67 -72l21 -11q38 -18 76 -19h10q78 1 134 57q55 55 58 130v3l-1 3v502l1 3v2q-3 77 -58 132q-56 55 -134 56h-6q-41 -1 -80 -19h-1l-17 -10q-45 -27 -70 -73q-11 -20 -30 -34 q-23 -75 -101 -75q-44 0 -75 31t-31 75z" />
<glyph unicode="6" d="M0 399v1213q6 157 118 270q116 116 278 117h1v1h6l13 -1q81 -3 155 -39l12 -6l20 -11l10 -6q88 -57 138 -149q13 -23 13 -48q0 -16 -5 -32q-12 -42 -49 -62q-24 -13 -50 -13q-15 0 -30 4q-41 13 -61 51q-25 44 -66 71l-21 12q-37 17 -75 19h-2l-2 -1h-6v1 q-76 -1 -132 -57q-54 -55 -57 -130v-2l1 -3v-245q88 49 187 50h19q156 -6 268 -119q115 -117 117 -281v-601l-1 -12q-5 -160 -117 -272q-116 -117 -278 -118h-5l-14 1q-157 5 -268 118q-115 117 -117 280zM208 400q1 -77 56 -133q56 -56 133 -57h6q77 1 132 56q55 56 56 134 l1 603q-1 77 -56 133q-54 55 -130 57h-9q-77 -1 -132 -57q-50 -50 -56 -118v-618h-1z" />
<glyph unicode="7" horiz-adv-x="1107" d="M0 1895q0 43 31 74t74 31h597q43 0 74 -31t31 -74q0 -20 -6 -36l-395 -1777q-9 -42 -46 -65q-25 -17 -54 -17q-12 0 -25 3q-42 9 -65 46q-17 25 -17 54q0 12 3 25l369 1662h-466q-43 0 -74 30q-31 31 -31 75z" />
<glyph unicode="8" horiz-adv-x="1107" d="M0 399l1 1h-1v402l1 12q5 160 118 272l14 13l-15 14q-116 117 -118 281l1 1h-1v203l1 12q5 159 118 272q117 116 281 117h1v1h4l13 -1q159 -6 271 -119q116 -117 118 -280v-219q-7 -156 -119 -268l-14 -14l15 -14q116 -117 118 -280v-418q-7 -156 -119 -269l-9 -9 q-116 -107 -272 -109h-19q-157 6 -270 119q-116 117 -118 280zM210 400q1 -77 57 -133q54 -55 130 -57h9q74 1 129 51l4 6q55 55 58 129v408q-1 76 -57 133q-56 56 -134 57h-17q-70 -5 -122 -56q-55 -56 -57 -134v-404zM210 1395q1 -78 57 -134q54 -55 130 -57h10 q76 1 132 57h1q54 55 57 130v208q-1 77 -57 133q-56 57 -134 57h-5v1q-78 -1 -134 -57q-55 -55 -57 -134v-204z" />
<glyph unicode="9" d="M0 996l1 1h-1v601l1 12q5 159 117 272q116 116 278 117h1v1h4l14 -1q157 -6 268 -119q115 -117 117 -280v-1213q-6 -157 -118 -269q-116 -116 -278 -118h-20q-81 4 -155 39l-12 6l-20 12l-10 5q-88 57 -138 149q-13 23 -13 48q0 16 5 32q12 42 49 63q24 13 49 13 q15 0 31 -5q41 -12 61 -50q25 -45 66 -72l21 -11q37 -18 75 -19h10q76 0 132 56q54 55 57 130v3l-1 3v244q-88 -49 -187 -49h-1v-1h-4l-14 1q-156 6 -268 118q-115 117 -117 281zM208 997q1 -78 56 -134q54 -54 130 -57h2l3 1h4v-1q77 1 132 57q50 50 56 119v617h1 q-1 77 -56 133q-56 56 -133 57h-6q-77 0 -132 -56q-55 -55 -56 -134z" />
<glyph unicode=":" horiz-adv-x="507" d="M0 500q0 43 30.5 73.5t73.5 30.5t73 -30.5t30 -73.5t-30 -73t-73 -30t-73.5 30t-30.5 73zM0 1300q0 43 30.5 73.5t73.5 30.5q42 0 72.5 -30.5t30.5 -73.5t-30.5 -73t-72.5 -30q-43 0 -73.5 30t-30.5 73z" />
<glyph unicode=";" horiz-adv-x="507" d="M0 1300q0 43 30.5 73.5t73.5 30.5q42 0 72.5 -30.5t30.5 -73.5t-30.5 -73t-72.5 -30q-43 0 -73.5 30t-30.5 73zM4 93q0 44 29 75t71 31q41 0 70 -31q30 -31 30 -75v-188q0 -44 -30 -75q-29 -31 -70 -31q-42 0 -71 31t-29 75v188z" />
<glyph unicode="&#x3c;" horiz-adv-x="932" d="M0 1000q0 44 31 75l421 422q31 30 75 30q43 0 74 -30q31 -31 31 -75q0 -43 -31 -74l-347 -348l347 -347q30 -30 30 -74v-3q0 -41 -30 -71q-31 -31 -74 -31q-44 0 -74 31l-417 416l-5 5q-31 31 -31 74z" />
<glyph unicode="=" horiz-adv-x="1114" d="M0 796q0 42 31 73q31 30 74 30h597q43 0 74 -30q31 -31 31 -73t-31 -72t-74 -30h-597q-43 0 -74 30t-31 72zM7 1205q0 42 31 72t74 30h597q44 0 74 -30q31 -30 31 -72q0 -43 -31 -73q-30 -30 -74 -30h-597q-43 0 -74 30t-31 73z" />
<glyph unicode="&#x3e;" horiz-adv-x="932" d="M0 579q0 44 31 74l347 347l-347 348q-31 31 -31 74q0 44 31 75q30 30 74 30t74 -30l422 -422q31 -31 31 -75q0 -43 -31 -74l-5 -5l-417 -416q-31 -31 -74 -31q-44 0 -74 31q-31 31 -31 74z" />
<glyph unicode="?" d="M0 1398v200l1 12q5 160 117 272q116 116 278 118h5l14 -1q156 -5 268 -119q115 -117 117 -279v-4q0 -204 -18 -279q-26 -108 -125 -225l-2 -2l-2 -2q-104 -131 -132 -244q-17 -69 -17 -227v-114q0 -44 -30 -74q-31 -31 -74 -31t-73 30q-31 31 -31 74v113q0 204 23 293 q37 143 175 315l2 2l1 2h1l1 2q64 75 81 154q11 56 11 213v3h1q-1 76 -56 133q-56 56 -133 57h-6q-77 -1 -132 -56q-55 -56 -56 -135v-201q0 -44 -31 -74q-31 -31 -74 -31t-73 31q-31 30 -31 74zM297 100q0 43 30 73.5t73 30.5t73.5 -30.5t30.5 -73.5t-30.5 -73t-73.5 -30 t-73 30t-30 73z" />
<glyph unicode="@" horiz-adv-x="2300" d="M0 797v5q1 413 294 706q291 291 703 292h4q414 -1 706 -293q291 -292 293 -704v-3q0 -186 -79 -326q-71 -126 -192 -190q-92 -49 -194 -49h-2q-189 0 -313 150l-14 17l-3 -4l-8 -7l-1 -2h-1q-97 -90 -229 -91h-1v-1h-4l-14 1q-134 6 -228 101q-99 99 -100 238v1h-1v5 l2 12q5 136 100 230q99 98 238 100l1 -1v1h5l14 -1q60 -3 118 -27v48q-3 52 -40 89t-91 39h-3q-46 0 -83 -17q-39 -18 -75 -54q-31 -31 -74 -32q-44 0 -75 30q-31 31 -31 74q0 44 30 75q63 64 140 98q80 36 168 36h3v-1l1 1q139 -2 238 -101q96 -94 102 -228v-260 q7 -150 78 -235q62 -75 153 -75q49 0 97 26q158 83 158 330v3q-1 325 -231 556q-231 231 -558 231h-4q-325 -1 -555 -231q-232 -231 -232 -557v-5q1 -324 231 -555q231 -231 558 -232v1h1q58 0 110 7h4l2 1l21 3l26 6v-1l8 2q12 3 24 3q29 0 55 -17q37 -23 46 -65 q3 -13 3 -25q0 -29 -16 -54q-24 -37 -66 -47l-10 -2l-3 -1h-1l-6 -1h-1l-3 -1l-16 -3l-14 -2l-16 -3l-3 -1h-5q-68 -10 -139 -10h-1v1q-414 0 -706 293q-291 292 -293 703zM827 638q1 -53 39 -91q37 -37 88 -40h2l3 1h4v-1q51 2 89 38l2 2q37 37 40 87v10q-1 53 -39 91 t-91 40h-7q-53 -1 -91 -39t-39 -92v-6z" />
<glyph unicode="A" d="M0 105v1494l1 12q5 159 117 271q116 116 278 118h5l14 -1q157 -5 268 -119q115 -117 117 -279v-1496q0 -43 -31 -74q-30 -31 -73 -31t-74 31t-31 74v895h-382v-895q0 -43 -31 -74t-74 -31t-73 31q-31 31 -31 74zM209 1200h382v400h1q-1 76 -57 133q-56 56 -132 57h-6 q-77 0 -132 -56q-55 -55 -56 -134v-400z" />
<glyph unicode="B" horiz-adv-x="1108" d="M0 399l1 1h-1v1198l1 12q5 159 118 272q117 116 281 117h1v1h4l14 -1q158 -6 271 -119q116 -117 118 -280v-219q-7 -156 -119 -268v-1l-14 -13l15 -15q116 -117 118 -279v-418q-7 -157 -119 -269l-10 -9q-115 -107 -271 -109h-19q-158 6 -271 119q-116 117 -118 280z M210 400q1 -77 57 -133q55 -55 131 -57h9q73 1 128 51l5 6q55 55 58 129v3l-1 3v402h1q-1 76 -57 132q-56 57 -134 58h-196v-594h-1zM211 1204h203q73 4 126 57q55 54 58 129v3l-1 3v203h1q-1 77 -57 133t-134 57h-6q-77 0 -133 -56q-56 -55 -57 -134v-395z" />
<glyph unicode="C" horiz-adv-x="1077" d="M0 401v1198l1 12q5 159 118 271q116 116 280 118h6l16 -1q81 -4 154 -38l5 -3l4 -2l1 -1l22 -12l5 -3l4 -2l1 -1q89 -56 139 -148q13 -23 13 -48q0 -16 -5 -32q-12 -41 -50 -62q-23 -13 -48 -13q-15 0 -31 5q-42 12 -63 50q-24 45 -68 72l-19 10v1q-37 17 -79 18h-6 q-78 0 -133 -56q-56 -55 -57 -134v-1200q1 -78 57 -134t133 -56h11q37 1 74 19l22 12h1q40 26 64 70q21 38 63 51q15 4 29 4q26 0 50 -13q38 -21 50 -62q5 -16 5 -32q0 -25 -13 -48q-50 -91 -136 -147l-13 -7l-15 -8q-4 -3 -17 -10q-75 -35 -155 -38l-15 -1h-5v1h-1 q-164 1 -280 117q-112 112 -118 270z" />
<glyph unicode="D" horiz-adv-x="1107" d="M0 106v1789q0 44 31 75q31 30 74 30h200l12 -1q201 -5 343 -147q141 -141 146 -341l1 -11v-1000l-1 -10q-5 -200 -146 -342q-142 -142 -343 -147h-12v-1h-200q-43 0 -74 31t-31 75zM210 211h98q119 1 203 85t86 201v3h-1v1000h1v4q-3 117 -86 200q-84 85 -203 86h-98 v-1579z" />
<glyph unicode="E" horiz-adv-x="1077" d="M0 401v1198l1 12q5 159 118 271q116 116 280 118h6l16 -1q81 -4 154 -38l5 -3l4 -2l1 -1l22 -12l5 -3l4 -2l1 -1q89 -56 139 -148q13 -23 13 -48q0 -16 -5 -32q-12 -41 -50 -62q-23 -13 -48 -13q-15 0 -31 5q-42 12 -63 50q-24 45 -68 72l-19 10v1q-37 17 -79 18h-6 q-78 0 -133 -56q-56 -55 -57 -134v-1200q1 -78 57 -134t133 -56h11q37 1 74 19l22 12h1q40 26 64 70q21 38 63 51q15 4 29 4q26 0 50 -13q38 -21 50 -62q5 -16 5 -32q0 -25 -13 -48q-50 -91 -136 -147l-13 -7l-15 -8q-4 -3 -17 -10q-75 -35 -155 -38l-15 -1h-5v1h-1 q-164 1 -280 117q-112 112 -118 270zM100 995q0 44 31 74q31 31 74 31h397q43 0 74 -31q31 -30 31 -74t-31 -74q-31 -31 -74 -31h-397q-43 0 -74 31q-31 30 -31 74z" />
<glyph unicode="F" horiz-adv-x="1077" d="M0 105v1494l1 12q5 159 118 271q116 116 280 118h6l16 -1q81 -4 154 -38l5 -3l4 -2l1 -1l22 -12l5 -3l4 -2l1 -1q89 -56 139 -148q13 -23 13 -48q0 -16 -5 -32q-12 -41 -50 -62q-23 -13 -48 -13q-15 0 -31 5q-42 12 -63 50q-24 45 -68 72l-19 10v1q-37 17 -79 18h-6 q-78 0 -133 -56q-56 -55 -57 -134v-500h392q43 0 74 -31q31 -30 31 -74t-31 -74q-31 -31 -74 -31h-392v-785q0 -43 -31 -74q-30 -31 -74 -31t-74 31q-31 31 -31 74z" />
<glyph unicode="G" horiz-adv-x="1107" d="M0 400v1198l1 12q5 160 118 272q117 116 281 118h6l16 -1q81 -4 154 -38l5 -3l4 -2l1 -1l22 -12l5 -3l4 -2l1 -1q89 -56 139 -148q13 -24 13 -50q0 -15 -4 -30q-13 -42 -51 -63q-24 -12 -49 -12q-15 0 -30 4q-42 12 -63 50q-24 45 -68 73l-19 10q-37 18 -79 19h-7 q-77 -1 -133 -56q-55 -56 -57 -135v-1199q1 -77 56 -133q55 -54 131 -57h3l2 1h4v-1q78 1 134 57q53 53 56 129v599h-93q-44 0 -75 31q-30 31 -30 74q0 44 30 75q31 30 75 30h198q44 0 75 -30q31 -31 31 -75v-698l-1 -14q-6 -157 -118 -270q-117 -116 -281 -117h-1v-1h-4 l-14 1q-158 6 -270 118q-112 113 -117 273z" />
<glyph unicode="H" d="M0 107v1787q0 44 29 75q30 31 71 31t71 -31q29 -31 29 -75v-694h400v694q0 44 30 75q29 31 70 31q42 0 71 -31t29 -75v-1788q0 -44 -29 -75t-71 -31q-41 0 -70 31q-30 31 -30 75v894h-400v-893q0 -44 -29 -76q-30 -31 -71 -31t-71 31q-29 32 -29 76z" />
<glyph unicode="I" horiz-adv-x="505" d="M0 107v1787q0 44 30 75t73 31q42 0 72 -31t30 -75v-1787q0 -44 -30 -76q-30 -31 -72 -31q-43 0 -73 31q-30 32 -30 76z" />
<glyph unicode="J" horiz-adv-x="1078" d="M8 262q0 14 4 29q13 42 51 63q23 13 48 13q15 0 31 -5q42 -12 63 -50q24 -44 66 -72l21 -11q37 -17 75 -19h11q77 1 133 57q55 54 57 129v1394h-293q-43 0 -74 30q-31 31 -31 75q0 43 31 74t74 31h398q43 0 74 -31t31 -74v-1493l-1 -15q-6 -156 -118 -269 q-117 -116 -281 -118h-20q-81 4 -156 39l-12 7l-20 11l-10 6q-89 56 -139 149q-13 24 -13 50z" />
<glyph unicode="K" horiz-adv-x="1214" d="M0 105v1789q0 44 31 75t74 31q44 0 75 -31q30 -31 30 -75v-660l505 721q25 35 68 43q9 2 18 2q32 0 60 -20q35 -24 43 -67q2 -10 2 -20q0 -32 -19 -59l-486 -694l494 -988q11 -22 11 -46q0 -17 -6 -34q-13 -41 -52 -61q-23 -11 -47 -11q-16 0 -33 5q-41 14 -61 53 l-443 887l-54 -77v-763q0 -44 -30 -75q-31 -30 -75 -30q-43 0 -74 30q-31 31 -31 75z" />
<glyph unicode="L" horiz-adv-x="1009" d="M0 105v1789q0 44 31 75t74 31q44 0 75 -31t31 -75v-1684h393q43 0 74 -31t31 -74q0 -44 -31 -75q-31 -30 -74 -30h-499q-43 0 -74 30q-31 31 -31 75z" />
<glyph unicode="M" horiz-adv-x="1700" d="M0 105v1494l1 12q5 159 117 271q116 116 278 118h5l14 -1q157 -5 268 -119q9 -9 17 -18q9 11 19 21q115 115 278 117h5l13 -1q157 -5 269 -119q115 -116 116 -279v-1496q0 -43 -30 -74q-31 -31 -74 -31t-74 31q-30 31 -30 74v1496q-1 75 -56 132q-56 56 -133 57l-6 1 q-76 -1 -132 -57q-55 -55 -56 -134v-1495q0 -43 -31 -74q-30 -31 -73 -31h-9q-43 0 -74 31t-31 74v1495h1q-1 76 -57 133q-56 56 -132 57h-6q-77 0 -132 -56q-55 -55 -56 -134v-1495q0 -43 -31 -74t-74 -31t-73 31q-31 31 -31 74z" />
<glyph unicode="N" d="M0 105v1494l1 12q5 159 117 271q116 116 278 118h5l14 -1q157 -5 268 -119q115 -117 117 -279v-1496q0 -43 -31 -74q-30 -31 -73 -31t-74 31t-31 74v1495h1q-1 76 -57 133q-56 56 -132 57h-6q-77 0 -132 -56q-55 -55 -56 -134v-1495q0 -43 -31 -74t-74 -31t-73 31 q-31 31 -31 74z" />
<glyph unicode="O" d="M0 400l1 1h-1v1197l1 13q5 159 117 272q116 116 278 117h5l14 -1q157 -5 268 -118q115 -117 117 -280v-1213q-7 -157 -118 -269l-9 -9q-115 -108 -269 -109h-1v-1h-4l-14 1q-156 6 -268 119q-115 117 -117 280zM208 401q1 -77 56 -133q54 -55 130 -58h2l3 1h4v-1 q73 1 127 52l5 6q54 55 57 129v3l-1 3v1197h1q-1 77 -56 133q-56 56 -133 57h-6q-77 -1 -132 -56q-55 -56 -56 -134v-1199h-1z" />
<glyph unicode="P" d="M0 104v1495h1l-1 1q2 163 117 280q112 113 268 119h19q162 -1 278 -118q112 -112 118 -269v-617q-2 -163 -117 -280q-111 -113 -268 -118l-14 -1h-5q-101 1 -188 50v-542q0 -43 -30 -74q-31 -31 -74 -31t-73 31q-31 31 -31 74zM208 1599h1v-602q1 -79 56 -135 q55 -55 132 -56h6q77 1 133 57q55 56 56 133h-1v601l1 3v3q-3 75 -57 130q-55 56 -132 56h-9q-76 -2 -130 -57q-55 -56 -56 -133z" />
<glyph unicode="Q" horiz-adv-x="1115" d="M0 398l1 1h-1v1198l1 12q5 159 118 272q117 116 281 117v1h5l13 -1q159 -6 271 -119q116 -117 118 -280v-1213q-7 -157 -119 -269l-10 -9q-22 -22 -53 -42l126 -69q39 -20 51 -62q5 -16 5 -32q0 -25 -13 -48q-20 -38 -62 -50q-16 -5 -32 -5q-25 0 -48 13l-405 218h-1 q-74 32 -128 87q-116 117 -118 280zM210 399q1 -77 57 -133q54 -55 130 -57h9q74 1 129 51l4 6q55 55 58 129v1203q-1 77 -57 133t-134 57h-6v1q-77 -1 -133 -57q-55 -55 -57 -134v-1199z" />
<glyph unicode="R" horiz-adv-x="1106" d="M0 103v1495l1 12q5 159 118 272q117 116 280 118l1 -1v1h4l14 -1q158 -5 270 -119q116 -117 118 -280v-419q-6 -156 -119 -268l-14 -13l15 -16h1q115 -117 117 -279v-500q0 -43 -31 -74q-30 -31 -74 -31q-43 0 -74 31t-31 74v499q-1 76 -57 132l1 1q-56 56 -134 57h-196 v-691q0 -43 -31 -74q-31 -30 -74 -30t-74 30q-31 31 -31 74zM210 1005h198q75 1 131 56q55 55 57 130v408q0 77 -56 133q-56 57 -134 58h-6q-77 -1 -133 -57q-56 -55 -57 -134v-594z" />
<glyph unicode="S" horiz-adv-x="1131" d="M0 402v1q0 44 31 75t74 31q44 0 74 -31q31 -31 31 -75v-3q1 -78 57 -133q56 -56 133 -57h10q75 3 130 58q56 56 56 132v3l1 14q3 37 3 72q0 168 -78 303q-57 96 -213 244t-214 235q-95 146 -95 325v3h1l-1 1q2 163 117 280h1q112 114 272 119l12 1h4v-1l1 1 q163 -2 280 -118q113 -113 119 -270v-16q0 -43 -31 -74q-30 -31 -74 -31q-43 0 -74 31t-31 74v7q-2 76 -57 130q-56 56 -133 57h-5q-79 -2 -134 -58q-56 -56 -57 -133v-3q0 -119 75 -227q45 -64 168 -180q192 -182 262 -304q95 -169 95 -388q0 -47 -4 -96v-4 q-3 -161 -118 -277q-113 -114 -269 -120h-20q-163 2 -280 118q-112 112 -118 271z" />
<glyph unicode="T" horiz-adv-x="1107" d="M0 1895q0 43 31 74t74 31h597q43 0 74 -31t31 -74q0 -44 -31 -75q-31 -30 -74 -30h-194v-1685q0 -43 -31 -74q-30 -31 -74 -31q-43 0 -74 31t-31 74v1685h-193q-43 0 -74 30q-31 31 -31 75z" />
<glyph unicode="U" d="M0 401v1494q0 44 31 74q30 31 73 31t74 -31q31 -30 31 -74v-1495q1 -79 56 -134t132 -56h6q76 1 132 58q56 56 57 132h-1v1495q0 44 31 74q31 31 74 31t73 -31q31 -30 31 -74v-1496q-2 -162 -117 -279q-111 -114 -268 -119l-14 -1h-4v1h-1q-162 1 -278 117 q-112 112 -117 271z" />
<glyph unicode="V" horiz-adv-x="1319" d="M6 1895q0 29 17 56q24 37 66 46q12 3 23 3q29 0 56 -17q37 -23 46 -66l296 -1329l295 1329q9 43 46 66q27 17 56 17q11 0 23 -3q43 -9 66 -46q17 -27 17 -56q0 -11 -3 -23l-395 -1778q-8 -75 -83 -92q-12 -3 -23 -3q-29 0 -56 17q-37 24 -46 66l-398 1790q-3 12 -3 23z " />
<glyph unicode="W" horiz-adv-x="1700" d="M0 401v1494q0 43 31 74q30 31 73 31t74 -31t31 -74v-1495q1 -79 56 -134q55 -56 132 -56h6q76 1 132 57q56 57 57 133h-1v1495q0 43 31 74t74 31h9q43 0 73 -31q31 -31 31 -74v-1495q1 -79 56 -134q56 -56 132 -57l6 1q77 1 133 57q55 57 56 132v1496q0 43 30 74 q31 31 74 31t74 -31q30 -31 30 -74v-1496q-1 -163 -116 -279q-112 -114 -269 -119l-13 -1h-5q-163 2 -278 117q-10 10 -19 21q-8 -9 -17 -18q-111 -114 -268 -119l-14 -1h-5q-162 2 -278 118q-112 112 -117 271z" />
<glyph unicode="X" horiz-adv-x="1123" d="M8 104q0 17 6 34l287 862l-287 862q-6 17 -6 33q0 24 12 46q19 39 60 53q17 5 33 5q24 0 47 -11q39 -20 52 -61l199 -596l199 596q14 41 53 61q23 11 47 11q16 0 33 -5q41 -14 60 -53q12 -22 12 -46q0 -16 -6 -33l-287 -862l287 -862q6 -17 6 -34q0 -24 -12 -46 q-19 -39 -60 -53q-17 -5 -33 -5q-24 0 -47 11q-39 20 -53 61l-199 596l-199 -596q-13 -41 -52 -61q-23 -11 -47 -11q-16 0 -33 5q-41 14 -60 53q-12 22 -12 46z" />
<glyph unicode="Y" horiz-adv-x="1107" d="M0 799v1095q0 44 31 74q31 31 74 31q44 0 74 -31q31 -30 31 -74v-1096q1 -78 57 -134q55 -55 132 -56h13q74 3 128 58q56 57 57 132v1096q0 44 31 74q31 31 74 31t74 -31q31 -30 31 -74v-1097q-2 -161 -117 -278q-78 -79 -181 -107v-307q0 -44 -31 -75q-31 -30 -74 -30 q-44 0 -75 30q-31 31 -31 75v307q-104 29 -179 103q-112 112 -118 271z" />
<glyph unicode="Z" horiz-adv-x="1115" d="M8 104q0 17 6 34l550 1651h-451q-44 0 -74 31q-31 31 -31 74q0 44 31 75q30 31 74 31h597q43 0 74 -31t31 -75q0 -27 -11 -48l-546 -1636h452q43 0 74 -31t31 -74q0 -44 -31 -75q-31 -30 -74 -30h-597q-15 0 -33 5q-41 14 -60 53q-12 22 -12 46z" />
<glyph unicode="[" horiz-adv-x="710" d="M0 -94v2189q0 44 31 75q31 30 74 30h199q44 0 75 -30q31 -31 31 -75t-31 -74q-31 -31 -75 -31h-94v-1979h94q44 0 75 -31t31 -74q0 -44 -31 -75t-75 -31h-199v1q-43 0 -74 30q-31 31 -31 75z" />
<glyph unicode="\" horiz-adv-x="921" d="M6 1895q0 29 17 56q24 36 66 46q12 3 23 3q29 0 56 -17q37 -24 46 -66l398 -1790q3 -12 3 -23q0 -29 -17 -56q-24 -37 -66 -46q-12 -3 -24 -3q-29 0 -55 17q-37 24 -46 66l-398 1790q-3 12 -3 23z" />
<glyph unicode="]" horiz-adv-x="710" d="M0 -94q0 43 31 74t74 31h94v1979h-94q-43 0 -74 31q-31 30 -31 74t31 75q31 30 74 30h199q44 0 75 -30q31 -31 31 -75l-1 -15v-2174q0 -44 -30 -75q-31 -30 -75 -30v-1h-199q-43 0 -74 31t-31 75z" />
<glyph unicode="^" horiz-adv-x="1353" d="M0 1473q0 44 31 74l421 422q31 31 75 31q43 0 74 -31l5 -5l417 -417q30 -31 30 -74q0 -44 -31 -74q-30 -31 -74 -31q-43 0 -74 31l-347 347l-348 -347q-30 -31 -74 -31t-74 31q-31 31 -31 74z" />
<glyph unicode="_" horiz-adv-x="1107" d="M0 -105q0 44 31 74q31 31 74 31h597q43 0 74 -31q31 -30 31 -74t-31 -74q-31 -31 -74 -31h-597q-43 0 -74 31q-31 30 -31 74z" />
<glyph unicode="`" horiz-adv-x="611" d="M7 1900q0 12 3 25q10 42 45 62q23 13 48 13q14 0 29 -4q41 -12 63 -51l94 -162q15 -26 15 -54q0 -13 -3 -26q-10 -41 -46 -62q-22 -13 -45 -13q-15 0 -31 5q-41 12 -63 50l-94 162q-15 27 -15 55z" />
<glyph unicode="a" horiz-adv-x="1147" d="M0 399l1 1h-1v103l1 12q5 159 117 272q116 115 278 117h5l14 -1q92 -3 176 -49v145l1 2v3q-3 76 -57 130q-55 55 -132 56h-6q-41 -1 -79 -18l-1 -1l-17 -9q-44 -28 -69 -73q-20 -38 -61 -50q-16 -5 -32 -5q-25 0 -48 13q-37 21 -49 62q-5 16 -5 32q0 25 13 48 q49 91 139 148l4 3l5 3l27 15l5 3q71 34 153 37l15 2h6v-1l1 1q162 -2 278 -118q112 -112 118 -269v-627q-7 -156 -118 -268q-117 -116 -278 -118h-19q-156 6 -268 119q-115 117 -117 280zM208 400q1 -78 56 -133q54 -55 130 -58h2l3 1h4v-1q76 1 132 58q54 54 57 129v2 l-1 3v120q-7 67 -56 116q-55 56 -132 57h-6q-77 0 -132 -56q-55 -55 -56 -134v-104h-1z" />
<glyph unicode="b" d="M0 400l1 1h-1v1495q0 43 31 74q30 30 73 30t74 -30q30 -31 30 -74v-542q87 49 188 50h5l14 -1q157 -5 268 -118q115 -117 117 -281v-616q-6 -157 -118 -269q-116 -117 -278 -118h-1v-1h-4l-14 1q-156 6 -268 119q-115 117 -117 280zM208 401q1 -77 56 -133 q54 -55 130 -57h9q77 0 132 56q54 55 57 130v3l-1 3v601h1q-1 77 -56 133q-56 56 -133 57h-6q-77 -1 -132 -56q-55 -56 -56 -135v-602h-1z" />
<glyph unicode="c" horiz-adv-x="1077" d="M0 401v598l1 12q5 159 118 271q116 116 280 118h6l16 -1q81 -4 154 -38l5 -3l4 -2l1 -1l22 -12l5 -3l4 -2l1 -1q89 -56 139 -148q13 -23 13 -48q0 -16 -5 -32q-12 -41 -50 -62q-23 -13 -48 -13q-15 0 -31 5q-42 12 -63 50q-24 45 -68 72l-19 10v1q-37 17 -79 18h-6 q-78 0 -133 -56q-56 -55 -57 -134v-600q1 -78 57 -134t133 -56h11q37 1 74 19l22 12h1q40 26 64 70q21 38 63 51q15 4 29 4q26 0 50 -13q38 -21 50 -62q5 -16 5 -32q0 -25 -13 -48q-50 -91 -136 -147l-13 -7l-15 -8q-4 -3 -17 -10q-75 -35 -155 -38l-15 -1h-5v1h-1 q-164 1 -280 117q-112 112 -118 270z" />
<glyph unicode="d" d="M0 388v616q2 164 117 281q111 113 268 118l14 1h5q101 -1 188 -50v542q0 43 30 74q31 30 74 30t73 -30q31 -31 31 -74v-1495h-1l1 -1q-2 -163 -117 -280q-112 -113 -268 -119l-14 -1h-4v1h-1q-162 1 -278 118q-112 112 -118 269zM208 397q3 -75 57 -130q55 -56 132 -56h9 q76 2 130 57q55 56 56 133h-1v602q-1 79 -56 135q-55 55 -132 56h-6q-77 -1 -133 -57q-55 -56 -56 -133h1v-601l-1 -3v-3z" />
<glyph unicode="e" d="M0 387v627q7 156 118 268q117 116 278 118h19q156 -6 268 -119q115 -117 117 -280v-104l-1 -12q-5 -159 -117 -271q-116 -116 -278 -118l-1 1v-1h-4l-14 1q-92 3 -176 50v-146l-1 -2v-3q3 -76 57 -130q55 -55 132 -56h6q41 1 79 19h1l17 9q44 28 69 73q20 38 61 50 q16 5 32 5q25 0 48 -13q37 -21 49 -62q5 -16 5 -32q0 -25 -13 -48q-49 -91 -139 -148l-4 -3l-5 -3l-27 -15l-5 -3q-71 -34 -153 -37l-15 -2h-6v1l-1 -1q-162 2 -278 118q-112 112 -118 269zM208 1002l1 -3v-120q7 -67 56 -116q55 -56 132 -57h6q77 0 132 56q55 55 56 134 v105h1q-1 77 -56 132q-54 55 -130 58h-2l-3 -1h-4v1q-76 -1 -132 -58q-54 -54 -57 -128v-3z" />
<glyph unicode="f" horiz-adv-x="900" d="M0 1292q0 42 29 73q28 30 69 33v196l1 13q5 161 116 274q116 117 277 119h4q43 0 74 -31q30 -31 30 -75t-30 -75q-31 -31 -74 -31h-3q-76 -1 -132 -57q-55 -56 -56 -135v-198h191q43 0 74 -31q30 -31 30 -75t-30 -75q-31 -31 -74 -31h-191v-1080q0 -44 -30 -75t-73 -31 t-73 31q-31 31 -31 75v1080q-41 3 -69 33q-29 31 -29 73z" />
<glyph unicode="g" d="M0 396l1 1h-1v601l1 12q5 159 117 272q116 116 278 117h1v1h4l14 -1q157 -6 268 -119q115 -117 117 -280v-1213q-6 -157 -118 -269q-116 -116 -278 -118h-20q-81 4 -155 39l-12 6l-20 12l-10 5q-88 57 -138 149q-13 23 -13 48q0 16 5 32q12 42 49 63q24 13 49 13 q15 0 31 -5q41 -12 61 -50q25 -45 66 -72l21 -11q37 -18 75 -19h10q76 0 132 56q54 55 57 130v3l-1 3v244q-88 -49 -187 -49h-1v-1h-4l-14 1q-156 6 -268 118q-115 117 -117 281zM208 397q1 -78 56 -134q54 -54 130 -57h2l3 1h4v-1q77 1 132 57q50 50 56 119v617h1 q-1 77 -56 133q-56 56 -133 57h-6q-77 0 -132 -56q-55 -55 -56 -134z" />
<glyph unicode="h" d="M0 105v1789q0 44 31 75q30 31 73 31t74 -31q30 -31 30 -75v-541q89 49 188 50l1 -1v1h5l13 -1q157 -5 269 -119q114 -117 116 -280v-898q0 -44 -31 -75q-30 -30 -73 -30t-74 30q-30 31 -30 75v897q-1 76 -57 133q-55 57 -132 58h-6q-76 -1 -132 -57q-55 -55 -56 -134 v-897q0 -44 -31 -75q-30 -30 -73 -30q-44 0 -74 30q-31 31 -31 75z" />
<glyph unicode="i" horiz-adv-x="509" d="M0 1900q0 43 30.5 73.5t73.5 30.5q42 0 72.5 -30.5t30.5 -73.5t-30.5 -73t-72.5 -30q-43 0 -73.5 30t-30.5 73zM4 107v1187q0 44 30 75t72 31t72 -31q31 -31 31 -75v-1187q0 -44 -31 -76q-30 -31 -72 -31t-72 31q-30 32 -30 76z" />
<glyph unicode="j" horiz-adv-x="1027" d="M7 -362q0 14 4 28q12 38 47 57q22 12 45 12q14 0 28 -4q39 -11 58 -47q22 -40 61 -66l19 -10q35 -16 69 -18h3l2 1h5v-1q71 1 123 53q50 50 52 119v1543q0 40 28 69q28 28 68 28q51 0 79 -28q28 -29 28 -69v-891l1 -3v-643l-1 -14q-5 -145 -119 -249q-108 -107 -258 -108 h-19q-75 3 -144 36l-11 6l-19 10l-8 6q-83 52 -129 137q-12 22 -12 46zM514 1900q0 43 30 73.5t73 30.5t73.5 -30.5t30.5 -73.5t-30.5 -73t-73.5 -30t-73 30t-30 73z" />
<glyph unicode="k" horiz-adv-x="1108" d="M0 100v1787q0 44 31 75q30 32 73 32t74 -32q31 -31 31 -75v-943l413 416q30 31 73 31q44 0 74 -31t30 -75t-31 -75l-342 -345l363 -709q11 -22 11 -46q0 -17 -6 -34q-13 -42 -52 -62q-22 -11 -45 -11q-17 0 -34 6q-41 13 -60 53l-332 647l-62 -63v-546q0 -44 -31 -75 t-74 -31t-73 31q-31 31 -31 75z" />
<glyph unicode="l" horiz-adv-x="505" d="M0 107v1787q0 44 30 75t73 31q42 0 72 -31t30 -75v-1787q0 -44 -30 -76q-30 -31 -72 -31q-43 0 -73 31q-30 32 -30 76z" />
<glyph unicode="m" horiz-adv-x="1700" d="M0 105v894l1 12q5 159 117 271q116 116 278 118h5l14 -1q157 -5 268 -119q9 -9 17 -18q9 11 19 21q115 115 278 117h5l13 -1q164 -5 276 -119q115 -116 116 -279v-896q0 -43 -30 -74q-31 -31 -74 -31t-74 31q-30 31 -30 74v896q-1 75 -56 132q-56 56 -140 57l-6 1 q-76 -1 -132 -57q-55 -55 -56 -134v-895q0 -43 -31 -74q-30 -31 -73 -31h-9q-43 0 -74 31t-31 74v895h1q-1 76 -57 133q-56 56 -132 57h-6q-77 0 -132 -56q-55 -55 -56 -134v-895q0 -43 -31 -74t-74 -31t-73 31q-31 31 -31 74z" />
<glyph unicode="n" d="M0 105v894l1 12q5 159 117 271q116 116 278 118h5l14 -1q157 -5 268 -119q115 -117 117 -279v-896q0 -43 -31 -74q-30 -31 -73 -31t-74 31t-31 74v895h1q-1 76 -57 133q-56 56 -132 57h-6q-77 0 -132 -56q-55 -55 -56 -134v-895q0 -43 -31 -74t-74 -31t-73 31 q-31 31 -31 74z" />
<glyph unicode="o" d="M0 400l1 1h-1v597l1 13q5 159 117 272q116 116 278 117h5l14 -1q157 -5 268 -118q115 -117 117 -280v-613q-7 -157 -118 -269l-9 -9q-115 -108 -269 -109h-1v-1h-4l-14 1q-156 6 -268 119q-115 117 -117 280zM208 401q1 -77 56 -133q54 -55 130 -58h2l3 1h4v-1 q73 1 127 52l5 6q54 55 57 129v3l-1 3v597h1q-1 77 -56 133q-56 56 -133 57h-6q-77 -1 -132 -56q-55 -56 -56 -134v-599h-1z" />
<glyph unicode="p" d="M0 -496v1495h1l-1 1q2 163 117 280q112 113 268 119h19q162 -1 278 -118q112 -112 118 -269v-617q-2 -163 -117 -280q-111 -113 -268 -118l-14 -1h-5q-101 1 -188 50v-542q0 -43 -30 -74q-31 -31 -74 -31t-73 31q-31 31 -31 74zM208 999h1v-602q1 -79 56 -135 q55 -55 132 -56h6q77 1 133 57q55 56 56 133h-1v601l1 3v3q-3 75 -57 130q-55 56 -132 56h-9q-76 -2 -130 -57q-55 -56 -56 -133z" />
<glyph unicode="q" d="M0 399v601q2 164 117 280q111 114 270 119l12 1h4v-1l1 1q162 -2 278 -118q112 -113 118 -270v-616l-1 -3v-877l1 -11q0 -43 -31 -74q-30 -31 -73 -31h-395q-43 0 -73 31q-31 31 -31 74q0 44 31 75q30 30 73 30h290v436q-81 -46 -175 -49h-20q-163 1 -278 118 q-111 112 -117 270zM208 1000l1 -603q0 -78 56 -134t132 -56h10q75 2 129 57t55 131v603l1 2v3q-3 76 -57 130q-55 56 -132 57h-6q-78 -2 -133 -57q-55 -56 -56 -133z" />
<glyph unicode="r" horiz-adv-x="800" d="M0 105v894l1 12q5 159 116 272q115 115 276 117h4q42 0 73 -31q30 -30 30 -74q0 -43 -30 -74q-31 -31 -73 -31h-4q-76 0 -130 -56q-55 -55 -56 -134v-895q0 -43 -31 -74q-30 -31 -73 -31q-42 0 -73 31q-30 31 -30 74z" />
<glyph unicode="s" horiz-adv-x="1080" d="M0 1010v2l1 12q6 154 114 262h-1q112 112 271 113h1v1h5l13 -1q96 -4 178 -51l3 -2h1l1 -1l18 -11l5 -3l3 -3l4 -3q65 -47 106 -114q15 -25 15 -52q0 -14 -4 -28q-10 -42 -47 -64q-25 -15 -54 -15q-13 0 -26 3q-42 10 -64 48q-20 33 -51 55l-12 7l-2 1q-40 23 -85 24h-7 q-72 -1 -123 -52h-1q-51 -52 -52 -125v-3q0 -51 26 -94l12 -16l11 -14h1l2 -3l2 -3l2 -1l1 -2q45 -40 157 -70h1l2 -1l4 -1q59 -16 74 -21l4 -2h1l2 -1h2l1 -1q148 -54 220 -194h1q12 -24 20 -48l3 -8q18 -55 21 -110v-22q-2 -163 -117 -279q-112 -113 -269 -119h-16 q-154 0 -269 103v1q-20 18 -37 38l-3 3q-20 23 -35 48l-1 2q-15 26 -15 54q0 13 3 26q11 42 48 64q25 15 53 15q13 0 26 -3q43 -11 65 -48l1 -2q6 -10 16 -22l1 -2q7 -9 18 -18q55 -49 129 -49h1l3 -1h3q75 3 129 57q56 56 57 133h-1v7l1 2v3q-2 28 -10 53l-1 1 q-3 11 -11 25v1l-1 2q-35 65 -103 90l-2 1l-2 1h-3l-61 19l-7 1q-165 45 -248 123l-4 3v1l-2 1l-2 2l-2 2l-9 10l-16 19l-7 9l-18 26l-3 4q-59 95 -59 205zM231 277q10 -12 14 -22z" />
<glyph unicode="t" horiz-adv-x="900" d="M0 1292q0 42 29 73q28 30 69 32v497q0 44 31 75q30 31 73 31t73 -31t30 -75v-496h191q43 0 74 -31q30 -32 30 -75q0 -44 -30 -76q-31 -31 -74 -31h-191v-781q1 -79 56 -135q56 -57 132 -57h3q43 0 74 -31q30 -31 30 -75t-30 -75q-31 -31 -74 -31h-4q-161 2 -277 119 q-111 113 -116 273l-1 13v780q-41 3 -69 33q-29 31 -29 74z" />
<glyph unicode="u" d="M0 401v894q0 44 31 74q30 31 73 31t74 -31q31 -30 31 -74v-895q1 -79 56 -134t132 -56h6q76 1 132 58q56 56 57 132h-1v895q0 44 31 74q31 31 74 31t73 -31q31 -30 31 -74v-896q-2 -162 -117 -279q-111 -114 -268 -119l-14 -1h-4v1h-1q-162 1 -278 117q-112 112 -117 271 z" />
<glyph unicode="v" horiz-adv-x="1114" d="M7 1296q0 28 15 53q22 37 64 48q13 3 26 3q28 0 53 -15q37 -23 47 -65l195 -784l195 784q10 42 47 65q25 15 53 15q13 0 26 -3q42 -11 64 -48q15 -25 15 -53q0 -13 -3 -26l-294 -1182q-11 -68 -78 -85q-13 -3 -25 -3q-28 0 -53 15q-38 22 -48 64l-296 1191q-3 13 -3 26z " />
<glyph unicode="w" horiz-adv-x="1700" d="M0 401v894q0 43 31 74q30 31 73 31t74 -31t31 -74v-895q1 -79 56 -134q55 -56 132 -56h6q76 1 132 57q56 57 57 133h-1v895q0 43 31 74t74 31h9q43 0 73 -31q31 -31 31 -74v-895q1 -79 56 -134q56 -56 132 -57l6 1q77 1 133 57q55 57 56 132v896q0 43 30 74q31 31 74 31 t74 -31q30 -31 30 -74v-896q-1 -163 -116 -279q-112 -114 -269 -119l-13 -1h-5q-163 2 -278 117q-10 10 -19 21q-8 -9 -17 -18q-111 -114 -268 -119l-14 -1h-5q-162 2 -278 118q-112 112 -117 271z" />
<glyph unicode="x" horiz-adv-x="1123" d="M8 103q0 24 11 46l275 550l-275 549q-11 22 -11 46q0 17 6 34q13 42 52 61q23 11 47 11q16 0 33 -5q41 -14 61 -53l204 -409l205 409q19 39 61 53q17 5 33 5q24 0 47 -11q38 -19 52 -61q6 -17 6 -33q0 -24 -12 -47l-275 -549l275 -550q12 -23 12 -47q0 -16 -6 -33 q-14 -41 -52 -60q-23 -12 -47 -12q-16 0 -33 6q-42 13 -61 52l-205 409l-204 -409q-20 -39 -61 -52q-17 -6 -33 -6q-24 0 -47 12q-39 19 -52 60q-6 17 -6 34z" />
<glyph unicode="y" horiz-adv-x="1107" d="M0 399v896q0 44 31 75q31 30 74 30q44 0 75 -30q30 -31 30 -75v-898q1 -78 57 -133q56 -56 133 -57h10q75 3 130 58q49 50 57 116v914q0 44 30 75q31 30 75 30q43 0 74 -30q31 -31 31 -75v-1507q-6 -157 -119 -270q-117 -116 -281 -117h-1v-1h-5l-14 1q-82 3 -156 39 l-12 6l-21 11l-9 6q-89 57 -140 149q-12 24 -12 49q0 15 4 31q12 42 50 62q24 13 50 13q15 0 30 -4q42 -13 62 -51q25 -44 67 -71l21 -11q37 -18 75 -20h2l3 1h5v-1q78 1 134 57q55 55 57 130v250q-84 -46 -177 -50h-20q-164 2 -281 118q-112 112 -118 271z" />
<glyph unicode="z" horiz-adv-x="1115" d="M8 103q0 24 11 46l521 1041h-427q-43 0 -74 31t-31 74q0 44 31 75q31 30 74 30h597q43 0 74 -30q31 -31 31 -75q0 -35 -19 -61l-513 -1027h427q43 0 74 -30q31 -31 31 -75q0 -43 -31 -74t-74 -31h-597q-25 0 -47 12q-39 19 -52 60q-6 17 -6 34z" />
<glyph unicode="{" horiz-adv-x="924" d="M8 999q0 17 6 34q13 42 52 61q94 47 123 181q18 81 18 273q0 256 32 368q54 187 225 273q23 11 47 11q16 0 33 -5q42 -14 61 -53q11 -23 11 -47q0 -16 -5 -33q-14 -41 -53 -61q-93 -47 -123 -181q-17 -81 -17 -272q0 -203 -17 -298q-28 -157 -114 -250q131 -141 131 -547 q0 -191 17 -272q30 -135 123 -182q39 -19 53 -60q5 -17 5 -33q0 -24 -11 -47q-19 -39 -61 -53q-17 -6 -33 -6q-24 0 -47 12q-171 86 -225 273q-32 112 -32 368q0 189 -17 269q-29 134 -119 182q-34 15 -52 49q-11 22 -11 46z" />
<glyph unicode="|" horiz-adv-x="505" d="M0 -93v2187q0 44 30 75t73 31q42 0 72 -31t30 -75v-2187q0 -44 -30 -76q-30 -31 -72 -31q-43 0 -73 31q-30 32 -30 76z" />
<glyph unicode="}" horiz-adv-x="924" d="M8 -95q0 17 6 34q13 41 52 60q94 47 123 182q18 81 18 272q0 406 130 547q-86 93 -113 250q-17 95 -17 298q0 191 -18 272q-29 134 -123 181q-39 20 -52 61q-6 17 -6 34q0 24 11 46q20 39 61 53q17 5 33 5q24 0 47 -11q172 -86 225 -273q33 -112 33 -368q0 -192 17 -273 q30 -134 123 -181q39 -19 53 -61q5 -17 5 -33q0 -24 -11 -47q-17 -34 -51 -49q-91 -48 -119 -182q-17 -80 -17 -269q0 -256 -33 -368q-53 -187 -225 -273q-23 -12 -47 -12q-16 0 -33 6q-41 14 -61 53q-11 22 -11 46z" />
<glyph unicode="~" horiz-adv-x="1123" d="M8 1001q0 16 6 33q13 42 52 61q70 36 167 36q89 0 201 -30q88 -23 147 -23q49 0 79 16q24 13 49 13q15 0 31 -5q42 -12 62 -50q13 -24 13 -50q0 -15 -4 -30q-13 -42 -51 -62q-74 -41 -180 -41q-89 0 -199 29q-91 23 -149 23q-45 0 -71 -13q-23 -12 -47 -12q-17 0 -34 6 q-41 14 -60 52q-12 23 -12 47z" />
<glyph unicode="&#xa0;" horiz-adv-x="907" d="M0 1095q0 44 31 74q31 31 74 31h397q43 0 74 -31q31 -30 31 -74t-31 -74q-31 -31 -74 -31h-397q-43 0 -74 31q-31 30 -31 74z" />
<glyph unicode="&#xa1;" horiz-adv-x="507" d="M0 1900q0 43 30.5 73t72.5 30q43 0 73.5 -30t30.5 -73t-30.5 -73.5t-73.5 -30.5q-42 0 -72.5 30.5t-30.5 73.5zM1 106v1388q0 44 30 75t72 31q43 0 73 -31t30 -75v-1388q0 -44 -30 -75t-73 -31q-42 0 -72 31t-30 75z" />
<glyph unicode="&#xa2;" horiz-adv-x="1077" d="M0 401v598l1 12q5 159 118 271q79 79 181 105v113q0 41 29.5 70.5t70.5 29.5t70.5 -29.5t29.5 -70.5v-112q38 -10 75 -27l5 -3l4 -2l1 -1l22 -12l5 -3l4 -2l1 -1q89 -56 139 -148q13 -23 13 -48q0 -16 -5 -32q-12 -41 -50 -62q-23 -13 -48 -13q-15 0 -31 5q-42 12 -63 50 q-24 45 -68 72l-19 10v1q-37 17 -79 18h-6q-78 0 -133 -56q-56 -55 -57 -134v-600q1 -78 57 -134t133 -56h11q37 1 74 19l22 12h1q40 26 64 70q21 38 63 51q15 4 29 4q26 0 50 -13q38 -21 50 -62q5 -16 5 -32q0 -25 -13 -48q-50 -91 -136 -147l-13 -7l-15 -8q-4 -3 -17 -10 q-37 -17 -75 -27v-111q0 -41 -29.5 -70.5t-70.5 -29.5t-70.5 29.5t-29.5 70.5v112q-102 26 -181 105q-112 112 -118 270z" />
<glyph unicode="&#xa3;" horiz-adv-x="1150" d="M33 1498q0 124 29 219l3 8l3 9q54 148 195 221q20 9 46 19l4 2l6 2q52 18 111 20l13 1h7q164 -2 281 -118q113 -112 119 -270v-15q0 -44 -31 -74q-31 -31 -74 -31q-44 0 -75 31q-30 30 -30 74v6q-3 77 -57 131q-56 55 -133 56h-7q-29 -1 -57 -10l-5 -2l-21 -9 q-68 -35 -95 -106l-1 -4l-1 -2q-20 -68 -20 -161q0 -123 35 -291h268q43 0 74 -31t31 -75q0 -43 -31 -74t-74 -31h-219q27 -112 42 -187h177q43 0 74 -30q31 -31 31 -75q0 -43 -31 -74t-74 -31h-145q4 -47 4 -91q0 -169 -58 -295h398q43 0 74 -31t31 -74q0 -44 -31 -74 q-31 -31 -74 -31h-600q-9 0 -20 3h-2l-2 1h-2l-1 1l-4 1h-1l-1 1h-2v1h-3l-1 1h-1l-1 1h-2l-1 1l-1 1l-2 1l-2 1l-5 3h-1l-1 1l-1 1l-1 1l-1 1h-1l-7 6l-1 1l-1 1l-2 2l-2 2l-2 2l-2 2l-1 2l-2 2l-1 2h-1l-1 2h-1v1l-1 1l-1 2l-1 1v1l-1 1l-1 1l-1 3l-1 2v1l-1 1l-1 1v1 l-1 2v2l-1 1l-1 1v3l-1 1v1l-1 1v3l-1 1v2l-1 2v5l-1 1v1l-1 4v26l1 2v2l1 1v5l1 2v2l1 1v3l1 1v1l1 1v3l1 1l1 1v3h1v2l1 1l1 1v1l1 1v1l1 2v1l1 1l1 1v1l3 3v2l3 2l1 2l1 2h1l1 2l2 2l2 1l4 4l1 2l2 2q114 118 114 330q0 39 -4 81h-41q-43 0 -74 31t-31 74q0 44 31 75 q31 30 74 30h8q-12 54 -40 171l-6 24q-67 25 -67 97q0 42 29 72q-39 184 -39 328z" />
<glyph unicode="&#xa4;" horiz-adv-x="1213" d="M0 649q0 44 31 74l76 77q-53 92 -53 196v1h-1v5l1 12q4 101 53 187l-76 77q-31 30 -31 74t31 74q30 31 74 31t74 -31l77 -76q92 52 197 53h1v1h4l13 -1q98 -4 186 -54l77 77q30 31 74 31t74 -31q31 -30 31 -74t-31 -74l-77 -77q54 -93 55 -197v-20q-4 -97 -54 -184 l76 -77q31 -30 31 -74t-31 -74q-30 -31 -74 -31t-74 31l-77 76q-93 -53 -197 -54h-19q-98 4 -185 54l-77 -76q-30 -31 -74 -31t-74 31q-31 30 -31 74zM263 997q1 -74 51 -128l6 -5l4 -4l1 -1q54 -50 125 -52h10q74 1 129 53l2 2l2 2l2 2l1 1l3 3q49 53 51 123v10 q-1 74 -53 130l-2 2l-2 2l-2 2l-1 1q-55 52 -130 53h-6q-73 0 -128 -51l-1 -1l-5 -4l-5 -6q-50 -53 -51 -128v-6h-1z" />
<glyph unicode="&#xa5;" horiz-adv-x="1115" d="M0 999v895q0 44 31 74q31 31 74 31q44 0 74 -31q31 -30 31 -74v-896q1 -78 57 -134q55 -55 132 -56h13q74 3 128 58q56 57 57 132v896q0 44 31 74q31 31 74 31t74 -31q31 -30 31 -74v-897q-2 -161 -117 -278q-78 -79 -181 -107v-112h201q43 0 74 -31q31 -30 31 -74 t-31 -74q-31 -31 -74 -31h-201v-185q0 -44 -31 -75q-31 -30 -74 -30q-44 0 -75 30q-31 31 -31 75v185h-185q-43 0 -74 31q-31 30 -31 74t31 74q31 31 74 31h185v112q-104 29 -179 103q-112 112 -118 271z" />
<glyph unicode="&#xa6;" horiz-adv-x="505" d="M0 -93v887q0 44 30 75t73 31q42 0 72 -31t30 -75v-887q0 -44 -30 -76q-30 -31 -72 -31q-43 0 -73 31q-30 32 -30 76zM0 1207v887q0 44 30 75q30 32 73 32q42 0 72 -32q30 -31 30 -75v-887q0 -44 -30 -75t-72 -31q-43 0 -73 31t-30 75z" />
<glyph unicode="&#xa7;" horiz-adv-x="1144" d="M0 200v2q0 44 31 75t75 31t75 -31t31 -75v-3q1 -79 58 -135q56 -57 134 -58v1h5l3 -1h2q76 3 131 59q56 56 57 134v3q0 86 -33 158q-27 59 -86 124l-1 1l-1 1l-3 4l-1 1q-42 48 -141 140q-156 145 -212 231q-94 143 -94 324q0 147 96 261l6 6q-27 40 -48 86l-1 2 q-53 114 -53 246v4q2 165 118 283q114 114 275 120l12 1h5v-1h1q165 -1 283 -118q114 -114 120 -273v-16q0 -43 -31 -75q-31 -31 -75 -31t-75 31q-31 32 -31 75v7q-3 77 -58 132q-56 56 -134 56h-6q-79 -1 -135 -57q-56 -57 -57 -135v-3q0 -86 33 -157l1 -2q26 -57 76 -115 h1q9 -7 13 -11q43 -48 128 -127l1 -1q156 -144 212 -230q94 -143 94 -324q0 -147 -97 -262l-5 -6q40 -55 62 -104q53 -114 53 -246v-4q-2 -164 -119 -282q-114 -115 -272 -121h-20q-165 1 -283 119q-113 113 -119 273zM242 1186q0 -120 73 -224q44 -64 165 -176l76 -73 q33 50 33 107q0 119 -73 224q-45 64 -165 175l-4 4q-58 54 -73 68q-32 -48 -32 -105z" />
<glyph unicode="&#xa8;" horiz-adv-x="807" d="M0 1700q0 43 30.5 73.5t73.5 30.5q42 0 72.5 -30.5t30.5 -73.5t-30.5 -73t-72.5 -30q-43 0 -73.5 30t-30.5 73zM300 1700q0 43 30 73t73 30t73.5 -30t30.5 -73t-30.5 -73.5t-73.5 -30.5t-73 30.5t-30 73.5z" />
<glyph unicode="&#xa9;" horiz-adv-x="2300" d="M0 997v4q1 414 294 706q291 291 703 292v1h4v-1q414 0 706 -293q291 -291 292 -703h1v-5h-1q0 -413 -293 -706q-291 -291 -703 -292h-5q-413 1 -706 294q-290 291 -292 703zM210 997q1 -325 231 -555q231 -232 557 -232h5q324 1 555 231q231 231 232 557h-1v5h1 q-1 324 -232 555q-230 232 -557 232v-1h-4v1q-325 -1 -555 -231q-232 -231 -232 -558v-4zM522 996v5l1 12q5 183 133 310l2 2l1 1l3 2v1l2 2q131 124 311 125h1v1h6l15 -2q84 -3 158 -34l3 -2l21 -9l2 -1q68 -34 120 -86q31 -31 31 -75q0 -43 -31 -74q-30 -31 -74 -31 t-74 31q-29 29 -61 45h-1l-18 8q-43 18 -90 19h-7q-97 0 -168 -69l-3 -2q-72 -72 -73 -172v-6q1 -100 72 -171q69 -70 168 -73h7q70 0 130 37l22 16l19 17h1l2 3q30 30 74 30t74 -30q31 -31 31 -75q0 -43 -31 -74l-2 -2l-7 -7l-1 -1l-2 -2l-29 -24q-19 -15 -40 -28v-1h-1 l-1 -1q-110 -68 -239 -68h-16q-180 6 -308 135q-131 131 -133 318z" />
<glyph unicode="&#xaa;" horiz-adv-x="908" d="M0 1294l1 1h-1v5l1 13q3 63 30 117l3 6h-1l11 18l3 5q45 72 121 110q23 12 47 12q16 0 33 -6q42 -14 61 -52q11 -23 11 -47q0 -16 -5 -33q-14 -42 -53 -61q-23 -11 -37 -34l-6 -9q-8 -17 -9 -35v-9q1 -37 28 -63q25 -26 60 -28h9q37 1 63 27q25 24 28 59v414 q-3 34 -28 58q-26 27 -63 27h-9q-18 -1 -35 -9l-9 -5q-23 -15 -34 -37q-19 -39 -61 -53q-17 -6 -33 -6q-24 0 -47 12q-38 19 -52 60q-6 17 -6 34q0 24 12 46q38 77 110 122l5 3l18 10h1l5 3q54 26 117 29l13 2h5v-1h1q124 -2 210 -88q84 -83 90 -200v-430q-7 -116 -90 -198 q-86 -87 -210 -89h-20q-117 7 -199 90q-87 87 -89 210z" />
<glyph unicode="&#xab;" horiz-adv-x="1323" d="M0 1000q0 44 31 75l281 281q31 31 74 31q44 0 74 -31q31 -31 31 -74q0 -44 -31 -75l-206 -207l206 -206q31 -31 31 -75q0 -43 -31 -74q-30 -31 -74 -31q-43 0 -74 31l-272 272l-2 2l-7 7q-31 31 -31 74zM532 1000q0 44 31 75l281 281q31 31 74 31q44 0 74 -31 q31 -31 31 -74q0 -44 -31 -75l-206 -207l206 -206q31 -31 31 -75q0 -43 -31 -74q-30 -31 -74 -31q-43 0 -74 31l-272 272l-2 2l-7 7q-31 31 -31 74z" />
<glyph unicode="&#xac;" horiz-adv-x="1299" d="M0 995q0 44 31 74q31 31 74 31h787q43 0 74 -31q12 -12 19 -26q14 -23 14 -52v-396q0 -43 -31 -74t-74 -31q-44 0 -75 31t-31 74v295h-683q-43 0 -74 31q-31 30 -31 74z" />
<glyph unicode="&#xad;" horiz-adv-x="907" d="M0 995q0 44 31 74q31 31 74 31h397q43 0 74 -31q31 -30 31 -74t-31 -74q-31 -31 -74 -31h-397q-43 0 -74 31q-31 30 -31 74z" />
<glyph unicode="&#xae;" horiz-adv-x="2300" d="M0 997v4q1 414 294 706q291 291 703 292v1h4v-1q414 0 706 -293q291 -291 292 -703h1v-5h-1q0 -413 -293 -706q-292 -291 -703 -292h-5q-413 1 -706 294q-290 291 -292 703zM210 997q1 -325 231 -556q231 -231 557 -231h5q324 1 555 231q231 231 232 557h-1v5h1 q-1 325 -232 555q-231 232 -557 232v-1h-4v1q-325 -1 -555 -231q-232 -231 -232 -558v-4zM656 602v558l1 4v9l1 1q6 135 100 228q98 99 238 100h1v1h4l14 -1q134 -6 228 -101v1q99 -99 100 -239v-1h1v-4l-1 -15q-6 -133 -101 -228q-34 -33 -67 -53l147 -197q21 -28 21 -62 q0 -8 -1 -16q-6 -43 -41 -69q-28 -21 -61 -21q-8 0 -16 1q-43 7 -69 41l-235 313l-1 1l-1 2l-2 2l-6 9v1l-1 1q-14 26 -14 52l1 16l1 1v1l4 16q3 8 8 17l2 3l4 7l1 1v1h1l1 1v1l3 4l1 1h1l1 1v1l4 4l2 2l1 1h1l1 2h1l3 3l3 1v1l6 3l1 1l2 1q24 14 51 14h3q53 1 91 39 q37 37 40 88v3l-1 3v4h1q-1 53 -39 91t-92 39l-6 1q-54 -2 -91 -39q-38 -37 -39 -92v-560q0 -43 -31 -74t-75 -31q-43 0 -74 31t-31 74z" />
<glyph unicode="&#xaf;" horiz-adv-x="907" d="M0 1708q0 44 31 74q31 31 74 31h397q43 0 74 -31q31 -30 31 -74t-31 -74q-31 -31 -74 -31h-397q-43 0 -74 31q-31 30 -31 74z" />
<glyph unicode="&#xb0;" horiz-adv-x="900" d="M0 1701q0 124 88 212t212 88t212 -88t88 -212t-88 -212t-212 -88t-212 88t-88 212zM200 1701q0 -41 29.5 -70.5t70.5 -29.5t70.5 29.5t29.5 70.5t-29.5 70.5t-70.5 29.5t-70.5 -29.5t-29.5 -70.5z" />
<glyph unicode="&#xb1;" horiz-adv-x="1107" d="M0 302q0 42 31 73q31 30 74 30h597q43 0 74 -30q31 -31 31 -73t-31 -72t-74 -30h-597q-43 0 -74 30t-31 72zM0 1005q0 43 31 74t74 31h195v185q0 43 31 74t74 31q44 0 75 -31t31 -74v-185h191q43 0 74 -31t31 -74q0 -44 -31 -75t-74 -31h-191v-201q0 -43 -31 -74t-75 -31 q-43 0 -74 31t-31 74v201h-195q-43 0 -74 31t-31 75z" />
<glyph unicode="&#xb2;" horiz-adv-x="908" d="M0 1099v9q1 179 67 289q74 123 251 203l2 1l3 1l11 5l4 1q34 13 50 44v2l5 12h1q4 13 4 22v11q-1 34 -25 60l-3 3q-25 25 -60 27h-6q-39 0 -67 -28l-2 -1l-9 -13l-7 -12l-1 -2q-17 -40 -57 -56q-20 -8 -41 -8q-20 0 -40 8q-40 17 -56 58q-8 19 -8 39t9 41l1 3l1 2l1 1 l1 3q11 22 22 40q12 18 30 38l6 5l3 2q90 91 214 91h2l14 -2q118 -5 200 -88l5 -5l1 -2l2 -2q78 -85 80 -201v-23q-3 -39 -16 -78q-7 -21 -17 -41q-52 -103 -161 -146h-1l-4 -1l-1 -1l-2 -1h-1q-118 -53 -158 -120q-20 -34 -29 -85h285q44 0 75 -31q30 -30 30 -74 q0 -43 -30 -74q-31 -31 -75 -31h-398q-43 0 -74 31t-31 74z" />
<glyph unicode="&#xb3;" horiz-adv-x="901" d="M8 1242q0 20 8 39q17 41 57 58q21 9 41 9t39 -8q40 -17 57 -57l1 -1l7 -13l10 -12l2 -3q27 -27 67 -27h7q34 2 59 27q27 27 28 64h-1v6l1 3v1q-2 11 -5 22l-5 13l-1 1q-17 32 -52 45l-6 2l-2 2h-3l-1 2h-1l-2 1l-2 1h-1l-1 1l-1 1l-2 1l-1 1l-1 1h-1l-1 1h-1v1l-1 1l-2 1 h-1l-1 1l-1 1l-1 1v1h-1l-1 1l-1 1l-1 1l-1 1l-1 1l-1 1h-1l-1 1l-3 4l-1 1l-1 1l-1 1v1l-1 1l-1 2l-1 1v1l-1 1l-1 1l-1 1v1l-1 1v1h-1v1l-1 2l-1 2l-1 1v1l-1 3l-5 12v2l-1 1v2l-1 2v3l-1 1v4l-1 4v24l1 4v4l1 1v2l1 1v2l1 3v1l5 12l1 4l1 1l1 2v1l1 1v1l4 5v1l1 1v1l3 3 v1l1 1l1 1l6 7h1l1 1l1 1l6 6l1 1h1v1l2 1l2 2l2 1h1l5 4h1l2 1l2 1l1 1l4 2l12 4q33 13 48 43l1 2l5 12q4 13 5 22v1l-1 3v7h1q-1 34 -25 60l-3 3q-26 25 -61 27h-5q-39 0 -67 -28h-1l-1 -1l-10 -13l-7 -12l-1 -2q-17 -40 -57 -56q-20 -8 -40 -8t-40 8q-40 17 -57 58 q-8 19 -8 39t9 41l1 3l1 2l1 1l2 3q10 23 21 40q12 18 30 38l6 5l3 2q90 91 215 91h1l14 -2q118 -5 200 -88l5 -5l2 -2l2 -2q78 -85 79 -201v-1h1v-7l-1 -15q-2 -39 -15 -78q-7 -21 -18 -41q-12 -24 -32 -50q19 -24 32 -50q11 -20 18 -41q13 -40 15 -78l1 -15v-6h-1v-2 q-1 -123 -88 -210q-82 -82 -199 -89h-16q-126 0 -216 90l-2 2l-6 6q-18 19 -30 38q-11 16 -20 35l-1 2l-3 6l-1 2l-1 3q-9 21 -9 41z" />
<glyph unicode="&#xb4;" horiz-adv-x="611" d="M7 1729q0 28 15 54l94 162q22 39 63 51q15 4 29 4q25 0 47 -13q36 -20 46 -62q3 -13 3 -25q0 -28 -15 -55l-94 -162q-22 -38 -63 -50q-16 -5 -31 -5q-24 0 -46 13q-35 21 -45 62q-3 13 -3 26z" />
<glyph unicode="&#xb5;" horiz-adv-x="1107" d="M0 -498v1793q0 44 31 75q31 30 74 30q44 0 75 -30q30 -31 30 -75v-914q8 -66 57 -116q55 -55 130 -58h9q78 1 134 57q56 55 57 133v898q0 44 30 75q31 30 75 30q43 0 74 -30q31 -31 31 -75v-896l-1 -13q-6 -159 -118 -271q-117 -116 -281 -118h-20q-93 4 -177 50v-550h-2 q-1 -39 -29 -67q-30 -30 -71 -30t-70.5 29.5t-29.5 70.5v2h-8z" />
<glyph unicode="&#xb6;" horiz-adv-x="1802" d="M0 1496v5q2 206 147 351q146 147 354 148h897q43 0 74 -31q30 -30 30 -74q0 -43 -30 -74q-31 -31 -74 -31h-194v-1684q0 -44 -30 -75q-31 -31 -75 -31q-43 0 -74 31t-31 75v1684h-187v-1684q0 -44 -31 -75t-74 -31q-44 0 -75 31t-31 75v889h-97l-9 1q-201 5 -342 146 q-147 146 -148 354zM210 1496q0 -120 86 -206q83 -83 200 -85h100v585h-97q-119 -1 -203 -86q-85 -85 -86 -203v-5z" />
<glyph unicode="&#xb7;" horiz-adv-x="476" d="M0 863q0 37 26 62.5t62 25.5t62 -25.5t26 -62.5t-26 -62.5t-62 -25.5t-62 25.5t-26 62.5z" />
<glyph unicode="&#xb8;" horiz-adv-x="908" d="M0 -303q0 44 31 75q31 30 74 30h202q37 1 63 27t28 60v10q-1 35 -25 61l-3 2q-24 24 -66 38q-94 10 -104 70q-2 11 -2 22q0 45 33 76q31 31 74 31v1h4l5 -1h5q119 -6 201 -89l5 -5l1 -2l2 -2q78 -85 80 -201v-21q-7 -116 -90 -198q-87 -87 -210 -89h-203q-43 0 -74 31 t-31 74z" />
<glyph unicode="&#xb9;" horiz-adv-x="908" d="M0 1099q0 44 31 74q31 31 74 31h94v585h-94q-43 0 -74 31t-31 74q0 44 31 75t74 31h199q44 0 75 -31q30 -31 30 -75v-690h94q44 0 75 -31q30 -30 30 -74q0 -43 -30 -74q-31 -31 -75 -31h-398q-43 0 -74 31t-31 74z" />
<glyph unicode="&#xba;" horiz-adv-x="908" d="M0 1294l1 1h-1v402l1 13q6 119 89 201q87 87 210 89l1 -1v1h4l14 -1q117 -6 200 -89l3 -3l1 -1q82 -86 84 -206v-1h1v-402l-1 -15q-7 -116 -89 -199l-3 -3l-3 -3q-85 -81 -204 -82h-1v-1h-5l-14 1q-117 6 -199 89q-87 87 -89 210zM210 1295q1 -36 27 -63q26 -25 60 -28h3 l2 1h5v-1q35 1 62 26l1 2q25 26 28 59v3l-1 3v402h1q-1 36 -28 63q-26 26 -60 28h-9q-37 -1 -63 -27t-28 -62v-406z" />
<glyph unicode="&#xbb;" horiz-adv-x="1323" d="M0 719q0 44 31 75l206 206l-206 207q-31 31 -31 75q0 43 31 74q30 31 74 31t74 -31l281 -281q31 -31 31 -75q0 -43 -31 -74l-7 -7l-2 -2l-272 -272q-30 -31 -74 -31t-74 31q-31 31 -31 74zM532 719q0 44 31 75l206 206l-206 207q-31 31 -31 75q0 43 31 74q30 31 74 31 t74 -31l281 -281q31 -31 31 -75q0 -43 -31 -74l-7 -7l-2 -2l-272 -272q-30 -31 -74 -31t-74 31q-31 31 -31 74z" />
<glyph unicode="&#xbc;" horiz-adv-x="1909" d="M0 1099q0 44 31 74q31 31 74 31h94v585h-94q-43 0 -74 31t-31 74q0 44 31 75t74 31h199q44 0 75 -31q30 -31 30 -75v-690h94q44 0 75 -31q30 -30 30 -74q0 -43 -30 -74q-31 -31 -75 -31h-398q-43 0 -74 31t-31 74zM500 104q0 11 3 23l398 1790q9 42 46 66q26 17 55 17 q12 0 24 -3q42 -10 66 -46q17 -27 17 -56q0 -11 -3 -23l-398 -1790q-9 -42 -46 -66q-27 -17 -56 -17q-11 0 -23 3q-42 9 -66 46q-17 27 -17 56zM1000 297q0 9 2 18l99 597q8 43 43 68q28 20 60 20q9 0 18 -2q43 -7 69 -43q20 -27 20 -60q0 -9 -2 -18l-79 -474h168v293 q0 43 31 74t75 31q43 0 74 -31t31 -74v-597q0 -43 -31 -74t-74 -31q-44 0 -75 31t-31 74v94h-288q-12 0 -22 1q-42 7 -68 43q-20 27 -20 60z" />
<glyph unicode="&#xbd;" horiz-adv-x="1911" d="M0 1099q0 44 31 74q31 31 74 31h94v585h-94q-43 0 -74 31t-31 74q0 44 31 75t74 31h199q44 0 75 -31q30 -31 30 -75v-690h94q44 0 75 -31q30 -30 30 -74q0 -43 -30 -74q-31 -31 -75 -31h-398q-43 0 -74 31t-31 74zM500 104q0 11 3 23l398 1790q9 42 46 66q26 17 55 17 q12 0 24 -3q42 -10 66 -46q17 -27 17 -56q0 -11 -3 -23l-398 -1790q-9 -42 -46 -66q-27 -17 -56 -17q-11 0 -23 3q-42 9 -66 46q-17 27 -17 56zM1003 99v9q1 179 67 289q74 123 251 203l2 1l3 1l11 5l4 1q34 13 50 44v2l5 12h1q4 13 4 22v11q-1 34 -25 60l-3 3 q-25 25 -60 27h-6q-39 0 -67 -28l-2 -1l-9 -13l-7 -12l-1 -2q-17 -40 -57 -56q-20 -8 -41 -8q-20 0 -40 8q-40 17 -56 58q-8 19 -8 39t9 41l1 3l1 2l1 1l1 3q11 22 22 40q12 18 30 38l6 5l3 2q90 91 214 91h2l14 -2q118 -5 200 -88l5 -5l1 -2l2 -2q78 -85 80 -201v-23 q-3 -39 -16 -78q-7 -21 -17 -41q-52 -103 -161 -146h-1l-4 -1l-1 -1l-2 -1h-1q-118 -53 -158 -120q-20 -34 -29 -85h285q44 0 75 -31q30 -30 30 -74q0 -43 -30 -74q-31 -31 -75 -31h-398q-43 0 -74 31t-31 74z" />
<glyph unicode="&#xbe;" horiz-adv-x="1916" d="M8 1242q0 20 8 39q17 41 57 58q21 9 41 9t39 -8q40 -17 57 -57l1 -1l7 -13l10 -12l2 -3q27 -27 67 -27h7q34 2 59 27q27 27 28 64h-1v6l1 3v1q-2 11 -5 22l-5 13l-1 1q-17 32 -52 45l-6 2l-2 2h-3l-1 2h-1l-2 1l-2 1h-1l-1 1l-1 1l-2 1l-1 1l-1 1h-1l-1 1h-1v1l-1 1l-2 1 h-1l-1 1l-1 1l-1 1v1h-1l-1 1l-1 1l-1 1l-1 1l-1 1l-1 1h-1l-1 1l-3 4l-1 1l-1 1l-1 1v1l-1 1l-1 2l-1 1v1l-1 1l-1 1l-1 1v1l-1 1v1h-1v1l-1 2l-1 2l-1 1v1l-1 3l-5 12v2l-1 1v2l-1 2v3l-1 1v4l-1 4v24l1 4v4l1 1v2l1 1v2l1 3v1l5 12l1 4l1 1l1 2v1l1 1v1l4 5v1l1 1v1l3 3 v1l1 1l1 1l6 7h1l1 1l1 1l6 6l1 1h1v1l2 1l2 2l2 1h1l5 4h1l2 1l2 1l1 1l4 2l12 4q33 13 48 43l1 2l5 12q4 13 5 22v1l-1 3v7h1q-1 34 -25 60l-3 3q-26 25 -61 27h-5q-39 0 -67 -28h-1l-1 -1l-10 -13l-7 -12l-1 -2q-17 -40 -57 -56q-20 -8 -40 -8t-40 8q-40 17 -57 58 q-8 19 -8 39t9 41l1 3l1 2l1 1l2 3q10 23 21 40q12 18 30 38l6 5l3 2q90 91 215 91h1l14 -2q118 -5 200 -88l5 -5l2 -2l2 -2q78 -85 79 -201v-1h1v-7l-1 -15q-2 -39 -15 -78q-7 -21 -18 -41q-12 -24 -32 -50q19 -24 32 -50q11 -20 18 -41q13 -40 15 -78l1 -15v-6h-1v-2 q-1 -123 -88 -210q-82 -82 -199 -89h-16q-126 0 -216 90l-2 2l-6 6q-18 19 -30 38q-11 16 -20 35l-1 2l-3 6l-1 2l-1 3q-9 21 -9 41zM507 104q0 11 3 23l398 1790q9 42 46 66q26 17 55 17q12 0 24 -3q42 -10 66 -46q17 -27 17 -56q0 -11 -3 -23l-398 -1790q-9 -42 -46 -66 q-27 -17 -56 -17q-11 0 -23 3q-42 9 -66 46q-17 27 -17 56zM1007 297q0 9 2 18l99 597q8 43 43 68q28 20 60 20q9 0 18 -2q43 -7 69 -43q20 -27 20 -60q0 -9 -2 -18l-79 -474h168v293q0 43 31 74t75 31q43 0 74 -31t31 -74v-597q0 -43 -31 -74t-74 -31q-44 0 -75 31t-31 74 v94h-288q-12 0 -22 1q-42 7 -68 43q-20 27 -20 60z" />
<glyph unicode="&#xbf;" d="M0 399v4q0 204 18 279q26 108 125 225l2 2l2 2q104 131 132 244q17 69 17 227v114q0 44 30 74q31 31 74 31t73 -30q31 -31 31 -74v-113q0 -204 -23 -293q-37 -143 -175 -315l-2 -2l-1 -2h-1l-1 -2q-64 -75 -81 -154q-11 -56 -11 -213v-3h-1q1 -76 56 -133q56 -56 133 -57 h6q77 1 132 56q55 56 56 135v201q0 44 31 74q31 31 74 31t73 -31q31 -30 31 -74v-200l-1 -12q-5 -160 -117 -272q-116 -116 -278 -118h-5l-14 1q-156 5 -268 119q-115 117 -117 279zM296 1900q0 43 30.5 73t73.5 30t73 -30t30 -73t-30 -73.5t-73 -30.5t-73.5 30.5 t-30.5 73.5z" />
<glyph unicode="&#xc0;" d="M0 105v1494l1 12q5 159 117 271q116 116 278 118h5l14 -1q157 -5 268 -119q115 -117 117 -279v-1496q0 -43 -31 -74q-30 -31 -73 -31t-74 31t-31 74v895h-382v-895q0 -43 -31 -74t-74 -31t-73 31q-31 31 -31 74zM202 2492q0 12 3 25q10 42 45 62q23 13 48 13q14 0 29 -4 q41 -12 63 -51l94 -162q15 -26 15 -54q0 -13 -3 -26q-10 -41 -46 -62q-22 -13 -45 -13q-15 0 -31 5q-41 12 -63 50l-94 162q-15 27 -15 55zM209 1200h382v400h1q-1 76 -57 133q-56 56 -132 57h-6q-77 0 -132 -56q-55 -55 -56 -134v-400z" />
<glyph unicode="&#xc1;" d="M0 105v1494l1 12q5 159 117 271q116 116 278 118h5l14 -1q157 -5 268 -119q115 -117 117 -279v-1496q0 -43 -31 -74q-30 -31 -73 -31t-74 31t-31 74v895h-382v-895q0 -43 -31 -74t-74 -31t-73 31q-31 31 -31 74zM209 1200h382v400h1q-1 76 -57 133q-56 56 -132 57h-6 q-77 0 -132 -56q-55 -55 -56 -134v-400zM301 2321q0 28 15 54l94 162q22 39 63 51q15 4 29 4q25 0 47 -13q36 -20 46 -62q3 -13 3 -25q0 -28 -15 -55l-94 -162q-22 -38 -63 -50q-16 -5 -31 -5q-24 0 -46 13q-35 21 -45 62q-3 13 -3 26z" />
<glyph unicode="&#xc2;" d="M0 105v1494l1 12q5 159 117 271q116 116 278 118h5l14 -1q157 -5 268 -119q115 -117 117 -279v-1496q0 -43 -31 -74q-30 -31 -73 -31t-74 31t-31 74v895h-382v-895q0 -43 -31 -74t-74 -31t-73 31q-31 31 -31 74zM159 2304q0 44 31 75l140 140q31 31 75 31q43 0 74 -31 l141 -140q31 -31 31 -75q0 -43 -31 -74t-75 -31q-43 0 -74 31l-66 66l-66 -66q-31 -31 -75 -31t-74 31q-31 31 -31 74zM209 1200h382v400h1q-1 76 -57 133q-56 56 -132 57h-6q-77 0 -132 -56q-55 -55 -56 -134v-400z" />
<glyph unicode="&#xc3;" horiz-adv-x="1123" d="M0 2332q0 16 6 33q13 42 52 61q70 36 167 36q89 0 201 -30q88 -23 147 -23q49 0 79 16q24 13 49 13q15 0 31 -5q42 -12 62 -50q13 -24 13 -50q0 -15 -4 -30q-13 -42 -51 -62q-74 -41 -180 -41q-89 0 -199 29q-91 23 -149 23q-45 0 -71 -13q-23 -12 -47 -12q-17 0 -34 6 q-41 14 -60 52q-12 23 -12 47zM2 105v1494l1 12q5 159 117 271q116 116 278 118h5l14 -1q157 -5 268 -119q115 -117 117 -279v-1496q0 -43 -31 -74q-30 -31 -73 -31t-74 31t-31 74v895h-382v-895q0 -43 -31 -74t-74 -31t-73 31q-31 31 -31 74zM211 1200h382v400h1 q-1 76 -57 133q-56 56 -132 57h-6q-77 0 -132 -56q-55 -55 -56 -134v-400z" />
<glyph unicode="&#xc4;" d="M0 105v1494l1 12q5 159 117 271q116 116 278 118h5l14 -1q157 -5 268 -119q115 -117 117 -279v-1496q0 -43 -31 -74q-30 -31 -73 -31t-74 31t-31 74v895h-382v-895q0 -43 -31 -74t-74 -31t-73 31q-31 31 -31 74zM143 2301q0 43 30.5 73.5t73.5 30.5q42 0 72.5 -30.5 t30.5 -73.5t-30.5 -73t-72.5 -30q-43 0 -73.5 30t-30.5 73zM209 1200h382v400h1q-1 76 -57 133q-56 56 -132 57h-6q-77 0 -132 -56q-55 -55 -56 -134v-400zM443 2301q0 43 30 73t73 30t73.5 -30t30.5 -73t-30.5 -73.5t-73.5 -30.5t-73 30.5t-30 73.5z" />
<glyph unicode="&#xc5;" d="M0 105v1494l1 12q5 159 117 271q116 116 278 118h5l14 -1q157 -5 268 -119q115 -117 117 -279v-1496q0 -43 -31 -74q-30 -31 -73 -31t-74 31t-31 74v895h-382v-895q0 -43 -31 -74t-74 -31t-73 31q-31 31 -31 74zM100 2092q0 124 88 212t212 88t212 -88t88 -212t-88 -212 t-212 -88t-212 88t-88 212zM209 1200h382v400h1q-1 76 -57 133q-56 56 -132 57h-6q-77 0 -132 -56q-55 -55 -56 -134v-400zM300 2092q0 -41 29.5 -70.5t70.5 -29.5t70.5 29.5t29.5 70.5t-29.5 70.5t-70.5 29.5t-70.5 -29.5t-29.5 -70.5z" />
<glyph unicode="&#xc6;" horiz-adv-x="1604" d="M0 105v1492l1 13q5 159 118 272q111 110 269 116h2l10 1h1l2 1h299l3 -1h494q43 0 74 -30q31 -31 31 -75q0 -43 -31 -74t-74 -31h-392v-585h292q44 0 74 -31q31 -30 31 -74q0 -43 -31 -74q-30 -31 -74 -31h-292v-784h392q43 0 74 -31q31 -30 31 -74t-31 -74 q-31 -31 -74 -31h-497q-44 0 -75 31q-31 30 -31 74v889h-386v-889q0 -44 -30 -74q-31 -31 -75 -31q-43 0 -74 31q-31 30 -31 74zM210 1204h386v586h-178l-15 -1h-3q-77 -1 -133 -56q-55 -55 -57 -134v-395z" />
<glyph unicode="&#xc7;" horiz-adv-x="1078" d="M0 -283q0 44 31 75q31 30 74 30h202q37 1 63 27t28 60v10q-1 35 -25 61l-3 2q-24 24 -66 38q-94 10 -104 70q-2 11 -2 22q0 45 33 76q31 31 74 31v1h4l5 -1h5q119 -6 201 -89l5 -5l1 -2l2 -2q78 -85 80 -201v-21q-7 -116 -90 -198q-87 -87 -210 -89h-203q-43 0 -74 31 t-31 74zM1 401v1198l1 12q5 159 118 271q116 116 280 118h6l16 -1q81 -4 154 -38l5 -3l4 -2l1 -1l22 -12l5 -3l4 -2l1 -1q89 -56 139 -148q13 -23 13 -48q0 -16 -5 -32q-12 -41 -50 -62q-23 -13 -48 -13q-15 0 -31 5q-42 12 -63 50q-24 45 -68 72l-19 10v1q-37 17 -79 18h-6 q-78 0 -133 -56q-56 -55 -57 -134v-1200q1 -78 57 -134t133 -56h11q37 1 74 19l22 12h1q40 26 64 70q21 38 63 51q15 4 29 4q26 0 50 -13q38 -21 50 -62q5 -16 5 -32q0 -25 -13 -48q-50 -91 -136 -147l-13 -7l-15 -8q-4 -3 -17 -10q-75 -35 -155 -38l-15 -1h-5v1h-1 q-164 1 -280 117q-112 112 -118 270z" />
<glyph unicode="&#xc8;" horiz-adv-x="1007" d="M0 401v1198l1 12q5 159 118 271q116 116 280 118h6l16 -1q81 -4 154 -38l5 -3l4 -2l1 -1l22 -12l5 -3l4 -2l1 -1q89 -56 139 -148q13 -23 13 -48q0 -16 -5 -32q-12 -41 -50 -62q-23 -13 -48 -13q-15 0 -31 5q-42 12 -63 50q-24 45 -68 72l-19 10v1q-37 17 -79 18h-6 q-78 0 -133 -56q-56 -55 -57 -134v-1200q1 -78 57 -134t133 -56h11q37 1 74 19l22 12h1q40 26 64 70q21 38 63 51q15 4 29 4q26 0 50 -13q38 -21 50 -62q5 -16 5 -32q0 -25 -13 -48q-50 -91 -136 -147l-13 -7l-15 -8q-4 -3 -17 -10q-75 -35 -155 -38l-15 -1h-5v1h-1 q-164 1 -280 117q-112 112 -118 270zM100 995q0 44 31 74q31 31 74 31h397q43 0 74 -31q31 -30 31 -74t-31 -74q-31 -31 -74 -31h-397q-43 0 -74 31q-31 30 -31 74zM156 2492q0 12 3 25q10 42 45 62q23 13 48 13q14 0 29 -4q41 -12 63 -51l94 -162q15 -26 15 -54 q0 -13 -3 -26q-10 -41 -46 -62q-22 -13 -45 -13q-15 0 -31 5q-41 12 -63 50l-94 162q-15 27 -15 55z" />
<glyph unicode="&#xc9;" horiz-adv-x="1007" d="M0 401v1198l1 12q5 159 118 271q116 116 280 118h6l16 -1q81 -4 154 -38l5 -3l4 -2l1 -1l22 -12l5 -3l4 -2l1 -1q89 -56 139 -148q13 -23 13 -48q0 -16 -5 -32q-12 -41 -50 -62q-23 -13 -48 -13q-15 0 -31 5q-42 12 -63 50q-24 45 -68 72l-19 10v1q-37 17 -79 18h-6 q-78 0 -133 -56q-56 -55 -57 -134v-1200q1 -78 57 -134t133 -56h11q37 1 74 19l22 12h1q40 26 64 70q21 38 63 51q15 4 29 4q26 0 50 -13q38 -21 50 -62q5 -16 5 -32q0 -25 -13 -48q-50 -91 -136 -147l-13 -7l-15 -8q-4 -3 -17 -10q-75 -35 -155 -38l-15 -1h-5v1h-1 q-164 1 -280 117q-112 112 -118 270zM100 995q0 44 31 74q31 31 74 31h397q43 0 74 -31q31 -30 31 -74t-31 -74q-31 -31 -74 -31h-397q-43 0 -74 31q-31 30 -31 74zM235 2301q0 28 15 54l94 162q22 39 63 51q15 4 29 4q25 0 47 -13q36 -20 46 -62q3 -13 3 -25q0 -28 -15 -55 l-94 -162q-22 -38 -63 -50q-16 -5 -31 -5q-24 0 -46 13q-35 21 -45 62q-3 13 -3 26z" />
<glyph unicode="&#xca;" horiz-adv-x="1007" d="M0 401v1198l1 12q5 159 118 271q116 116 280 118h6l16 -1q81 -4 154 -38l5 -3l4 -2l1 -1l22 -12l5 -3l4 -2l1 -1q89 -56 139 -148q13 -23 13 -48q0 -16 -5 -32q-12 -41 -50 -62q-23 -13 -48 -13q-15 0 -31 5q-42 12 -63 50q-24 45 -68 72l-19 10v1q-37 17 -79 18h-6 q-78 0 -133 -56q-56 -55 -57 -134v-1200q1 -78 57 -134t133 -56h11q37 1 74 19l22 12h1q40 26 64 70q21 38 63 51q15 4 29 4q26 0 50 -13q38 -21 50 -62q5 -16 5 -32q0 -25 -13 -48q-50 -91 -136 -147l-13 -7l-15 -8q-4 -3 -17 -10q-75 -35 -155 -38l-15 -1h-5v1h-1 q-164 1 -280 117q-112 112 -118 270zM100 995q0 44 31 74q31 31 74 31h397q43 0 74 -31q31 -30 31 -74t-31 -74q-31 -31 -74 -31h-397q-43 0 -74 31q-31 30 -31 74zM108 2305q0 44 31 75l140 140q31 31 75 31q43 0 74 -31l141 -140q31 -31 31 -75q0 -43 -31 -74t-75 -31 q-43 0 -74 31l-66 66l-66 -66q-31 -31 -75 -31t-74 31q-31 31 -31 74z" />
<glyph unicode="&#xcb;" horiz-adv-x="1007" d="M0 401v1198l1 12q5 159 118 271q116 116 280 118h6l16 -1q81 -4 154 -38l5 -3l4 -2l1 -1l22 -12l5 -3l4 -2l1 -1q89 -56 139 -148q13 -23 13 -48q0 -16 -5 -32q-12 -41 -50 -62q-23 -13 -48 -13q-15 0 -31 5q-42 12 -63 50q-24 45 -68 72l-19 10v1q-37 17 -79 18h-6 q-78 0 -133 -56q-56 -55 -57 -134v-1200q1 -78 57 -134t133 -56h11q37 1 74 19l22 12h1q40 26 64 70q21 38 63 51q15 4 29 4q26 0 50 -13q38 -21 50 -62q5 -16 5 -32q0 -25 -13 -48q-50 -91 -136 -147l-13 -7l-15 -8q-4 -3 -17 -10q-75 -35 -155 -38l-15 -1h-5v1h-1 q-164 1 -280 117q-112 112 -118 270zM96 2300q0 43 30.5 73.5t73.5 30.5q42 0 72.5 -30.5t30.5 -73.5t-30.5 -73t-72.5 -30q-43 0 -73.5 30t-30.5 73zM100 995q0 44 31 74q31 31 74 31h397q43 0 74 -31q31 -30 31 -74t-31 -74q-31 -31 -74 -31h-397q-43 0 -74 31 q-31 30 -31 74zM396 2300q0 43 30 73t73 30t73.5 -30t30.5 -73t-30.5 -73.5t-73.5 -30.5t-73 30.5t-30 73.5z" />
<glyph unicode="&#xcc;" horiz-adv-x="611" d="M7 2472q0 12 3 25q10 42 45 62q23 13 48 13q14 0 29 -4q41 -12 63 -51l94 -162q15 -26 15 -54q0 -13 -3 -26q-10 -41 -46 -62q-22 -13 -45 -13q-15 0 -31 5q-41 12 -63 50l-94 162q-15 27 -15 55zM57 106v1787q0 44 30 75t73 31q42 0 72 -31t30 -75v-1787q0 -44 -30 -76 q-30 -31 -72 -31q-43 0 -73 31q-30 32 -30 76z" />
<glyph unicode="&#xcd;" horiz-adv-x="611" d="M7 107v1787q0 44 30 75t73 31q42 0 72 -31t30 -75v-1787q0 -44 -30 -76q-30 -31 -72 -31q-43 0 -73 31q-30 32 -30 76zM7 2301q0 28 15 54l94 162q22 39 63 51q15 4 29 4q25 0 47 -13q36 -20 46 -62q3 -13 3 -25q0 -28 -15 -55l-94 -162q-22 -38 -63 -50q-16 -5 -31 -5 q-24 0 -46 13q-35 21 -45 62q-3 13 -3 26z" />
<glyph unicode="&#xce;" horiz-adv-x="792" d="M0 2304q0 44 31 75l140 140q31 31 75 31q43 0 74 -31l141 -140q31 -31 31 -75q0 -43 -31 -74t-75 -31q-43 0 -74 31l-66 66l-66 -66q-31 -31 -75 -31t-74 31q-31 31 -31 74zM149 107v1787q0 44 30 75t73 31q42 0 72 -31t30 -75v-1787q0 -44 -30 -76q-30 -31 -72 -31 q-43 0 -73 31q-30 32 -30 76z" />
<glyph unicode="&#xcf;" horiz-adv-x="807" d="M0 2300q0 43 30.5 73.5t73.5 30.5q42 0 72.5 -30.5t30.5 -73.5t-30.5 -73t-72.5 -30q-43 0 -73.5 30t-30.5 73zM153 106v1787q0 44 30 75t73 31q42 0 72 -31t30 -75v-1787q0 -44 -30 -76q-30 -31 -72 -31q-43 0 -73 31q-30 32 -30 76zM300 2300q0 43 30 73t73 30 t73.5 -30t30.5 -73t-30.5 -73.5t-73.5 -30.5t-73 30.5t-30 73.5z" />
<glyph unicode="&#xd0;" horiz-adv-x="1314" d="M0 1095q0 44 31 74q31 31 74 31h102v695q0 44 31 75q31 30 74 30h200l12 -1q201 -5 343 -147q141 -141 146 -341l1 -11v-1000l-1 -10q-5 -200 -146 -342q-142 -142 -343 -147h-12v-1h-200q-43 0 -74 31t-31 75v884h-102q-43 0 -74 31q-31 30 -31 74zM417 211h98 q119 1 203 85t86 201v3h-1v1000h1v4q-3 117 -86 200q-84 85 -203 86h-98v-590h85q43 0 74 -31q31 -30 31 -74t-31 -74q-31 -31 -74 -31h-85v-779z" />
<glyph unicode="&#xd1;" horiz-adv-x="1123" d="M0 2332q0 16 6 33q13 42 52 61q70 36 167 36q89 0 201 -30q88 -23 147 -23q49 0 79 16q24 13 49 13q15 0 31 -5q42 -12 62 -50q13 -24 13 -50q0 -15 -4 -30q-13 -42 -51 -62q-74 -41 -180 -41q-89 0 -199 29q-91 23 -149 23q-45 0 -71 -13q-23 -12 -47 -12q-17 0 -34 6 q-41 14 -60 52q-12 23 -12 47zM7 105v1494l1 12q5 159 117 271q116 116 278 118h5l14 -1q157 -5 268 -119q115 -117 117 -279v-1496q0 -43 -31 -74q-30 -31 -73 -31t-74 31t-31 74v1495h1q-1 76 -57 133q-56 56 -132 57h-6q-77 0 -132 -56q-55 -55 -56 -134v-1495 q0 -43 -31 -74t-74 -31t-73 31q-31 31 -31 74z" />
<glyph unicode="&#xd2;" d="M0 400l1 1h-1v1197l1 13q5 159 117 272q116 116 278 117h5l14 -1q157 -5 268 -118q115 -117 117 -280v-1213q-7 -157 -118 -269l-9 -9q-115 -108 -269 -109h-1v-1h-4l-14 1q-156 6 -268 119q-115 117 -117 280zM202 2492q0 12 3 25q10 42 45 62q23 13 48 13q14 0 29 -4 q41 -12 63 -51l94 -162q15 -26 15 -54q0 -13 -3 -26q-10 -41 -46 -62q-22 -13 -45 -13q-15 0 -31 5q-41 12 -63 50l-94 162q-15 27 -15 55zM208 401q1 -77 56 -133q54 -55 130 -58h2l3 1h4v-1q73 1 127 52l5 6q54 55 57 129v3l-1 3v1197h1q-1 77 -56 133q-56 56 -133 57h-6 q-77 -1 -132 -56q-55 -56 -56 -134v-1199h-1z" />
<glyph unicode="&#xd3;" d="M0 399l1 1h-1v1197l1 13q5 159 117 272q116 116 278 117h5l14 -1q157 -5 268 -118q115 -117 117 -280v-1213q-7 -157 -118 -269l-9 -9q-115 -108 -269 -109h-1v-1h-4l-14 1q-156 6 -268 119q-115 117 -117 280zM208 400q1 -77 56 -133q54 -55 130 -58h2l3 1h4v-1 q73 1 127 52l5 6q54 55 57 129v3l-1 3v1197h1q-1 77 -56 133q-56 56 -133 57h-6q-77 -1 -132 -56q-55 -56 -56 -134v-1199h-1zM333 2301q0 28 15 54l94 162q22 39 63 51q15 4 29 4q25 0 47 -13q36 -20 46 -62q3 -13 3 -25q0 -28 -15 -55l-94 -162q-22 -38 -63 -50 q-16 -5 -31 -5q-24 0 -46 13q-35 21 -45 62q-3 13 -3 26z" />
<glyph unicode="&#xd4;" d="M0 399l1 1h-1v1197l1 13q5 159 117 272q116 116 278 117h5l14 -1q157 -5 268 -118q115 -117 117 -280v-1213q-7 -157 -118 -269l-9 -9q-115 -108 -269 -109h-1v-1h-4l-14 1q-156 6 -268 119q-115 117 -117 280zM160 2305q0 44 31 75l140 140q31 31 75 31q43 0 74 -31 l141 -140q31 -31 31 -75q0 -43 -31 -74t-75 -31q-43 0 -74 31l-66 66l-66 -66q-31 -31 -75 -31t-74 31q-31 31 -31 74zM208 400q1 -77 56 -133q54 -55 130 -58h2l3 1h4v-1q73 1 127 52l5 6q54 55 57 129v3l-1 3v1197h1q-1 77 -56 133q-56 56 -133 57h-6q-77 -1 -132 -56 q-55 -56 -56 -134v-1199h-1z" />
<glyph unicode="&#xd5;" horiz-adv-x="1123" d="M0 2332q0 16 6 33q13 42 52 61q70 36 167 36q89 0 201 -30q88 -23 147 -23q49 0 79 16q24 13 49 13q15 0 31 -5q42 -12 62 -50q13 -24 13 -50q0 -15 -4 -30q-13 -42 -51 -62q-74 -41 -180 -41q-89 0 -199 29q-91 23 -149 23q-45 0 -71 -13q-23 -12 -47 -12q-17 0 -34 6 q-41 14 -60 52q-12 23 -12 47zM8 400l1 1h-1v1197l1 13q5 159 117 272q116 116 278 117h5l14 -1q157 -5 268 -118q115 -117 117 -280v-1213q-7 -157 -118 -269l-9 -9q-115 -108 -269 -109h-1v-1h-4l-14 1q-156 6 -268 119q-115 117 -117 280zM216 401q1 -77 56 -133 q54 -55 130 -58h2l3 1h4v-1q73 1 127 52l5 6q54 55 57 129v3l-1 3v1197h1q-1 77 -56 133q-56 56 -133 57h-6q-77 -1 -132 -56q-55 -56 -56 -134v-1199h-1z" />
<glyph unicode="&#xd6;" d="M0 400l1 1h-1v1197l1 13q5 159 117 272q116 116 278 117h5l14 -1q157 -5 268 -118q115 -117 117 -280v-1213q-7 -157 -118 -269l-9 -9q-115 -108 -269 -109h-1v-1h-4l-14 1q-156 6 -268 119q-115 117 -117 280zM147 2292q0 43 30.5 73.5t73.5 30.5q42 0 72.5 -30.5 t30.5 -73.5t-30.5 -73t-72.5 -30q-43 0 -73.5 30t-30.5 73zM208 401q1 -77 56 -133q54 -55 130 -58h2l3 1h4v-1q73 1 127 52l5 6q54 55 57 129v3l-1 3v1197h1q-1 77 -56 133q-56 56 -133 57h-6q-77 -1 -132 -56q-55 -56 -56 -134v-1199h-1zM447 2292q0 43 30 73t73 30 t73.5 -30t30.5 -73t-30.5 -73.5t-73.5 -30.5t-73 30.5t-30 73.5z" />
<glyph unicode="&#xd7;" horiz-adv-x="1078" d="M0 1295q0 43 30 74q31 31 75 31q43 0 74 -31l213 -213l206 206q31 31 75 31q43 0 74 -31t31 -74q0 -44 -31 -75l-206 -206l201 -201q31 -31 31 -74q0 -44 -31 -75q-31 -30 -74 -30q-44 0 -75 30l-201 201l-208 -208q-31 -31 -75 -31q-43 0 -74 31t-31 74q0 44 31 75 l208 208l-213 213q-30 31 -30 75z" />
<glyph unicode="&#xd8;" d="M0 400l1 1h-1v1197l1 13q5 159 117 272q80 80 182 105v108q0 44 30 75t72 31q43 0 73 -31t30 -75v-110q100 -26 178 -105q115 -117 117 -280v-1213q-7 -157 -118 -269l-9 -9q-76 -71 -168 -96v-109q0 -43 -30 -74q-31 -31 -73 -31t-72 31t-30 74v108q-103 26 -183 107 q-115 117 -117 280zM208 401q1 -77 56 -133q54 -55 130 -58h2l3 1h4v-1q73 1 127 52l5 6q54 55 57 129v3l-1 3v1197h1q-1 77 -56 133q-56 56 -133 57h-6q-77 -1 -132 -56q-55 -56 -56 -134v-1199h-1z" />
<glyph unicode="&#xd9;" d="M0 401v1494q0 44 31 74q30 31 73 31t74 -31q31 -30 31 -74v-1495q1 -79 56 -134t132 -56h6q76 1 132 58q56 56 57 132h-1v1495q0 44 31 74q31 31 74 31t73 -31q31 -30 31 -74v-1496q-2 -162 -117 -279q-111 -114 -268 -119l-14 -1h-4v1h-1q-162 1 -278 117 q-112 112 -117 271zM202 2492q0 12 3 25q10 42 45 62q23 13 48 13q14 0 29 -4q41 -12 63 -51l94 -162q15 -26 15 -54q0 -13 -3 -26q-10 -41 -46 -62q-22 -13 -45 -13q-15 0 -31 5q-41 12 -63 50l-94 162q-15 27 -15 55z" />
<glyph unicode="&#xda;" d="M0 401v1494q0 44 31 74q30 31 73 31t74 -31q31 -30 31 -74v-1495q1 -79 56 -134t132 -56h6q76 1 132 58q56 56 57 132h-1v1495q0 44 31 74q31 31 74 31t73 -31q31 -30 31 -74v-1496q-2 -162 -117 -279q-111 -114 -268 -119l-14 -1h-4v1h-1q-162 1 -278 117 q-112 112 -117 271zM301 2321q0 28 15 54l94 162q22 39 63 51q15 4 29 4q25 0 47 -13q36 -20 46 -62q3 -13 3 -25q0 -28 -15 -55l-94 -162q-22 -38 -63 -50q-16 -5 -31 -5q-24 0 -46 13q-35 21 -45 62q-3 13 -3 26z" />
<glyph unicode="&#xdb;" d="M0 401v1494q0 44 31 74q30 31 73 31t74 -31q31 -30 31 -74v-1495q1 -79 56 -134t132 -56h6q76 1 132 58q56 56 57 132h-1v1495q0 44 31 74q31 31 74 31t73 -31q31 -30 31 -74v-1496q-2 -162 -117 -279q-111 -114 -268 -119l-14 -1h-4v1h-1q-162 1 -278 117 q-112 112 -117 271zM154 2317q0 44 31 75l140 140q31 31 75 31q43 0 74 -31l141 -140q31 -31 31 -75q0 -43 -31 -74t-75 -31q-43 0 -74 31l-66 66l-66 -66q-31 -31 -75 -31t-74 31q-31 31 -31 74z" />
<glyph unicode="&#xdc;" horiz-adv-x="908" d="M0 1294l1 1h-1v5l1 13q3 63 30 117l3 6h-1l11 18l3 5q45 72 121 110q23 12 47 12q16 0 33 -6q42 -14 61 -52q11 -23 11 -47q0 -16 -5 -33q-14 -42 -53 -61q-23 -11 -37 -34l-6 -9q-8 -17 -9 -35v-9q1 -37 28 -63q25 -26 60 -28h9q37 1 63 27q25 24 28 59v414 q-3 34 -28 58q-26 27 -63 27h-9q-18 -1 -35 -9l-9 -5q-23 -15 -34 -37q-19 -39 -61 -53q-17 -6 -33 -6q-24 0 -47 12q-38 19 -52 60q-6 17 -6 34q0 24 12 46q38 77 110 122l5 3l18 10h1l5 3q54 26 117 29l13 2h5v-1h1q124 -2 210 -88q84 -83 90 -200v-430q-7 -116 -90 -198 q-86 -87 -210 -89h-20q-117 7 -199 90q-87 87 -89 210z" />
<glyph unicode="&#xdd;" horiz-adv-x="1107" d="M0 799v1095q0 44 31 74q31 31 74 31q44 0 74 -31q31 -30 31 -74v-1096q1 -78 57 -134q55 -55 132 -56h13q74 3 128 58q56 57 57 132v1096q0 44 31 74q31 31 74 31t74 -31q31 -30 31 -74v-1097q-2 -161 -117 -278q-78 -79 -181 -107v-307q0 -44 -31 -75q-31 -30 -74 -30 q-44 0 -75 30q-31 31 -31 75v307q-104 29 -179 103q-112 112 -118 271zM305 2321q0 28 15 54l94 162q22 39 63 51q15 4 29 4q25 0 47 -13q36 -20 46 -62q3 -13 3 -25q0 -28 -15 -55l-94 -162q-22 -38 -63 -50q-16 -5 -31 -5q-24 0 -46 13q-35 21 -45 62q-3 13 -3 26z" />
<glyph unicode="&#xde;" d="M0 -96v1495h1l-1 1q2 163 117 280q112 113 268 119h19q162 -1 278 -118q112 -112 118 -269v-617q-2 -163 -117 -280q-111 -113 -268 -118l-14 -1h-5q-101 1 -188 50v-542q0 -43 -30 -74q-31 -31 -74 -31t-73 31q-31 31 -31 74zM0 107v1787q0 44 30 75t73 31q42 0 72 -31 t30 -75v-1787q0 -44 -30 -76q-30 -31 -72 -31q-43 0 -73 31q-30 32 -30 76zM208 1399h1v-602q1 -79 56 -135q55 -55 132 -56h6q77 1 133 57q55 56 56 133h-1v601l1 3v3q-3 75 -57 130q-55 56 -132 56h-9q-76 -2 -130 -57q-55 -56 -56 -133z" />
<glyph unicode="&#xdf;" horiz-adv-x="1107" d="M0 99v1494l1 13q5 159 118 272q117 116 281 117h5l13 -1q158 -5 271 -118q116 -117 117 -280v-1h1v-203l-1 -15q-6 -156 -118 -268v-1l-14 -13l15 -15q116 -117 117 -280h1v-401l-1 -15v-4q-1 -32 -11 -72h1q-8 -36 -27 -76l-2 -5q-94 -193 -305 -226q-8 -1 -16 -1 q-34 0 -62 21q-35 26 -42 68q-1 8 -1 16q0 34 21 63q26 35 69 41q103 16 148 111v1q8 17 12 35h1q4 20 5 38v3l-1 2v401h1q-1 75 -57 132q-57 57 -134 58h-3q-43 0 -74 31t-31 74q0 44 31 74q31 31 74 31h8q74 3 128 57h1q54 54 57 129v3l-1 3v203h1q-1 77 -57 133t-134 57 h-6q-77 -1 -133 -56q-55 -55 -57 -134v-1496q0 -43 -31 -74q-30 -30 -74 -30q-43 0 -74 30q-31 31 -31 74z" />
<glyph unicode="&#xe0;" d="M0 399l1 1h-1v103l1 12q5 159 117 272q116 115 278 117h5l14 -1q92 -3 176 -49v145l1 2v3q-3 76 -57 130q-55 55 -132 56h-6q-41 -1 -79 -18l-1 -1l-17 -9q-44 -28 -69 -73q-20 -38 -61 -50q-16 -5 -32 -5q-25 0 -48 13q-37 21 -49 62q-5 16 -5 32q0 25 13 48 q49 91 139 148l4 3l5 3l27 15l5 3q71 34 153 37l15 2h6v-1l1 1q162 -2 278 -118q112 -112 118 -269v-627q-7 -156 -118 -268q-117 -116 -278 -118h-19q-156 6 -268 119q-115 117 -117 280zM208 400q1 -78 56 -133q54 -55 130 -58h2l3 1h4v-1q76 1 132 58q54 54 57 129v2 l-1 3v120q-7 67 -56 116q-55 56 -132 57h-6q-77 0 -132 -56q-55 -55 -56 -134v-104h-1zM230 1872q0 12 3 25q10 42 45 62q23 13 48 13q14 0 29 -4q41 -12 63 -51l94 -162q15 -26 15 -54q0 -13 -3 -26q-10 -41 -46 -62q-22 -13 -45 -13q-15 0 -31 5q-41 12 -63 50l-94 162 q-15 27 -15 55z" />
<glyph unicode="&#xe1;" d="M0 399l1 1h-1v103l1 12q5 159 117 272q116 115 278 117h5l14 -1q92 -3 176 -49v145l1 2v3q-3 76 -57 130q-55 55 -132 56h-6q-41 -1 -79 -18l-1 -1l-17 -9q-44 -28 -69 -73q-20 -38 -61 -50q-16 -5 -32 -5q-25 0 -48 13q-37 21 -49 62q-5 16 -5 32q0 25 13 48 q49 91 139 148l4 3l5 3l27 15l5 3q71 34 153 37l15 2h6v-1l1 1q162 -2 278 -118q112 -112 118 -269v-627q-7 -156 -118 -268q-117 -116 -278 -118h-19q-156 6 -268 119q-115 117 -117 280zM208 400q1 -78 56 -133q54 -55 130 -58h2l3 1h4v-1q76 1 132 58q54 54 57 129v2 l-1 3v120q-7 67 -56 116q-55 56 -132 57h-6q-77 0 -132 -56q-55 -55 -56 -134v-104h-1zM323 1701q0 28 15 54l94 162q22 39 63 51q15 4 29 4q25 0 47 -13q36 -20 46 -62q3 -13 3 -25q0 -28 -15 -55l-94 -162q-22 -38 -63 -50q-16 -5 -31 -5q-24 0 -46 13q-35 21 -45 62 q-3 13 -3 26z" />
<glyph unicode="&#xe2;" d="M0 399l1 1h-1v103l1 12q5 159 117 272q116 115 278 117h5l14 -1q92 -3 176 -49v145l1 2v3q-3 76 -57 130q-55 55 -132 56h-6q-41 -1 -79 -18l-1 -1l-17 -9q-44 -28 -69 -73q-20 -38 -61 -50q-16 -5 -32 -5q-25 0 -48 13q-37 21 -49 62q-5 16 -5 32q0 25 13 48 q49 91 139 148l4 3l5 3l27 15l5 3q71 34 153 37l15 2h6v-1l1 1q162 -2 278 -118q112 -112 118 -269v-627q-7 -156 -118 -268q-117 -116 -278 -118h-19q-156 6 -268 119q-115 117 -117 280zM200 1704q0 44 31 75l140 140q31 31 75 31q43 0 74 -31l141 -140q31 -31 31 -75 q0 -43 -31 -74t-75 -31q-43 0 -74 31l-66 66l-66 -66q-31 -31 -75 -31t-74 31q-31 31 -31 74zM208 400q1 -78 56 -133q54 -55 130 -58h2l3 1h4v-1q76 1 132 58q54 54 57 129v2l-1 3v120q-7 67 -56 116q-55 56 -132 57h-6q-77 0 -132 -56q-55 -55 -56 -134v-104h-1z" />
<glyph unicode="&#xe3;" horiz-adv-x="1123" d="M0 1730q0 16 6 33q13 42 52 61q70 36 167 36q89 0 201 -30q88 -23 147 -23q49 0 79 16q24 13 49 13q15 0 31 -5q42 -12 62 -50q13 -24 13 -50q0 -15 -4 -30q-13 -42 -51 -62q-74 -41 -180 -41q-89 0 -199 29q-91 23 -149 23q-45 0 -71 -13q-23 -12 -47 -12q-17 0 -34 6 q-41 14 -60 52q-12 23 -12 47zM7 399l1 1h-1v103l1 12q5 159 117 272q116 115 278 117h5l14 -1q92 -3 176 -49v145l1 2v3q-3 76 -57 130q-55 55 -132 56h-6q-41 -1 -79 -18l-1 -1l-17 -9q-44 -28 -69 -73q-20 -38 -61 -50q-16 -5 -32 -5q-25 0 -48 13q-37 21 -49 62 q-5 16 -5 32q0 25 13 48q49 91 139 148l4 3l5 3l27 15l5 3q71 34 153 37l15 2h6v-1l1 1q162 -2 278 -118q112 -112 118 -269v-627q-7 -156 -118 -268q-117 -116 -278 -118h-19q-156 6 -268 119q-115 117 -117 280zM215 400q1 -78 56 -133q54 -55 130 -58h2l3 1h4v-1 q76 1 132 58q54 54 57 129v2l-1 3v120q-7 67 -56 116q-55 56 -132 57h-6q-77 0 -132 -56q-55 -55 -56 -134v-104h-1z" />
<glyph unicode="&#xe4;" d="M0 399l1 1h-1v103l1 12q5 159 117 272q116 115 278 117h5l14 -1q92 -3 176 -49v145l1 2v3q-3 76 -57 130q-55 55 -132 56h-6q-41 -1 -79 -18l-1 -1l-17 -9q-44 -28 -69 -73q-20 -38 -61 -50q-16 -5 -32 -5q-25 0 -48 13q-37 21 -49 62q-5 16 -5 32q0 25 13 48 q49 91 139 148l4 3l5 3l27 15l5 3q71 34 153 37l15 2h6v-1l1 1q162 -2 278 -118q112 -112 118 -269v-627q-7 -156 -118 -268q-117 -116 -278 -118h-19q-156 6 -268 119q-115 117 -117 280zM149 1700q0 43 30.5 73.5t73.5 30.5q42 0 72.5 -30.5t30.5 -73.5t-30.5 -73 t-72.5 -30q-43 0 -73.5 30t-30.5 73zM208 400q1 -78 56 -133q54 -55 130 -58h2l3 1h4v-1q76 1 132 58q54 54 57 129v2l-1 3v120q-7 67 -56 116q-55 56 -132 57h-6q-77 0 -132 -56q-55 -55 -56 -134v-104h-1zM449 1700q0 43 30 73t73 30t73.5 -30t30.5 -73t-30.5 -73.5 t-73.5 -30.5t-73 30.5t-30 73.5z" />
<glyph unicode="&#xe5;" d="M0 399l1 1h-1v103l1 12q5 159 117 272q116 115 278 117h5l14 -1q92 -3 176 -49v145l1 2v3q-3 76 -57 130q-55 55 -132 56h-6q-41 -1 -79 -18l-1 -1l-17 -9q-44 -28 -69 -73q-20 -38 -61 -50q-16 -5 -32 -5q-25 0 -48 13q-37 21 -49 62q-5 16 -5 32q0 25 13 48 q49 91 139 148l4 3l5 3l27 15l5 3q71 34 153 37l15 2h6v-1l1 1q162 -2 278 -118q112 -112 118 -269v-627q-7 -156 -118 -268q-117 -116 -278 -118h-19q-156 6 -268 119q-115 117 -117 280zM99 1900q0 124 88 212t212 88t212 -88t88 -212t-88 -212t-212 -88t-212 88t-88 212z M208 400q1 -78 56 -133q54 -55 130 -58h2l3 1h4v-1q76 1 132 58q54 54 57 129v2l-1 3v120q-7 67 -56 116q-55 56 -132 57h-6q-77 0 -132 -56q-55 -55 -56 -134v-104h-1zM299 1900q0 -41 29.5 -70.5t70.5 -29.5t70.5 29.5t29.5 70.5t-29.5 70.5t-70.5 29.5t-70.5 -29.5 t-29.5 -70.5z" />
<glyph unicode="&#xe6;" horiz-adv-x="1690" d="M0 399l1 1h-1v103l1 12q5 159 117 272q116 115 278 117h5l14 -1q92 -3 176 -49v145l1 2v3q-3 76 -57 130q-55 55 -132 56h-6q-41 -1 -79 -18l-1 -1l-17 -9q-44 -28 -69 -73q-20 -38 -61 -50q-16 -5 -32 -5q-25 0 -48 13q-37 21 -49 62q-5 16 -5 32q0 25 13 48 q49 91 139 148l4 3l5 3l27 15l5 3q71 34 153 37l15 2h6v-1l1 1q162 -2 278 -118q112 -112 118 -269v-627q-7 -156 -118 -268q-117 -116 -278 -118h-19q-156 6 -268 119q-115 117 -117 280zM208 400q1 -78 56 -133q54 -55 130 -58h2l3 1h4v-1q76 1 132 58q54 54 57 129v2 l-1 3v120q-7 67 -56 116q-55 56 -132 57h-6q-77 0 -132 -56q-55 -55 -56 -134v-104h-1zM590 387v627q7 156 118 268q117 116 278 118h19q156 -6 268 -119q115 -117 117 -280v-104l-1 -12q-5 -159 -117 -271q-116 -116 -278 -118l-1 1v-1h-4l-14 1q-92 3 -176 50v-146l-1 -2 v-3q3 -76 57 -130q55 -55 132 -56h6q41 1 79 19h1l17 9q44 28 69 73q20 38 61 50q16 5 32 5q25 0 48 -13q37 -21 49 -62q5 -16 5 -32q0 -25 -13 -48q-49 -91 -139 -148l-4 -3l-5 -3l-27 -15l-5 -3q-71 -34 -153 -37l-15 -2h-6v1l-1 -1q-162 2 -278 118q-112 112 -118 269z M798 1002l1 -3v-120q7 -67 56 -116q55 -56 132 -57h6q77 0 132 56q55 55 56 134v105h1q-1 77 -56 132q-54 55 -130 58h-2l-3 -1h-4v1q-76 -1 -132 -58q-54 -54 -57 -128v-3z" />
<glyph unicode="&#xe7;" horiz-adv-x="1078" d="M0 -283q0 44 31 75q31 30 74 30h202q37 1 63 27t28 60v10q-1 35 -25 61l-3 2q-24 24 -66 38q-94 10 -104 70q-2 11 -2 22q0 45 33 76q31 31 74 31v1h4l5 -1h5q119 -6 201 -89l5 -5l1 -2l2 -2q78 -85 80 -201v-21q-7 -116 -90 -198q-87 -87 -210 -89h-203q-43 0 -74 31 t-31 74zM1 401v598l1 12q5 159 118 271q116 116 280 118h6l16 -1q81 -4 154 -38l5 -3l4 -2l1 -1l22 -12l5 -3l4 -2l1 -1q89 -56 139 -148q13 -23 13 -48q0 -16 -5 -32q-12 -41 -50 -62q-23 -13 -48 -13q-15 0 -31 5q-42 12 -63 50q-24 45 -68 72l-19 10v1q-37 17 -79 18h-6 q-78 0 -133 -56q-56 -55 -57 -134v-600q1 -78 57 -134t133 -56h11q37 1 74 19l22 12h1q40 26 64 70q21 38 63 51q15 4 29 4q26 0 50 -13q38 -21 50 -62q5 -16 5 -32q0 -25 -13 -48q-50 -91 -136 -147l-13 -7l-15 -8q-4 -3 -17 -10q-75 -35 -155 -38l-15 -1h-5v1h-1 q-164 1 -280 117q-112 112 -118 270z" />
<glyph unicode="&#xe8;" d="M0 387v627q7 156 118 268q117 116 278 118h19q156 -6 268 -119q115 -117 117 -280v-104l-1 -12q-5 -159 -117 -271q-116 -116 -278 -118l-1 1v-1h-4l-14 1q-92 3 -176 50v-146l-1 -2v-3q3 -76 57 -130q55 -55 132 -56h6q41 1 79 19h1l17 9q44 28 69 73q20 38 61 50 q16 5 32 5q25 0 48 -13q37 -21 49 -62q5 -16 5 -32q0 -25 -13 -48q-49 -91 -139 -148l-4 -3l-5 -3l-27 -15l-5 -3q-71 -34 -153 -37l-15 -2h-6v1l-1 -1q-162 2 -278 118q-112 112 -118 269zM200 1872q0 12 3 25q10 42 45 62q23 13 48 13q14 0 29 -4q41 -12 63 -51l94 -162 q15 -26 15 -54q0 -13 -3 -26q-10 -41 -46 -62q-22 -13 -45 -13q-15 0 -31 5q-41 12 -63 50l-94 162q-15 27 -15 55zM208 1002l1 -3v-120q7 -67 56 -116q55 -56 132 -57h6q77 0 132 56q55 55 56 134v105h1q-1 77 -56 132q-54 55 -130 58h-2l-3 -1h-4v1q-76 -1 -132 -58 q-54 -54 -57 -128v-3z" />
<glyph unicode="&#xe9;" d="M0 387v627q7 156 118 268q117 116 278 118h19q156 -6 268 -119q115 -117 117 -280v-104l-1 -12q-5 -159 -117 -271q-116 -116 -278 -118l-1 1v-1h-4l-14 1q-92 3 -176 50v-146l-1 -2v-3q3 -76 57 -130q55 -55 132 -56h6q41 1 79 19h1l17 9q44 28 69 73q20 38 61 50 q16 5 32 5q25 0 48 -13q37 -21 49 -62q5 -16 5 -32q0 -25 -13 -48q-49 -91 -139 -148l-4 -3l-5 -3l-27 -15l-5 -3q-71 -34 -153 -37l-15 -2h-6v1l-1 -1q-162 2 -278 118q-112 112 -118 269zM208 1002l1 -3v-120q7 -67 56 -116q55 -56 132 -57h6q77 0 132 56q55 55 56 134 v105h1q-1 77 -56 132q-54 55 -130 58h-2l-3 -1h-4v1q-76 -1 -132 -58q-54 -54 -57 -128v-3zM303 1701q0 28 15 54l94 162q22 39 63 51q15 4 29 4q25 0 47 -13q36 -20 46 -62q3 -13 3 -25q0 -28 -15 -55l-94 -162q-22 -38 -63 -50q-16 -5 -31 -5q-24 0 -46 13q-35 21 -45 62 q-3 13 -3 26z" />
<glyph unicode="&#xea;" d="M0 387v627q7 156 118 268q117 116 278 118h19q156 -6 268 -119q115 -117 117 -280v-104l-1 -12q-5 -159 -117 -271q-116 -116 -278 -118l-1 1v-1h-4l-14 1q-92 3 -176 50v-146l-1 -2v-3q3 -76 57 -130q55 -55 132 -56h6q41 1 79 19h1l17 9q44 28 69 73q20 38 61 50 q16 5 32 5q25 0 48 -13q37 -21 49 -62q5 -16 5 -32q0 -25 -13 -48q-49 -91 -139 -148l-4 -3l-5 -3l-27 -15l-5 -3q-71 -34 -153 -37l-15 -2h-6v1l-1 -1q-162 2 -278 118q-112 112 -118 269zM200 1704q0 44 31 75l140 140q31 31 75 31q43 0 74 -31l141 -140q31 -31 31 -75 q0 -43 -31 -74t-75 -31q-43 0 -74 31l-66 66l-66 -66q-31 -31 -75 -31t-74 31q-31 31 -31 74zM208 1002l1 -3v-120q7 -67 56 -116q55 -56 132 -57h6q77 0 132 56q55 55 56 134v105h1q-1 77 -56 132q-54 55 -130 58h-2l-3 -1h-4v1q-76 -1 -132 -58q-54 -54 -57 -128v-3z" />
<glyph unicode="&#xeb;" d="M0 387v627q7 156 118 268q117 116 278 118h19q156 -6 268 -119q115 -117 117 -280v-104l-1 -12q-5 -159 -117 -271q-116 -116 -278 -118l-1 1v-1h-4l-14 1q-92 3 -176 50v-146l-1 -2v-3q3 -76 57 -130q55 -55 132 -56h6q41 1 79 19h1l17 9q44 28 69 73q20 38 61 50 q16 5 32 5q25 0 48 -13q37 -21 49 -62q5 -16 5 -32q0 -25 -13 -48q-49 -91 -139 -148l-4 -3l-5 -3l-27 -15l-5 -3q-71 -34 -153 -37l-15 -2h-6v1l-1 -1q-162 2 -278 118q-112 112 -118 269zM185 1700q0 43 30.5 73.5t73.5 30.5q42 0 72.5 -30.5t30.5 -73.5t-30.5 -73 t-72.5 -30q-43 0 -73.5 30t-30.5 73zM208 1002l1 -3v-120q7 -67 56 -116q55 -56 132 -57h6q77 0 132 56q55 55 56 134v105h1q-1 77 -56 132q-54 55 -130 58h-2l-3 -1h-4v1q-76 -1 -132 -58q-54 -54 -57 -128v-3zM485 1700q0 43 30 73t73 30t73.5 -30t30.5 -73t-30.5 -73.5 t-73.5 -30.5t-73 30.5t-30 73.5z" />
<glyph unicode="&#xec;" horiz-adv-x="611" d="M7 1872q0 12 3 25q10 42 45 62q23 13 48 13q14 0 29 -4q41 -12 63 -51l94 -162q15 -26 15 -54q0 -13 -3 -26q-10 -41 -46 -62q-22 -13 -45 -13q-15 0 -31 5q-41 12 -63 50l-94 162q-15 27 -15 55zM105 107v1187q0 44 29 75q30 31 71 31t71 -31q29 -31 29 -75v-1187 q0 -44 -29 -76q-30 -31 -71 -31t-71 31q-29 32 -29 76z" />
<glyph unicode="&#xed;" horiz-adv-x="611" d="M0 106v1187q0 44 29 75q30 31 71 31t71 -31q29 -31 29 -75v-1187q0 -44 -29 -76q-30 -31 -71 -31t-71 31q-29 32 -29 76zM1 1701q0 28 15 54l94 162q22 39 63 51q15 4 29 4q25 0 47 -13q36 -20 46 -62q3 -13 3 -25q0 -28 -15 -55l-94 -162q-22 -38 -63 -50q-16 -5 -31 -5 q-24 0 -46 13q-35 21 -45 62q-3 13 -3 26z" />
<glyph unicode="&#xee;" horiz-adv-x="792" d="M0 1705q0 44 31 75l140 140q31 31 75 31q43 0 74 -31l141 -140q31 -31 31 -75q0 -43 -31 -74t-75 -31q-43 0 -74 31l-66 66l-66 -66q-31 -31 -75 -31t-74 31q-31 31 -31 74zM146 107v1187q0 44 29 75q30 31 71 31t71 -31q29 -31 29 -75v-1187q0 -44 -29 -76 q-30 -31 -71 -31t-71 31q-29 32 -29 76z" />
<glyph unicode="&#xef;" horiz-adv-x="807" d="M0 1700q0 43 30.5 73.5t73.5 30.5q42 0 72.5 -30.5t30.5 -73.5t-30.5 -73t-72.5 -30q-43 0 -73.5 30t-30.5 73zM153 107v1187q0 44 29 75q30 31 71 31t71 -31q29 -31 29 -75v-1187q0 -44 -29 -76q-30 -31 -71 -31t-71 31q-29 32 -29 76zM300 1700q0 43 30 73t73 30 t73.5 -30t30.5 -73t-30.5 -73.5t-73.5 -30.5t-73 30.5t-30 73.5z" />
<glyph unicode="&#xf0;" horiz-adv-x="1307" d="M0 388v616q2 164 117 281q111 113 268 118l14 1h5q101 -1 188 -50v246h-87q-43 0 -74 31q-31 30 -31 74t31 74q31 31 74 31h87v86q0 43 30 74q31 30 74 30t73 -30q31 -31 31 -74v-86h102q43 0 74 -31q31 -30 31 -74t-31 -74q-31 -31 -74 -31h-102v-1199h-1l1 -1 q-2 -163 -117 -280q-112 -113 -268 -119l-14 -1h-4v1h-1q-162 1 -278 118q-112 112 -118 269zM208 397q3 -75 57 -130q55 -56 132 -56h9q76 2 130 57q55 56 56 133h-1v602q-1 79 -56 135q-55 55 -132 56h-6q-77 -1 -133 -57q-55 -56 -56 -133h1v-601l-1 -3v-3z" />
<glyph unicode="&#xf1;" horiz-adv-x="1123" d="M0 1732q0 16 6 33q13 42 52 61q70 36 167 36q89 0 201 -30q88 -23 147 -23q49 0 79 16q24 13 49 13q15 0 31 -5q42 -12 62 -50q13 -24 13 -50q0 -15 -4 -30q-13 -42 -51 -62q-74 -41 -180 -41q-89 0 -199 29q-91 23 -149 23q-45 0 -71 -13q-23 -12 -47 -12q-17 0 -34 6 q-41 14 -60 52q-12 23 -12 47zM7 104v894l1 12q5 159 117 271q116 116 278 118h5l14 -1q157 -5 268 -119q115 -117 117 -279v-896q0 -43 -31 -74q-30 -31 -73 -31t-74 31t-31 74v895h1q-1 76 -57 133q-56 56 -132 57h-6q-77 0 -132 -56q-55 -55 -56 -134v-895q0 -43 -31 -74 t-74 -31t-73 31q-31 31 -31 74z" />
<glyph unicode="&#xf2;" d="M0 400l1 1h-1v597l1 13q5 159 117 272q116 116 278 117h5l14 -1q157 -5 268 -118q115 -117 117 -280v-613q-7 -157 -118 -269l-9 -9q-115 -108 -269 -109h-1v-1h-4l-14 1q-156 6 -268 119q-115 117 -117 280zM200 1872q0 12 3 25q10 42 45 62q23 13 48 13q14 0 29 -4 q41 -12 63 -51l94 -162q15 -26 15 -54q0 -13 -3 -26q-10 -41 -46 -62q-22 -13 -45 -13q-15 0 -31 5q-41 12 -63 50l-94 162q-15 27 -15 55zM208 401q1 -77 56 -133q54 -55 130 -58h2l3 1h4v-1q73 1 127 52l5 6q54 55 57 129v3l-1 3v597h1q-1 77 -56 133q-56 56 -133 57h-6 q-77 -1 -132 -56q-55 -56 -56 -134v-599h-1z" />
<glyph unicode="&#xf3;" d="M0 400l1 1h-1v597l1 13q5 159 117 272q116 116 278 117h5l14 -1q157 -5 268 -118q115 -117 117 -280v-613q-7 -157 -118 -269l-9 -9q-115 -108 -269 -109h-1v-1h-4l-14 1q-156 6 -268 119q-115 117 -117 280zM208 401q1 -77 56 -133q54 -55 130 -58h2l3 1h4v-1 q73 1 127 52l5 6q54 55 57 129v3l-1 3v597h1q-1 77 -56 133q-56 56 -133 57h-6q-77 -1 -132 -56q-55 -56 -56 -134v-599h-1zM303 1701q0 28 15 54l94 162q22 39 63 51q15 4 29 4q25 0 47 -13q36 -20 46 -62q3 -13 3 -25q0 -28 -15 -55l-94 -162q-22 -38 -63 -50 q-16 -5 -31 -5q-24 0 -46 13q-35 21 -45 62q-3 13 -3 26z" />
<glyph unicode="&#xf4;" d="M0 400l1 1h-1v597l1 13q5 159 117 272q116 116 278 117h5l14 -1q157 -5 268 -118q115 -117 117 -280v-613q-7 -157 -118 -269l-9 -9q-115 -108 -269 -109h-1v-1h-4l-14 1q-156 6 -268 119q-115 117 -117 280zM154 1705q0 44 31 75l140 140q31 31 75 31q43 0 74 -31 l141 -140q31 -31 31 -75q0 -43 -31 -74t-75 -31q-43 0 -74 31l-66 66l-66 -66q-31 -31 -75 -31t-74 31q-31 31 -31 74zM208 401q1 -77 56 -133q54 -55 130 -58h2l3 1h4v-1q73 1 127 52l5 6q54 55 57 129v3l-1 3v597h1q-1 77 -56 133q-56 56 -133 57h-6q-77 -1 -132 -56 q-55 -56 -56 -134v-599h-1z" />
<glyph unicode="&#xf5;" horiz-adv-x="1123" d="M0 1732q0 16 6 33q13 42 52 61q70 36 167 36q89 0 201 -30q88 -23 147 -23q49 0 79 16q24 13 49 13q15 0 31 -5q42 -12 62 -50q13 -24 13 -50q0 -15 -4 -30q-13 -42 -51 -62q-74 -41 -180 -41q-89 0 -199 29q-91 23 -149 23q-45 0 -71 -13q-23 -12 -47 -12q-17 0 -34 6 q-41 14 -60 52q-12 23 -12 47zM7 400l1 1h-1v597l1 13q5 159 117 272q116 116 278 117h5l14 -1q157 -5 268 -118q115 -117 117 -280v-613q-7 -157 -118 -269l-9 -9q-115 -108 -269 -109h-1v-1h-4l-14 1q-156 6 -268 119q-115 117 -117 280zM215 401q1 -77 56 -133 q54 -55 130 -58h2l3 1h4v-1q73 1 127 52l5 6q54 55 57 129v3l-1 3v597h1q-1 77 -56 133q-56 56 -133 57h-6q-77 -1 -132 -56q-55 -56 -56 -134v-599h-1z" />
<glyph unicode="&#xf6;" d="M0 400l1 1h-1v597l1 13q5 159 117 272q116 116 278 117h5l14 -1q157 -5 268 -118q115 -117 117 -280v-613q-7 -157 -118 -269l-9 -9q-115 -108 -269 -109h-1v-1h-4l-14 1q-156 6 -268 119q-115 117 -117 280zM147 1700q0 43 30.5 73.5t73.5 30.5q42 0 72.5 -30.5 t30.5 -73.5t-30.5 -73t-72.5 -30q-43 0 -73.5 30t-30.5 73zM208 401q1 -77 56 -133q54 -55 130 -58h2l3 1h4v-1q73 1 127 52l5 6q54 55 57 129v3l-1 3v597h1q-1 77 -56 133q-56 56 -133 57h-6q-77 -1 -132 -56q-55 -56 -56 -134v-599h-1zM447 1700q0 43 30 73t73 30 t73.5 -30t30.5 -73t-30.5 -73.5t-73.5 -30.5t-73 30.5t-30 73.5z" />
<glyph unicode="&#xf7;" horiz-adv-x="1107" d="M0 1104q0 42 31 73q31 30 74 30h597q43 0 74 -30q31 -31 31 -73t-31 -72t-74 -30h-597q-43 0 -74 30t-31 72zM300 694q0 43 30.5 73.5t73.5 30.5t73 -30.5t30 -73.5t-30 -73t-73 -30t-73.5 30t-30.5 73zM300 1494q0 43 30.5 73.5t73.5 30.5q42 0 72.5 -30.5t30.5 -73.5 t-30.5 -73t-72.5 -30q-43 0 -73.5 30t-30.5 73z" />
<glyph unicode="&#xf8;" d="M0 400l1 1h-1v597l1 13q5 159 117 272q80 80 182 105v108q0 44 30 75t72 31q43 0 73 -31t30 -75v-110q100 -26 178 -105q115 -117 117 -280v-613q-7 -157 -118 -269l-9 -9q-76 -71 -168 -96v-109q0 -43 -30 -74q-31 -31 -73 -31t-72 31t-30 74v108q-103 26 -183 107 q-115 117 -117 280zM208 401q1 -77 56 -133q54 -55 130 -58h2l3 1h4v-1q73 1 127 52l5 6q54 55 57 129v3l-1 3v597h1q-1 77 -56 133q-56 56 -133 57h-6q-77 -1 -132 -56q-55 -56 -56 -134v-599h-1z" />
<glyph unicode="&#xf9;" d="M0 401v894q0 44 31 74q30 31 73 31t74 -31q31 -30 31 -74v-895q1 -79 56 -134t132 -56h6q76 1 132 58q56 56 57 132h-1v895q0 44 31 74q31 31 74 31t73 -31q31 -30 31 -74v-896q-2 -162 -117 -279q-111 -114 -268 -119l-14 -1h-4v1h-1q-162 1 -278 117q-112 112 -117 271 zM200 1872q0 12 3 25q10 42 45 62q23 13 48 13q14 0 29 -4q41 -12 63 -51l94 -162q15 -26 15 -54q0 -13 -3 -26q-10 -41 -46 -62q-22 -13 -45 -13q-15 0 -31 5q-41 12 -63 50l-94 162q-15 27 -15 55z" />
<glyph unicode="&#xfa;" d="M0 401v894q0 44 31 74q30 31 73 31t74 -31q31 -30 31 -74v-895q1 -79 56 -134t132 -56h6q76 1 132 58q56 56 57 132h-1v895q0 44 31 74q31 31 74 31t73 -31q31 -30 31 -74v-896q-2 -162 -117 -279q-111 -114 -268 -119l-14 -1h-4v1h-1q-162 1 -278 117q-112 112 -117 271 zM311 1701q0 28 15 54l94 162q22 39 63 51q15 4 29 4q25 0 47 -13q36 -20 46 -62q3 -13 3 -25q0 -28 -15 -55l-94 -162q-22 -38 -63 -50q-16 -5 -31 -5q-24 0 -46 13q-35 21 -45 62q-3 13 -3 26z" />
<glyph unicode="&#xfb;" d="M0 401v894q0 44 31 74q30 31 73 31t74 -31q31 -30 31 -74v-895q1 -79 56 -134t132 -56h6q76 1 132 58q56 56 57 132h-1v895q0 44 31 74q31 31 74 31t73 -31q31 -30 31 -74v-896q-2 -162 -117 -279q-111 -114 -268 -119l-14 -1h-4v1h-1q-162 1 -278 117q-112 112 -117 271 zM151 1704q0 44 31 75l140 140q31 31 75 31q43 0 74 -31l141 -140q31 -31 31 -75q0 -43 -31 -74t-75 -31q-43 0 -74 31l-66 66l-66 -66q-31 -31 -75 -31t-74 31q-31 31 -31 74z" />
<glyph unicode="&#xfc;" d="M0 401v894q0 44 31 74q30 31 73 31t74 -31q31 -30 31 -74v-895q1 -79 56 -134t132 -56h6q76 1 132 58q56 56 57 132h-1v895q0 44 31 74q31 31 74 31t73 -31q31 -30 31 -74v-896q-2 -162 -117 -279q-111 -114 -268 -119l-14 -1h-4v1h-1q-162 1 -278 117q-112 112 -117 271 zM147 1700q0 43 30.5 73.5t73.5 30.5q42 0 72.5 -30.5t30.5 -73.5t-30.5 -73t-72.5 -30q-43 0 -73.5 30t-30.5 73zM447 1700q0 43 30 73t73 30t73.5 -30t30.5 -73t-30.5 -73.5t-73.5 -30.5t-73 30.5t-30 73.5z" />
<glyph unicode="&#xfd;" horiz-adv-x="1107" d="M0 399v896q0 44 31 75q31 30 74 30q44 0 75 -30q30 -31 30 -75v-898q1 -78 57 -133q56 -56 133 -57h10q75 3 130 58q49 50 57 116v914q0 44 30 75q31 30 75 30q43 0 74 -30q31 -31 31 -75v-1507q-6 -157 -119 -270q-117 -116 -281 -117h-1v-1h-5l-14 1q-82 3 -156 39 l-12 6l-21 11l-9 6q-89 57 -140 149q-12 24 -12 49q0 15 4 31q12 42 50 62q24 13 50 13q15 0 30 -4q42 -13 62 -51q25 -44 67 -71l21 -11q37 -18 75 -20h2l3 1h5v-1q78 1 134 57q55 55 57 130v250q-84 -46 -177 -50h-20q-164 2 -281 118q-112 112 -118 271zM305 1729 q0 28 15 54l94 162q22 39 63 51q15 4 29 4q25 0 47 -13q36 -20 46 -62q3 -13 3 -25q0 -28 -15 -55l-94 -162q-22 -38 -63 -50q-16 -5 -31 -5q-24 0 -46 13q-35 21 -45 62q-3 13 -3 26z" />
<glyph unicode="&#xfe;" d="M0 107v1787q0 44 30 75t73 31q42 0 72 -31t30 -75v-1787q0 -44 -30 -76q-30 -31 -72 -31q-43 0 -73 31q-30 32 -30 76zM0 -496v1495h1l-1 1q2 163 117 280q112 113 268 119h19q162 -1 278 -118q112 -112 118 -269v-617q-2 -163 -117 -280q-111 -113 -268 -118l-14 -1h-5 q-101 1 -188 50v-542q0 -43 -30 -74q-31 -31 -74 -31t-73 31q-31 31 -31 74zM208 999h1v-602q1 -79 56 -135q55 -55 132 -56h6q77 1 133 57q55 56 56 133h-1v601l1 3v3q-3 75 -57 130q-55 56 -132 56h-9q-76 -2 -130 -57q-55 -56 -56 -133z" />
<glyph unicode="&#xff;" horiz-adv-x="1107" d="M0 399v896q0 44 31 75q31 30 74 30q44 0 75 -30q30 -31 30 -75v-898q1 -78 57 -133q56 -56 133 -57h10q75 3 130 58q49 50 57 116v914q0 44 30 75q31 30 75 30q43 0 74 -30q31 -31 31 -75v-1507q-6 -157 -119 -270q-117 -116 -281 -117h-1v-1h-5l-14 1q-82 3 -156 39 l-12 6l-21 11l-9 6q-89 57 -140 149q-12 24 -12 49q0 15 4 31q12 42 50 62q24 13 50 13q15 0 30 -4q42 -13 62 -51q25 -44 67 -71l21 -11q37 -18 75 -20h2l3 1h5v-1q78 1 134 57q55 55 57 130v250q-84 -46 -177 -50h-20q-164 2 -281 118q-112 112 -118 271zM150 1700 q0 43 30.5 73.5t73.5 30.5q42 0 72.5 -30.5t30.5 -73.5t-30.5 -73t-72.5 -30q-43 0 -73.5 30t-30.5 73zM450 1700q0 43 30 73t73 30t73.5 -30t30.5 -73t-30.5 -73.5t-73.5 -30.5t-73 30.5t-30 73.5z" />
<glyph unicode="&#x152;" horiz-adv-x="1604" d="M0 400l1 1h-1v1197l1 13q5 159 117 272q116 116 278 117h5l14 -1q157 -5 268 -118q115 -117 117 -280v-1213q-7 -157 -118 -269l-9 -9q-115 -108 -269 -109h-1v-1h-4l-14 1q-156 6 -268 119q-115 117 -117 280zM208 401q1 -77 56 -133q54 -55 130 -58h2l3 1h4v-1 q73 1 127 52l5 6q54 55 57 129v3l-1 3v1197h1q-1 77 -56 133q-56 56 -133 57h-6q-77 -1 -132 -56q-55 -56 -56 -134v-1199h-1zM596 401v1198l1 12q5 159 118 271q116 116 280 118h6l16 -1q81 -4 154 -38l5 -3l4 -2l1 -1l22 -12l5 -3l4 -2l1 -1q89 -56 139 -148 q13 -23 13 -48q0 -16 -5 -32q-12 -41 -50 -62q-23 -13 -48 -13q-15 0 -31 5q-42 12 -63 50q-24 45 -68 72l-19 10v1q-37 17 -79 18h-6q-78 0 -133 -56q-56 -55 -57 -134v-1200q1 -78 57 -134t133 -56h11q37 1 74 19l22 12h1q40 26 64 70q21 38 63 51q15 4 29 4q26 0 50 -13 q38 -21 50 -62q5 -16 5 -32q0 -25 -13 -48q-50 -91 -136 -147l-13 -7l-15 -8q-4 -3 -17 -10q-75 -35 -155 -38l-15 -1h-5v1h-1q-164 1 -280 117q-112 112 -118 270zM696 995q0 44 31 74q31 31 74 31h397q43 0 74 -31q31 -30 31 -74t-31 -74q-31 -31 -74 -31h-397 q-43 0 -74 31q-31 30 -31 74z" />
<glyph unicode="&#x153;" horiz-adv-x="1700" d="M0 400l1 1h-1v597l1 13q5 159 117 272q116 116 278 117h5l14 -1q157 -5 268 -118q115 -117 117 -280v-613q-7 -157 -118 -269l-9 -9q-115 -108 -269 -109h-1v-1h-4l-14 1q-156 6 -268 119q-115 117 -117 280zM208 401q1 -77 56 -133q54 -55 130 -58h2l3 1h4v-1 q73 1 127 52l5 6q54 55 57 129v3l-1 3v597h1q-1 77 -56 133q-56 56 -133 57h-6q-77 -1 -132 -56q-55 -56 -56 -134v-599h-1zM600 387v627q7 156 118 268q117 116 278 118h19q156 -6 268 -119q115 -117 117 -280v-104l-1 -12q-5 -159 -117 -271q-116 -116 -278 -118l-1 1v-1 h-4l-14 1q-92 3 -176 50v-146l-1 -2v-3q3 -76 57 -130q55 -55 132 -56h6q41 1 79 19h1l17 9q44 28 69 73q20 38 61 50q16 5 32 5q25 0 48 -13q37 -21 49 -62q5 -16 5 -32q0 -25 -13 -48q-49 -91 -139 -148l-4 -3l-5 -3l-27 -15l-5 -3q-71 -34 -153 -37l-15 -2h-6v1l-1 -1 q-162 2 -278 118q-112 112 -118 269zM808 1002l1 -3v-120q7 -67 56 -116q55 -56 132 -57h6q77 0 132 56q55 55 56 134v105h1q-1 77 -56 132q-54 55 -130 58h-2l-3 -1h-4v1q-76 -1 -132 -58q-54 -54 -57 -128v-3z" />
<glyph unicode="&#x178;" horiz-adv-x="1107" d="M0 799v1095q0 44 31 74q31 31 74 31q44 0 74 -31q31 -30 31 -74v-1096q1 -78 57 -134q55 -55 132 -56h13q74 3 128 58q56 57 57 132v1096q0 44 31 74q31 31 74 31t74 -31q31 -30 31 -74v-1097q-2 -161 -117 -278q-78 -79 -181 -107v-307q0 -44 -31 -75q-31 -30 -74 -30 q-44 0 -75 30q-31 31 -31 75v307q-104 29 -179 103q-112 112 -118 271zM171 2300q0 43 30.5 73.5t73.5 30.5q42 0 72.5 -30.5t30.5 -73.5t-30.5 -73t-72.5 -30q-43 0 -73.5 30t-30.5 73zM471 2300q0 43 30 73t73 30t73.5 -30t30.5 -73t-30.5 -73.5t-73.5 -30.5t-73 30.5 t-30 73.5z" />
<glyph unicode="&#x2c6;" horiz-adv-x="792" d="M0 1725q0 44 31 75l140 140q31 31 75 31q43 0 74 -31l141 -140q31 -31 31 -75q0 -43 -31 -74t-75 -31q-43 0 -74 31l-66 66l-66 -66q-31 -31 -75 -31t-74 31q-31 31 -31 74z" />
<glyph unicode="&#x2dc;" horiz-adv-x="1123" d="M8 1871q0 16 6 33q13 42 52 61q70 36 167 36q89 0 201 -30q88 -23 147 -23q49 0 79 16q24 13 49 13q15 0 31 -5q42 -12 62 -50q13 -24 13 -50q0 -15 -4 -30q-13 -42 -51 -62q-74 -41 -180 -41q-89 0 -199 29q-91 23 -149 23q-45 0 -71 -13q-23 -12 -47 -12q-17 0 -34 6 q-41 14 -60 52q-12 23 -12 47z" />
<glyph unicode="&#x2000;" horiz-adv-x="1296" />
<glyph unicode="&#x2001;" horiz-adv-x="2592" />
<glyph unicode="&#x2002;" horiz-adv-x="1296" />
<glyph unicode="&#x2003;" horiz-adv-x="2592" />
<glyph unicode="&#x2004;" horiz-adv-x="864" />
<glyph unicode="&#x2005;" horiz-adv-x="648" />
<glyph unicode="&#x2006;" horiz-adv-x="432" />
<glyph unicode="&#x2007;" horiz-adv-x="432" />
<glyph unicode="&#x2008;" horiz-adv-x="324" />
<glyph unicode="&#x2009;" horiz-adv-x="518" />
<glyph unicode="&#x200a;" horiz-adv-x="144" />
<glyph unicode="&#x2010;" horiz-adv-x="907" d="M0 995q0 44 31 74q31 31 74 31h397q43 0 74 -31q31 -30 31 -74t-31 -74q-31 -31 -74 -31h-397q-43 0 -74 31q-31 30 -31 74z" />
<glyph unicode="&#x2011;" horiz-adv-x="907" d="M0 995q0 44 31 74q31 31 74 31h397q43 0 74 -31q31 -30 31 -74t-31 -74q-31 -31 -74 -31h-397q-43 0 -74 31q-31 30 -31 74z" />
<glyph unicode="&#x2012;" horiz-adv-x="907" d="M0 995q0 44 31 74q31 31 74 31h397q43 0 74 -31q31 -30 31 -74t-31 -74q-31 -31 -74 -31h-397q-43 0 -74 31q-31 30 -31 74z" />
<glyph unicode="&#x2013;" horiz-adv-x="907" d="M0 1095q0 42 31 73q31 30 74 30h397q43 0 74 -30q31 -31 31 -73t-31 -72t-74 -30h-397q-43 0 -74 30t-31 72z" />
<glyph unicode="&#x2014;" horiz-adv-x="1307" d="M0 1095q0 42 31 73q31 30 74 30h797q43 0 74 -30q31 -31 31 -73t-31 -72t-74 -30h-797q-43 0 -74 30t-31 72z" />
<glyph unicode="&#x2018;" horiz-adv-x="500" d="M0 1706v188q0 44 29 75q30 31 71 31t71 -31q29 -31 29 -75v-188q0 -44 -29 -75q-30 -31 -71 -31t-71 31q-29 31 -29 75z" />
<glyph unicode="&#x2019;" horiz-adv-x="500" d="M0 1706v188q0 44 29 75q30 31 71 31t71 -31q29 -31 29 -75v-188q0 -44 -29 -75q-30 -31 -71 -31t-71 31q-29 31 -29 75z" />
<glyph unicode="&#x201a;" horiz-adv-x="500" d="M0 94q0 44 29 75q30 31 71 31t71 -31q29 -31 29 -75v-188q0 -44 -29 -75q-30 -31 -71 -31t-71 31q-29 31 -29 75v188z" />
<glyph unicode="&#x201c;" horiz-adv-x="900" d="M0 1706v188q0 44 29 75q30 31 71 31t71 -31q29 -31 29 -75v-188q0 -44 -29 -75q-30 -31 -71 -31t-71 31q-29 31 -29 75zM400 1706v188q0 44 29 75q30 31 71 31t71 -31q29 -31 29 -75v-188q0 -44 -29 -75q-30 -31 -71 -31t-71 31q-29 31 -29 75z" />
<glyph unicode="&#x201d;" horiz-adv-x="900" d="M0 1706v188q0 44 29 75q30 31 71 31t71 -31q29 -31 29 -75v-188q0 -44 -29 -75q-30 -31 -71 -31t-71 31q-29 31 -29 75zM400 1706v188q0 44 29 75q30 31 71 31t71 -31q29 -31 29 -75v-188q0 -44 -29 -75q-30 -31 -71 -31t-71 31q-29 31 -29 75z" />
<glyph unicode="&#x201e;" horiz-adv-x="900" d="M0 94q0 44 29 75q30 31 71 31t71 -31q29 -31 29 -75v-188q0 -44 -29 -75q-30 -31 -71 -31t-71 31q-29 31 -29 75v188zM400 94q0 44 29 75q30 31 71 31t71 -31q29 -31 29 -75v-188q0 -44 -29 -75q-30 -31 -71 -31t-71 31q-29 31 -29 75v188z" />
<glyph unicode="&#x2022;" horiz-adv-x="507" d="M0 1000q0 43 30.5 73.5t73.5 30.5q42 0 72.5 -30.5t30.5 -73.5t-30.5 -73t-72.5 -30q-43 0 -73.5 30t-30.5 73z" />
<glyph unicode="&#x2026;" horiz-adv-x="1307" d="M0 100q0 43 30.5 73.5t73.5 30.5q42 0 72.5 -30.5t30.5 -73.5t-30.5 -73t-72.5 -30q-43 0 -73.5 30t-30.5 73zM400 100q0 43 30.5 73.5t73.5 30.5q42 0 72.5 -30.5t30.5 -73.5t-30.5 -73t-72.5 -30q-43 0 -73.5 30t-30.5 73zM800 100q0 43 30.5 73.5t73.5 30.5 q42 0 72.5 -30.5t30.5 -73.5t-30.5 -73t-72.5 -30q-43 0 -73.5 30t-30.5 73z" />
<glyph unicode="&#x202f;" horiz-adv-x="518" />
<glyph unicode="&#x2039;" horiz-adv-x="791" d="M0 1000q0 44 31 75l281 281q31 31 74 31q44 0 74 -31q31 -31 31 -74q0 -44 -31 -75l-206 -207l206 -206q31 -31 31 -75q0 -43 -31 -74q-30 -31 -74 -31q-43 0 -74 31l-272 272l-2 2l-7 7q-31 31 -31 74z" />
<glyph unicode="&#x203a;" horiz-adv-x="791" d="M0 719q0 44 31 75l206 206l-206 207q-31 31 -31 75q0 43 31 74q30 31 74 31t74 -31l281 -281q31 -31 31 -75q0 -43 -31 -74l-7 -7l-2 -2l-272 -272q-30 -31 -74 -31t-74 31q-31 31 -31 74z" />
<glyph unicode="&#x205f;" horiz-adv-x="648" />
<glyph unicode="&#x20ac;" horiz-adv-x="1107" d="M0 895q0 44 31 74q31 31 74 31h597q43 0 74 -31q31 -30 31 -74t-31 -74q-31 -31 -74 -31h-597q-43 0 -74 31q-31 30 -31 74zM0 1316q0 44 31 74q31 31 74 31h597q43 0 74 -31q31 -30 31 -74t-31 -74q-31 -31 -74 -31h-597q-43 0 -74 31q-31 30 -31 74zM125 401v1198l1 12 q4 159 100 271q99 116 238 118h5l14 -1q69 -4 131 -38l4 -3l3 -2l1 -1l19 -12l4 -3l4 -2v-1q76 -56 119 -148q11 -23 11 -48q0 -16 -5 -32q-10 -41 -42 -62q-20 -13 -41 -13q-13 0 -26 5q-36 12 -54 50q-20 45 -58 72l-16 10v1q-31 17 -67 18h-5q-66 0 -113 -56 q-48 -55 -49 -134v-1200q1 -78 49 -134t113 -56h9q32 1 63 19l19 12h1q34 26 54 70q18 38 54 51q12 4 24 4q22 0 43 -13q32 -21 42 -62q5 -16 5 -32q0 -25 -11 -48q-43 -91 -116 -147l-11 -7l-13 -8q-3 -3 -14 -10q-64 -35 -132 -38l-13 -1h-4v1h-1q-139 1 -238 117 q-95 112 -100 270z" />
<glyph unicode="&#x2122;" horiz-adv-x="2102" d="M0 1894q0 44 31 75t74 31h597q44 0 75 -31q30 -31 30 -75q0 -43 -30 -74q-31 -31 -75 -31h-193v-690q0 -43 -31 -74t-74 -31q-44 0 -75 31t-31 74v690h-193q-43 0 -74 31t-31 74zM796 1099v610q5 110 81 192l2 2l1 2l4 5q82 83 202 88l13 2h4v-1h1q111 -1 195 -75 q84 73 195 75h1v1h4l14 -2q119 -5 201 -88l5 -5l1 -2l2 -2q74 -81 79 -193l1 -8v-601q0 -43 -31 -74t-74 -31q-44 0 -75 31q-30 31 -30 74v601q-2 34 -25 59l-3 3q-25 25 -60 27h-9q-35 -1 -61 -25l-2 -2q-26 -25 -28 -61v-602q0 -43 -31 -74t-74 -31q-44 0 -75 31t-31 74 l1 607q-4 33 -28 56q-26 27 -63 27h-8q-36 -2 -61 -27l-3 -3q-24 -26 -25 -60v-600q0 -43 -31 -74q-30 -31 -74 -31t-74 31q-31 31 -31 74z" />
<glyph unicode="&#x25fc;" horiz-adv-x="1400" d="M0 0v1400h1400v-1400h-1400z" />
</font>
</defs>
</svg>
